0
SECTION
2
HEADER
999
*** POWERPCB  HEADER ***
9
$EXTMIN
10
-14.397
20
-0.127
9
$EXTMAX
10
28.937
20
62.397
9
$FILLMODE
70
0
9
$GRIDMODE
70
1
9
$GRIDUNIT
10
0.2
20
0.2
9
$INSBASE
10
-444.15
20
-449.4
9
$LIMCHECK
70
0
9
$PLINEWID
40
0.01
9
$SNAPMODE
70
1
9
$SNAPUNIT
10
0.1
20
0.1
9
$TEXTSIZE
40
2.54
9
$TEXTSTYLE
7
W0$254
9
$USERI1
70
101
9
$USERI2
70
0
9
$USERI5
70
150
9
$VIEWCTR
10
78.6705013333
20
13.2845966667
0
ENDSEC
0
SECTION
2
TABLES
999
*** POWERPCB  LTYPE ***
0
TABLE
2
LTYPE
70
1
0
LTYPE
2
CONTINUOUS
70
64
3
---
72
65
73
0
40
0
0
LTYPE
2
KEEPOUT_00001000$0
70
64
3
---
72
65
73
2
40
2
49
1
49
1
0
ENDTAB
999
*** POWERPCB  LAYER ***
0
TABLE
2
LAYER
70
33
0
LAYER
2
DBLAYERS
70
1
62
-254
6
CONTINUOUS
0
LAYER
2
BOARD_OUTLINE_00
70
0
62
254
6
CONTINUOUS
0
LAYER
2
LABEL_INFO
70
1
62
-254
6
CONTINUOUS
0
LAYER
2
LABEL_ATTRIBUTE
70
1
62
-254
6
CONTINUOUS
0
LAYER
2
PART_NAME_01
70
0
62
254
6
CONTINUOUS
0
LAYER
2
PART_TYPE_01
70
1
62
-250
6
CONTINUOUS
0
LAYER
2
PART_INFO
70
1
62
-254
6
CONTINUOUS
0
LAYER
2
PART_PTS
70
1
62
-254
6
CONTINUOUS
0
LAYER
2
ATTRIBUTE_01
70
0
62
5
6
CONTINUOUS
0
LAYER
2
SYM_NAME
70
1
62
-254
6
CONTINUOUS
0
LAYER
2
SYM_PART_NAME_01
70
1
62
-254
6
CONTINUOUS
0
LAYER
2
SYM_PART_TYPE_01
70
1
62
-254
6
CONTINUOUS
0
LAYER
2
SYM_TERMINAL
70
1
62
-254
6
CONTINUOUS
0
LAYER
2
PKG_INFO
70
1
62
-254
6
CONTINUOUS
0
LAYER
2
PART_TOP_2DLINE_00
70
0
62
254
6
CONTINUOUS
0
LAYER
2
PART_TOP_2DLINE_20
70
1
62
-6
6
CONTINUOUS
0
LAYER
2
KEEPOUT_01
70
0
62
130
6
CONTINUOUS
0
LAYER
2
DRIL_PLTE_THRU_01
70
0
62
176
6
CONTINUOUS
0
LAYER
2
DRIL_PLTE_THRU_02
70
0
62
136
6
CONTINUOUS
0
LAYER
2
DRIL_PLTE_THRU_03
70
0
62
56
6
CONTINUOUS
0
LAYER
2
DRIL_PLTE_THRU_04
70
0
62
16
6
CONTINUOUS
0
LAYER
2
PADS_INNER
70
0
62
5
6
CONTINUOUS
0
LAYER
2
PADS_BOT
70
0
62
1
6
CONTINUOUS
0
LAYER
2
PADS_TOP
70
0
62
5
6
CONTINUOUS
0
LAYER
2
PART_TOP_2DLINE_01
70
0
62
254
6
CONTINUOUS
0
LAYER
2
PART_TOP_2DLINE_26
70
0
62
254
6
CONTINUOUS
0
LAYER
2
DRIL_NPLTE_THRU_01
70
0
62
176
6
CONTINUOUS
0
LAYER
2
DRIL_NPLTE_THRU_02
70
0
62
136
6
CONTINUOUS
0
LAYER
2
DRIL_NPLTE_THRU_03
70
0
62
56
6
CONTINUOUS
0
LAYER
2
DRIL_NPLTE_THRU_04
70
0
62
16
6
CONTINUOUS
0
LAYER
2
PART_TOP_COPPER_26
70
0
62
254
6
CONTINUOUS
0
LAYER
2
PCB_PARAMS
70
1
62
-254
6
CONTINUOUS
0
LAYER
2
DRIL_SYMBOL
70
0
62
254
6
CONTINUOUS
0
ENDTAB
999
*** POWERPCB  TEXT STYLE ***
0
TABLE
2
STYLE
70
13
0
STYLE
2
W0$1
70
64
40
0
41
0.75
42
0
50
0
71
0
3
simplex
0
STYLE
2
W0$12
70
64
40
0
41
0.75
42
0
50
0
71
0
3
simplex
0
STYLE
2
W0$254
70
64
40
0
41
0.75
42
0
50
0
71
0
3
simplex
0
STYLE
2
W0$127
70
64
40
0
41
0.75
42
0
50
0
71
0
3
simplex
0
STYLE
2
W0$01
70
64
40
0
41
0.75
42
0
50
0
71
0
3
simplex
0
STYLE
2
W0$0381
70
64
40
0
41
0.75
42
0
50
0
71
0
3
simplex
0
STYLE
2
W0$1778
70
64
40
0
41
0.75
42
0
50
0
71
0
3
simplex
0
STYLE
2
W0$1R0
70
64
40
0
41
0.75
42
0
50
0
71
0
3
simplex
0
STYLE
2
W0$12R1
70
64
40
0
41
0.75
42
0
50
0
71
0
3
simplex
0
STYLE
2
W0$254R0
70
64
40
0
41
0.75
42
0
50
0
71
0
3
simplex
0
STYLE
2
W0$127R0
70
64
40
0
41
0.75
42
0
50
0
71
0
3
simplex
0
STYLE
2
W0$01R0
70
64
40
0
41
0.75
42
0
50
0
71
0
3
simplex
0
STYLE
2
W0$0381R0
70
64
40
0
41
0.75
42
0
50
0
71
0
3
simplex
0
ENDTAB
0
ENDSEC
0
SECTION
2
BLOCKS
999
*** POWERPCB  DBLAYER ***
0
BLOCK
2
DBLAYERS
8
0
10
0
20
0
3
DBLAYERS
70
64
0
TEXT
8
DBLAYERS
10
0
20
-3.048
40
1.778
1
__It__Is__Job__Name__:=ME310G1EVB PCB FINAL_240205.pcb
999
 *  1.Number             2.Type                  3.RouteColor
999
 *  4.ViaColor           5.PadColor              6.CopperColor
999
 *  7.2DLineColor        8.TextColor             9.ErrorColor
999
 * 10.TopComponentColor 11.BottomComponentColor 12.RoutingDirection
999
 * 13.LayerThickness    14.CopperThickness      15.Dielectric
999
 * 16.IsRouteable       17.IsVisible            18.IsSelectable
999
 * 19.IsPrepreg         20.AssSilkScreen        21.AssPasteMask
999
 * 22.AssSolderMask     23.AssAssembly
0
TEXT
8
DBLAYERS
10
0
20
-6.096
40
1.778
1
Top:=1 1 9 8 9 25 14 9 15 8 0 0 381000 51435 4.3000001907 1 1 1 0 26 23 21 27 0 0 1 8 0 9 27 
0
ENDBLK
999
*** POWERPCB  BOARD ***
0
BLOCK
2
BOARD_1
8
0
10
0
20
0
3
BOARD_1
70
64
0
POLYLINE
8
BOARD_OUTLINE_00
66
1
40
0.1
41
0.1
70
1
0
VERTEX
8
BOARD_OUTLINE_00
10
0.35
20
25.7
0
VERTEX
8
BOARD_OUTLINE_00
10
25.35
20
25.7
0
VERTEX
8
BOARD_OUTLINE_00
10
25.35
20
-30.3
0
VERTEX
8
BOARD_OUTLINE_00
10
0.35
20
-30.3
0
SEQEND
0
INSERT
2
SMOOTH_0$1
8
BOARD_OUTLINE_00
10
0.35
20
25.7
0
INSERT
2
SMOOTH_0$1
8
BOARD_OUTLINE_00
10
25.35
20
25.7
0
INSERT
2
SMOOTH_0$1
8
BOARD_OUTLINE_00
10
25.35
20
-30.3
0
INSERT
2
SMOOTH_0$1
8
BOARD_OUTLINE_00
10
0.35
20
-30.3
0
ENDBLK
999
*** POWERPCB  2DLINE ***
0
BLOCK
2
D_2dfeghi_31
8
0
10
0
20
0
3
D_2dfeghi_31
70
64
0
ENDBLK
0
BLOCK
2
D_1dfeghi_32
8
0
10
0
20
0
3
D_1dfeghi_32
70
64
0
ENDBLK
999
*** POWERPCB  COMPONENT ***
0
BLOCK
2
PART_TOP_0
8
0
10
0
20
0
3
PART_TOP_0
70
64
0
INSERT
2
SYM_TOP_2
8
0
10
0
20
0
0
INSERT
2
PKG_0
8
0
10
0
20
0
0
TEXT
8
LABEL_INFO
10
1.3
20
-0.3
40
0.56
1
0 0 0 0 0 1
41
0.75
7
W0$1
0
TEXT
8
LABEL_ATTRIBUTE
10
1.3
20
-0.3
40
0.56
1
Ref.Des.
41
0.75
7
W0$1
0
TEXT
8
PART_NAME_01
10
1.3
20
-0.3
40
0.56
1
C1
41
0.75
7
W0$1
0
TEXT
8
LABEL_INFO
10
-1.124
20
1.652
40
0.7
1
0 0 0 0 0 1
41
0.75
7
W0$1
0
TEXT
8
LABEL_ATTRIBUTE
10
-1.124
20
1.652
40
0.7
1
PartType
41
0.75
7
W0$1
0
TEXT
8
PART_TYPE_01
10
-1.124
20
1.652
40
0.7
1
C_1005
41
0.75
7
W0$1
0
TEXT
8
PART_INFO
10
-1.124
20
0.652
40
0.7
1
000000
41
0.75
7
W0$1
0
TEXT
8
PART_PTS
10
-1.124
20
-0.348
40
0.7
1
1 2 
41
0.75
7
W0$1
0
ENDBLK
0
BLOCK
2
PART_TOP_1
8
0
10
0
20
0
3
PART_TOP_1
70
64
0
INSERT
2
SYM_TOP_3
8
0
10
0
20
0
0
INSERT
2
PKG_1
8
0
10
0
20
0
0
TEXT
8
LABEL_INFO
10
-1.124
20
1.652
40
0.7
1
0 0 0 0 0 1
41
0.75
7
W0$1
0
TEXT
8
LABEL_ATTRIBUTE
10
-1.124
20
1.652
40
0.7
1
PartType
41
0.75
7
W0$1
0
TEXT
8
PART_TYPE_01
10
-1.124
20
1.652
40
0.7
1
C_0201
41
0.75
7
W0$1
0
TEXT
8
LABEL_INFO
10
1.81
20
0.25
40
0.56
1
0 324000000 0 0 0 1
50
180
41
0.75
7
W0$1
0
TEXT
8
LABEL_ATTRIBUTE
10
1.81
20
0.25
40
0.56
1
Ref.Des.
50
180
41
0.75
7
W0$1
0
TEXT
8
PART_NAME_01
10
1.81
20
0.25
40
0.56
1
C10
50
180
41
0.75
7
W0$1
0
TEXT
8
PART_INFO
10
1.81
20
-0.55
40
0.56
1
000000
50
180
41
0.75
7
W0$1
0
TEXT
8
PART_PTS
10
1.81
20
-1.35
40
0.56
1
1 2 
50
180
41
0.75
7
W0$1
0
ENDBLK
0
BLOCK
2
PART_TOP_2
8
0
10
0
20
0
3
PART_TOP_2
70
64
0
INSERT
2
SYM_TOP_4
8
0
10
0
20
0
0
INSERT
2
PKG_2
8
0
10
0
20
0
0
TEXT
8
LABEL_INFO
10
2.85
20
-0.8499993333
40
0.56
1
1 486000000 1 1 0 1
72
1
73
1
11
2.85
21
-0.8499993333
50
270
41
0.75
7
W0$1
0
TEXT
8
LABEL_ATTRIBUTE
10
2.85
20
-0.8499993333
40
0.56
1
Ref.Des.
72
1
73
1
11
2.85
21
-0.8499993333
50
270
41
0.75
7
W0$1
0
TEXT
8
PART_NAME_01
10
2.85
20
-0.8499993333
40
0.56
1
C11
72
1
73
2
11
2.85
21
-0.8499993333
50
-90
41
0.75
7
W0$1
0
TEXT
8
LABEL_INFO
10
-0.05
20
2.3
40
0.889
1
1 0 1 1 0 1
72
1
73
1
11
-0.05
21
2.3
41
0.75
7
W0$12
0
TEXT
8
LABEL_ATTRIBUTE
10
-0.05
20
2.3
40
0.889
1
PartType
72
1
73
1
11
-0.05
21
2.3
41
0.75
7
W0$12
0
TEXT
8
PART_TYPE_01
10
-0.05
20
2.3
40
0.889
1
C_3225
72
1
73
2
11
-0.05
21
2.3
41
0.75
7
W0$12
0
TEXT
8
PART_INFO
10
-0.05
20
1.03
40
0.889
1
000000
72
1
73
2
11
-0.05
21
1.03
41
0.75
7
W0$12
0
TEXT
8
PART_PTS
10
-0.05
20
-0.24
40
0.889
1
1 2 
72
1
73
2
11
-0.05
21
-0.24
41
0.75
7
W0$12
0
ENDBLK
0
BLOCK
2
PART_TOP_3
8
0
10
0
20
0
3
PART_TOP_3
70
64
0
INSERT
2
SYM_TOP_3
8
0
10
0
20
0
0
INSERT
2
PKG_1
8
0
10
0
20
0
0
TEXT
8
LABEL_INFO
10
-1.124
20
1.652
40
0.7
1
0 0 0 0 0 1
41
0.75
7
W0$1
0
TEXT
8
LABEL_ATTRIBUTE
10
-1.124
20
1.652
40
0.7
1
PartType
41
0.75
7
W0$1
0
TEXT
8
PART_TYPE_01
10
-1.124
20
1.652
40
0.7
1
C_0201
41
0.75
7
W0$1
0
TEXT
8
LABEL_INFO
10
-0.4
20
1.3
40
0.56
1
0 486000000 0 0 0 1
50
270
41
0.75
7
W0$1
0
TEXT
8
LABEL_ATTRIBUTE
10
-0.4
20
1.3
40
0.56
1
Ref.Des.
50
270
41
0.75
7
W0$1
0
TEXT
8
PART_NAME_01
10
-0.4
20
1.3
40
0.56
1
C12
50
270
41
0.75
7
W0$1
0
TEXT
8
PART_INFO
10
-0.4
20
0.5
40
0.56
1
000000
50
270
41
0.75
7
W0$1
0
TEXT
8
PART_PTS
10
-0.4
20
-0.3
40
0.56
1
1 2 
50
270
41
0.75
7
W0$1
0
ENDBLK
0
BLOCK
2
PART_TOP_4
8
0
10
0
20
0
3
PART_TOP_4
70
64
0
INSERT
2
SYM_TOP_3
8
0
10
0
20
0
0
INSERT
2
PKG_1
8
0
10
0
20
0
0
TEXT
8
LABEL_INFO
10
-1.124
20
1.652
40
0.7
1
0 0 0 0 0 1
41
0.75
7
W0$1
0
TEXT
8
LABEL_ATTRIBUTE
10
-1.124
20
1.652
40
0.7
1
PartType
41
0.75
7
W0$1
0
TEXT
8
PART_TYPE_01
10
-1.124
20
1.652
40
0.7
1
C_0201
41
0.75
7
W0$1
0
TEXT
8
LABEL_INFO
10
1.7
20
0.2
40
0.56
1
0 324000000 0 0 0 1
50
180
41
0.75
7
W0$1
0
TEXT
8
LABEL_ATTRIBUTE
10
1.7
20
0.2
40
0.56
1
Ref.Des.
50
180
41
0.75
7
W0$1
0
TEXT
8
PART_NAME_01
10
1.7
20
0.2
40
0.56
1
C13
50
180
41
0.75
7
W0$1
0
TEXT
8
PART_INFO
10
1.7
20
-0.6
40
0.56
1
000000
50
180
41
0.75
7
W0$1
0
TEXT
8
PART_PTS
10
1.7
20
-1.4
40
0.56
1
1 2 
50
180
41
0.75
7
W0$1
0
ENDBLK
0
BLOCK
2
PART_TOP_5
8
0
10
0
20
0
3
PART_TOP_5
70
64
0
INSERT
2
SYM_TOP_3
8
0
10
0
20
0
0
INSERT
2
PKG_1
8
0
10
0
20
0
0
TEXT
8
LABEL_INFO
10
-1.124
20
1.652
40
0.7
1
0 0 0 0 0 1
41
0.75
7
W0$1
0
TEXT
8
LABEL_ATTRIBUTE
10
-1.124
20
1.652
40
0.7
1
PartType
41
0.75
7
W0$1
0
TEXT
8
PART_TYPE_01
10
-1.124
20
1.652
40
0.7
1
C_0201
41
0.75
7
W0$1
0
TEXT
8
LABEL_INFO
10
-0.24
20
1.3
40
0.56
1
0 486000000 0 0 0 1
50
270
41
0.75
7
W0$1
0
TEXT
8
LABEL_ATTRIBUTE
10
-0.24
20
1.3
40
0.56
1
Ref.Des.
50
270
41
0.75
7
W0$1
0
TEXT
8
PART_NAME_01
10
-0.24
20
1.3
40
0.56
1
C14
50
270
41
0.75
7
W0$1
0
TEXT
8
PART_INFO
10
-0.24
20
0.5
40
0.56
1
000000
50
270
41
0.75
7
W0$1
0
TEXT
8
PART_PTS
10
-0.24
20
-0.3
40
0.56
1
1 2 
50
270
41
0.75
7
W0$1
0
ENDBLK
0
BLOCK
2
PART_TOP_6
8
0
10
0
20
0
3
PART_TOP_6
70
64
0
INSERT
2
SYM_TOP_3
8
0
10
0
20
0
0
INSERT
2
PKG_1
8
0
10
0
20
0
0
TEXT
8
LABEL_INFO
10
-1.124
20
1.652
40
0.7
1
0 0 0 0 0 1
41
0.75
7
W0$1
0
TEXT
8
LABEL_ATTRIBUTE
10
-1.124
20
1.652
40
0.7
1
PartType
41
0.75
7
W0$1
0
TEXT
8
PART_TYPE_01
10
-1.124
20
1.652
40
0.7
1
C_0201
41
0.75
7
W0$1
0
TEXT
8
LABEL_INFO
10
1.3
20
-0.1999993333
40
0.56
1
0 162000000 0 0 0 1
50
90
41
0.75
7
W0$1
0
TEXT
8
LABEL_ATTRIBUTE
10
1.3
20
-0.1999993333
40
0.56
1
Ref.Des.
50
90
41
0.75
7
W0$1
0
TEXT
8
PART_NAME_01
10
1.3
20
-0.1999993333
40
0.56
1
C15
50
90
41
0.75
7
W0$1
0
TEXT
8
PART_INFO
10
1.3
20
-0.9999993333
40
0.56
1
000000
50
90
41
0.75
7
W0$1
0
TEXT
8
PART_PTS
10
1.3
20
-1.7999993333
40
0.56
1
1 2 
50
90
41
0.75
7
W0$1
0
ENDBLK
0
BLOCK
2
PART_TOP_7
8
0
10
0
20
0
3
PART_TOP_7
70
64
0
INSERT
2
SYM_TOP_2
8
0
10
0
20
0
0
INSERT
2
PKG_0
8
0
10
0
20
0
0
TEXT
8
LABEL_INFO
10
1.27
20
-0.2299993333
40
0.56
1
0 486000000 0 0 0 1
50
270
41
0.75
7
W0$1
0
TEXT
8
LABEL_ATTRIBUTE
10
1.27
20
-0.2299993333
40
0.56
1
Ref.Des.
50
270
41
0.75
7
W0$1
0
TEXT
8
PART_NAME_01
10
1.27
20
-0.2299993333
40
0.56
1
C16
50
270
41
0.75
7
W0$1
0
TEXT
8
LABEL_INFO
10
-1.124
20
1.652
40
0.7
1
0 0 0 0 0 1
41
0.75
7
W0$1
0
TEXT
8
LABEL_ATTRIBUTE
10
-1.124
20
1.652
40
0.7
1
PartType
41
0.75
7
W0$1
0
TEXT
8
PART_TYPE_01
10
-1.124
20
1.652
40
0.7
1
C_1005
41
0.75
7
W0$1
0
TEXT
8
PART_INFO
10
-1.124
20
0.652
40
0.7
1
000000
41
0.75
7
W0$1
0
TEXT
8
PART_PTS
10
-1.124
20
-0.348
40
0.7
1
1 2 
41
0.75
7
W0$1
0
ENDBLK
0
BLOCK
2
PART_TOP_8
8
0
10
0
20
0
3
PART_TOP_8
70
64
0
INSERT
2
SYM_TOP_3
8
0
10
0
20
0
0
INSERT
2
PKG_1
8
0
10
0
20
0
0
TEXT
8
LABEL_INFO
10
-1.124
20
1.652
40
0.7
1
0 0 0 0 0 1
41
0.75
7
W0$1
0
TEXT
8
LABEL_ATTRIBUTE
10
-1.124
20
1.652
40
0.7
1
PartType
41
0.75
7
W0$1
0
TEXT
8
PART_TYPE_01
10
-1.124
20
1.652
40
0.7
1
C_0201
41
0.75
7
W0$1
0
TEXT
8
LABEL_INFO
10
0.72
20
0.6
40
0.56
1
0 486000000 0 0 0 1
50
270
41
0.75
7
W0$1
0
TEXT
8
LABEL_ATTRIBUTE
10
0.72
20
0.6
40
0.56
1
Ref.Des.
50
270
41
0.75
7
W0$1
0
TEXT
8
PART_NAME_01
10
0.72
20
0.6
40
0.56
1
C17
50
270
41
0.75
7
W0$1
0
TEXT
8
PART_INFO
10
0.72
20
-0.2
40
0.56
1
000000
50
270
41
0.75
7
W0$1
0
TEXT
8
PART_PTS
10
0.72
20
-1
40
0.56
1
1 2 
50
270
41
0.75
7
W0$1
0
ENDBLK
0
BLOCK
2
PART_TOP_9
8
0
10
0
20
0
3
PART_TOP_9
70
64
0
INSERT
2
SYM_TOP_3
8
0
10
0
20
0
0
INSERT
2
PKG_1
8
0
10
0
20
0
0
TEXT
8
LABEL_INFO
10
-1.124
20
1.652
40
0.7
1
0 0 0 0 0 1
41
0.75
7
W0$1
0
TEXT
8
LABEL_ATTRIBUTE
10
-1.124
20
1.652
40
0.7
1
PartType
41
0.75
7
W0$1
0
TEXT
8
PART_TYPE_01
10
-1.124
20
1.652
40
0.7
1
C_0201
41
0.75
7
W0$1
0
TEXT
8
LABEL_INFO
10
-0.8
20
0.2999993333
40
0.56
1
0 324000000 0 0 0 1
50
180
41
0.75
7
W0$1
0
TEXT
8
LABEL_ATTRIBUTE
10
-0.8
20
0.2999993333
40
0.56
1
Ref.Des.
50
180
41
0.75
7
W0$1
0
TEXT
8
PART_NAME_01
10
-0.8
20
0.2999993333
40
0.56
1
C18
50
180
41
0.75
7
W0$1
0
TEXT
8
PART_INFO
10
-0.8
20
-0.5000006667
40
0.56
1
000000
50
180
41
0.75
7
W0$1
0
TEXT
8
PART_PTS
10
-0.8
20
-1.3000006667
40
0.56
1
1 2 
50
180
41
0.75
7
W0$1
0
ENDBLK
0
BLOCK
2
PART_TOP_10
8
0
10
0
20
0
3
PART_TOP_10
70
64
0
INSERT
2
SYM_TOP_3
8
0
10
0
20
0
0
INSERT
2
PKG_1
8
0
10
0
20
0
0
TEXT
8
LABEL_INFO
10
-1.124
20
1.652
40
0.7
1
0 0 0 0 0 1
41
0.75
7
W0$1
0
TEXT
8
LABEL_ATTRIBUTE
10
-1.124
20
1.652
40
0.7
1
PartType
41
0.75
7
W0$1
0
TEXT
8
PART_TYPE_01
10
-1.124
20
1.652
40
0.7
1
C_0201
41
0.75
7
W0$1
0
TEXT
8
LABEL_INFO
10
1.65
20
0.2
40
0.56
1
0 324000000 0 0 0 1
50
180
41
0.75
7
W0$1
0
TEXT
8
LABEL_ATTRIBUTE
10
1.65
20
0.2
40
0.56
1
Ref.Des.
50
180
41
0.75
7
W0$1
0
TEXT
8
PART_NAME_01
10
1.65
20
0.2
40
0.56
1
C19
50
180
41
0.75
7
W0$1
0
TEXT
8
PART_INFO
10
1.65
20
-0.6
40
0.56
1
000000
50
180
41
0.75
7
W0$1
0
TEXT
8
PART_PTS
10
1.65
20
-1.4
40
0.56
1
1 2 
50
180
41
0.75
7
W0$1
0
ENDBLK
0
BLOCK
2
PART_TOP_11
8
0
10
0
20
0
3
PART_TOP_11
70
64
0
INSERT
2
SYM_TOP_2
8
0
10
0
20
0
0
INSERT
2
PKG_0
8
0
10
0
20
0
0
TEXT
8
LABEL_INFO
10
1.2
20
-0.3
40
0.56
1
0 0 0 0 0 1
41
0.75
7
W0$1
0
TEXT
8
LABEL_ATTRIBUTE
10
1.2
20
-0.3
40
0.56
1
Ref.Des.
41
0.75
7
W0$1
0
TEXT
8
PART_NAME_01
10
1.2
20
-0.3
40
0.56
1
C2
41
0.75
7
W0$1
0
TEXT
8
LABEL_INFO
10
-1.124
20
1.652
40
0.7
1
0 0 0 0 0 1
41
0.75
7
W0$1
0
TEXT
8
LABEL_ATTRIBUTE
10
-1.124
20
1.652
40
0.7
1
PartType
41
0.75
7
W0$1
0
TEXT
8
PART_TYPE_01
10
-1.124
20
1.652
40
0.7
1
C_1005
41
0.75
7
W0$1
0
TEXT
8
PART_INFO
10
-1.124
20
0.652
40
0.7
1
000000
41
0.75
7
W0$1
0
TEXT
8
PART_PTS
10
-1.124
20
-0.348
40
0.7
1
1 2 
41
0.75
7
W0$1
0
ENDBLK
0
BLOCK
2
PART_TOP_12
8
0
10
0
20
0
3
PART_TOP_12
70
64
0
INSERT
2
SYM_TOP_2
8
0
10
0
20
0
0
INSERT
2
PKG_0
8
0
10
0
20
0
0
TEXT
8
LABEL_INFO
10
-0.7
20
1.6
40
0.56
1
0 0 0 0 0 1
41
0.75
7
W0$1
0
TEXT
8
LABEL_ATTRIBUTE
10
-0.7
20
1.6
40
0.56
1
Ref.Des.
41
0.75
7
W0$1
0
TEXT
8
PART_NAME_01
10
-0.7
20
1.6
40
0.56
1
C20
41
0.75
7
W0$1
0
TEXT
8
LABEL_INFO
10
-1.124
20
1.652
40
0.7
1
0 0 0 0 0 1
41
0.75
7
W0$1
0
TEXT
8
LABEL_ATTRIBUTE
10
-1.124
20
1.652
40
0.7
1
PartType
41
0.75
7
W0$1
0
TEXT
8
PART_TYPE_01
10
-1.124
20
1.652
40
0.7
1
C_1005
41
0.75
7
W0$1
0
TEXT
8
PART_INFO
10
-1.124
20
0.652
40
0.7
1
000000
41
0.75
7
W0$1
0
TEXT
8
PART_PTS
10
-1.124
20
-0.348
40
0.7
1
1 2 
41
0.75
7
W0$1
0
ENDBLK
0
BLOCK
2
PART_TOP_13
8
0
10
0
20
0
3
PART_TOP_13
70
64
0
INSERT
2
SYM_TOP_3
8
0
10
0
20
0
0
INSERT
2
PKG_1
8
0
10
0
20
0
0
TEXT
8
LABEL_INFO
10
-1.124
20
1.652
40
0.7
1
0 0 0 0 0 1
41
0.75
7
W0$1
0
TEXT
8
LABEL_ATTRIBUTE
10
-1.124
20
1.652
40
0.7
1
PartType
41
0.75
7
W0$1
0
TEXT
8
PART_TYPE_01
10
-1.124
20
1.652
40
0.7
1
C_0201
41
0.75
7
W0$1
0
TEXT
8
LABEL_INFO
10
-0.5
20
1.4
40
0.56
1
0 0 0 0 0 1
41
0.75
7
W0$1
0
TEXT
8
LABEL_ATTRIBUTE
10
-0.5
20
1.4
40
0.56
1
Ref.Des.
41
0.75
7
W0$1
0
TEXT
8
PART_NAME_01
10
-0.5
20
1.4
40
0.56
1
C21
41
0.75
7
W0$1
0
TEXT
8
PART_INFO
10
-0.5
20
0.6
40
0.56
1
000000
41
0.75
7
W0$1
0
TEXT
8
PART_PTS
10
-0.5
20
-0.2
40
0.56
1
1 2 
41
0.75
7
W0$1
0
ENDBLK
0
BLOCK
2
PART_TOP_14
8
0
10
0
20
0
3
PART_TOP_14
70
64
0
INSERT
2
SYM_TOP_3
8
0
10
0
20
0
0
INSERT
2
PKG_1
8
0
10
0
20
0
0
TEXT
8
LABEL_INFO
10
-1.124
20
1.652
40
0.7
1
0 0 0 0 0 1
41
0.75
7
W0$1
0
TEXT
8
LABEL_ATTRIBUTE
10
-1.124
20
1.652
40
0.7
1
PartType
41
0.75
7
W0$1
0
TEXT
8
PART_TYPE_01
10
-1.124
20
1.652
40
0.7
1
C_0201
41
0.75
7
W0$1
0
TEXT
8
LABEL_INFO
10
1.91
20
0.19
40
0.56
1
0 324000000 0 0 0 1
50
180
41
0.75
7
W0$1
0
TEXT
8
LABEL_ATTRIBUTE
10
1.91
20
0.19
40
0.56
1
Ref.Des.
50
180
41
0.75
7
W0$1
0
TEXT
8
PART_NAME_01
10
1.91
20
0.19
40
0.56
1
C22
50
180
41
0.75
7
W0$1
0
TEXT
8
PART_INFO
10
1.91
20
-0.61
40
0.56
1
000000
50
180
41
0.75
7
W0$1
0
TEXT
8
PART_PTS
10
1.91
20
-1.41
40
0.56
1
1 2 
50
180
41
0.75
7
W0$1
0
ENDBLK
0
BLOCK
2
PART_TOP_15
8
0
10
0
20
0
3
PART_TOP_15
70
64
0
INSERT
2
SYM_TOP_3
8
0
10
0
20
0
0
INSERT
2
PKG_1
8
0
10
0
20
0
0
TEXT
8
LABEL_INFO
10
-1.124
20
1.652
40
0.7
1
0 0 0 0 0 1
41
0.75
7
W0$1
0
TEXT
8
LABEL_ATTRIBUTE
10
-1.124
20
1.652
40
0.7
1
PartType
41
0.75
7
W0$1
0
TEXT
8
PART_TYPE_01
10
-1.124
20
1.652
40
0.7
1
C_0201
41
0.75
7
W0$1
0
TEXT
8
LABEL_INFO
10
2.5
20
0.2
40
0.56
1
0 324000000 0 0 0 1
50
180
41
0.75
7
W0$1
0
TEXT
8
LABEL_ATTRIBUTE
10
2.5
20
0.2
40
0.56
1
Ref.Des.
50
180
41
0.75
7
W0$1
0
TEXT
8
PART_NAME_01
10
2.5
20
0.2
40
0.56
1
C23
50
180
41
0.75
7
W0$1
0
TEXT
8
PART_INFO
10
2.5
20
-0.6
40
0.56
1
000000
50
180
41
0.75
7
W0$1
0
TEXT
8
PART_PTS
10
2.5
20
-1.4
40
0.56
1
1 2 
50
180
41
0.75
7
W0$1
0
ENDBLK
0
BLOCK
2
PART_TOP_16
8
0
10
0
20
0
3
PART_TOP_16
70
64
0
INSERT
2
SYM_TOP_2
8
0
10
0
20
0
0
INSERT
2
PKG_0
8
0
10
0
20
0
0
TEXT
8
LABEL_INFO
10
-0.54
20
2.08
40
0.56
1
0 0 0 0 0 1
41
0.75
7
W0$1
0
TEXT
8
LABEL_ATTRIBUTE
10
-0.54
20
2.08
40
0.56
1
Ref.Des.
41
0.75
7
W0$1
0
TEXT
8
PART_NAME_01
10
-0.54
20
2.08
40
0.56
1
C24
41
0.75
7
W0$1
0
TEXT
8
LABEL_INFO
10
-1.124
20
1.652
40
0.7
1
0 0 0 0 0 1
41
0.75
7
W0$1
0
TEXT
8
LABEL_ATTRIBUTE
10
-1.124
20
1.652
40
0.7
1
PartType
41
0.75
7
W0$1
0
TEXT
8
PART_TYPE_01
10
-1.124
20
1.652
40
0.7
1
C_1005
41
0.75
7
W0$1
0
TEXT
8
PART_INFO
10
-1.124
20
0.652
40
0.7
1
000000
41
0.75
7
W0$1
0
TEXT
8
PART_PTS
10
-1.124
20
-0.348
40
0.7
1
1 2 
41
0.75
7
W0$1
0
ENDBLK
0
BLOCK
2
PART_TOP_17
8
0
10
0
20
0
3
PART_TOP_17
70
64
0
INSERT
2
SYM_TOP_2
8
0
10
0
20
0
0
INSERT
2
PKG_0
8
0
10
0
20
0
0
TEXT
8
LABEL_INFO
10
-0.54
20
2.51
40
0.56
1
0 0 0 0 0 1
41
0.75
7
W0$1
0
TEXT
8
LABEL_ATTRIBUTE
10
-0.54
20
2.51
40
0.56
1
Ref.Des.
41
0.75
7
W0$1
0
TEXT
8
PART_NAME_01
10
-0.54
20
2.51
40
0.56
1
C25
41
0.75
7
W0$1
0
TEXT
8
LABEL_INFO
10
-1.124
20
1.652
40
0.7
1
0 0 0 0 0 1
41
0.75
7
W0$1
0
TEXT
8
LABEL_ATTRIBUTE
10
-1.124
20
1.652
40
0.7
1
PartType
41
0.75
7
W0$1
0
TEXT
8
PART_TYPE_01
10
-1.124
20
1.652
40
0.7
1
C_1005
41
0.75
7
W0$1
0
TEXT
8
PART_INFO
10
-1.124
20
0.652
40
0.7
1
000000
41
0.75
7
W0$1
0
TEXT
8
PART_PTS
10
-1.124
20
-0.348
40
0.7
1
1 2 
41
0.75
7
W0$1
0
ENDBLK
0
BLOCK
2
PART_TOP_18
8
0
10
0
20
0
3
PART_TOP_18
70
64
0
INSERT
2
SYM_TOP_3
8
0
10
0
20
0
0
INSERT
2
PKG_1
8
0
10
0
20
0
0
TEXT
8
LABEL_INFO
10
-1.124
20
1.652
40
0.7
1
0 0 0 0 0 1
41
0.75
7
W0$1
0
TEXT
8
LABEL_ATTRIBUTE
10
-1.124
20
1.652
40
0.7
1
PartType
41
0.75
7
W0$1
0
TEXT
8
PART_TYPE_01
10
-1.124
20
1.652
40
0.7
1
C_0201
41
0.75
7
W0$1
0
TEXT
8
LABEL_INFO
10
-0.39
20
2.65
40
0.56
1
0 0 0 0 0 1
41
0.75
7
W0$1
0
TEXT
8
LABEL_ATTRIBUTE
10
-0.39
20
2.65
40
0.56
1
Ref.Des.
41
0.75
7
W0$1
0
TEXT
8
PART_NAME_01
10
-0.39
20
2.65
40
0.56
1
C26
41
0.75
7
W0$1
0
TEXT
8
PART_INFO
10
-0.39
20
1.85
40
0.56
1
000000
41
0.75
7
W0$1
0
TEXT
8
PART_PTS
10
-0.39
20
1.05
40
0.56
1
1 2 
41
0.75
7
W0$1
0
ENDBLK
0
BLOCK
2
PART_TOP_19
8
0
10
0
20
0
3
PART_TOP_19
70
64
0
INSERT
2
SYM_TOP_2
8
0
10
0
20
0
0
INSERT
2
PKG_0
8
0
10
0
20
0
0
TEXT
8
LABEL_INFO
10
1.8
20
0.3
40
0.56
1
0 486000000 0 0 0 1
50
270
41
0.75
7
W0$1
0
TEXT
8
LABEL_ATTRIBUTE
10
1.8
20
0.3
40
0.56
1
Ref.Des.
50
270
41
0.75
7
W0$1
0
TEXT
8
PART_NAME_01
10
1.8
20
0.3
40
0.56
1
C27
50
270
41
0.75
7
W0$1
0
TEXT
8
LABEL_INFO
10
-1.124
20
1.652
40
0.7
1
0 0 0 0 0 1
41
0.75
7
W0$1
0
TEXT
8
LABEL_ATTRIBUTE
10
-1.124
20
1.652
40
0.7
1
PartType
41
0.75
7
W0$1
0
TEXT
8
PART_TYPE_01
10
-1.124
20
1.652
40
0.7
1
C_1005
41
0.75
7
W0$1
0
TEXT
8
PART_INFO
10
-1.124
20
0.652
40
0.7
1
000000
41
0.75
7
W0$1
0
TEXT
8
PART_PTS
10
-1.124
20
-0.348
40
0.7
1
1 2 
41
0.75
7
W0$1
0
ENDBLK
0
BLOCK
2
PART_TOP_20
8
0
10
0
20
0
3
PART_TOP_20
70
64
0
INSERT
2
SYM_TOP_2
8
0
10
0
20
0
0
INSERT
2
PKG_0
8
0
10
0
20
0
0
TEXT
8
LABEL_INFO
10
1.8
20
0.6
40
0.56
1
0 486000000 0 0 0 1
50
270
41
0.75
7
W0$1
0
TEXT
8
LABEL_ATTRIBUTE
10
1.8
20
0.6
40
0.56
1
Ref.Des.
50
270
41
0.75
7
W0$1
0
TEXT
8
PART_NAME_01
10
1.8
20
0.6
40
0.56
1
C28
50
270
41
0.75
7
W0$1
0
TEXT
8
LABEL_INFO
10
-1.124
20
1.652
40
0.7
1
0 0 0 0 0 1
41
0.75
7
W0$1
0
TEXT
8
LABEL_ATTRIBUTE
10
-1.124
20
1.652
40
0.7
1
PartType
41
0.75
7
W0$1
0
TEXT
8
PART_TYPE_01
10
-1.124
20
1.652
40
0.7
1
C_1005
41
0.75
7
W0$1
0
TEXT
8
PART_INFO
10
-1.124
20
0.652
40
0.7
1
000000
41
0.75
7
W0$1
0
TEXT
8
PART_PTS
10
-1.124
20
-0.348
40
0.7
1
1 2 
41
0.75
7
W0$1
0
ENDBLK
0
BLOCK
2
PART_TOP_21
8
0
10
0
20
0
3
PART_TOP_21
70
64
0
INSERT
2
SYM_TOP_3
8
0
10
0
20
0
0
INSERT
2
PKG_1
8
0
10
0
20
0
0
TEXT
8
LABEL_INFO
10
-1.124
20
1.652
40
0.7
1
0 0 0 0 0 1
41
0.75
7
W0$1
0
TEXT
8
LABEL_ATTRIBUTE
10
-1.124
20
1.652
40
0.7
1
PartType
41
0.75
7
W0$1
0
TEXT
8
PART_TYPE_01
10
-1.124
20
1.652
40
0.7
1
C_0201
41
0.75
7
W0$1
0
TEXT
8
LABEL_INFO
10
1.25
20
0.8
40
0.56
1
0 486000000 0 0 0 1
50
270
41
0.75
7
W0$1
0
TEXT
8
LABEL_ATTRIBUTE
10
1.25
20
0.8
40
0.56
1
Ref.Des.
50
270
41
0.75
7
W0$1
0
TEXT
8
PART_NAME_01
10
1.25
20
0.8
40
0.56
1
C29
50
270
41
0.75
7
W0$1
0
TEXT
8
PART_INFO
10
1.25
20
0
40
0.56
1
000000
50
270
41
0.75
7
W0$1
0
TEXT
8
PART_PTS
10
1.25
20
-0.8
40
0.56
1
1 2 
50
270
41
0.75
7
W0$1
0
ENDBLK
0
BLOCK
2
PART_TOP_22
8
0
10
0
20
0
3
PART_TOP_22
70
64
0
INSERT
2
SYM_TOP_2
8
0
10
0
20
0
0
INSERT
2
PKG_0
8
0
10
0
20
0
0
TEXT
8
LABEL_INFO
10
1.05
20
0.36
40
0.56
1
0 486000000 0 0 0 1
50
270
41
0.75
7
W0$1
0
TEXT
8
LABEL_ATTRIBUTE
10
1.05
20
0.36
40
0.56
1
Ref.Des.
50
270
41
0.75
7
W0$1
0
TEXT
8
PART_NAME_01
10
1.05
20
0.36
40
0.56
1
C3
50
270
41
0.75
7
W0$1
0
TEXT
8
LABEL_INFO
10
-1.124
20
1.652
40
0.7
1
0 0 0 0 0 1
41
0.75
7
W0$1
0
TEXT
8
LABEL_ATTRIBUTE
10
-1.124
20
1.652
40
0.7
1
PartType
41
0.75
7
W0$1
0
TEXT
8
PART_TYPE_01
10
-1.124
20
1.652
40
0.7
1
C_1005
41
0.75
7
W0$1
0
TEXT
8
PART_INFO
10
-1.124
20
0.652
40
0.7
1
000000
41
0.75
7
W0$1
0
TEXT
8
PART_PTS
10
-1.124
20
-0.348
40
0.7
1
1 2 
41
0.75
7
W0$1
0
ENDBLK
0
BLOCK
2
PART_TOP_23
8
0
10
0
20
0
3
PART_TOP_23
70
64
0
INSERT
2
SYM_TOP_2
8
0
10
0
20
0
0
INSERT
2
PKG_0
8
0
10
0
20
0
0
TEXT
8
LABEL_INFO
10
0.6
20
-2.9
40
0.56
1
0 324000000 0 0 0 1
50
180
41
0.75
7
W0$1
0
TEXT
8
LABEL_ATTRIBUTE
10
0.6
20
-2.9
40
0.56
1
Ref.Des.
50
180
41
0.75
7
W0$1
0
TEXT
8
PART_NAME_01
10
0.6
20
-2.9
40
0.56
1
C30
50
180
41
0.75
7
W0$1
0
TEXT
8
LABEL_INFO
10
-1.124
20
1.652
40
0.7
1
0 0 0 0 0 1
41
0.75
7
W0$1
0
TEXT
8
LABEL_ATTRIBUTE
10
-1.124
20
1.652
40
0.7
1
PartType
41
0.75
7
W0$1
0
TEXT
8
PART_TYPE_01
10
-1.124
20
1.652
40
0.7
1
C_1005
41
0.75
7
W0$1
0
TEXT
8
PART_INFO
10
-1.124
20
0.652
40
0.7
1
000000
41
0.75
7
W0$1
0
TEXT
8
PART_PTS
10
-1.124
20
-0.348
40
0.7
1
1 2 
41
0.75
7
W0$1
0
ENDBLK
0
BLOCK
2
PART_TOP_24
8
0
10
0
20
0
3
PART_TOP_24
70
64
0
INSERT
2
SYM_TOP_2
8
0
10
0
20
0
0
INSERT
2
PKG_0
8
0
10
0
20
0
0
TEXT
8
LABEL_INFO
10
1.1
20
-0.25
40
0.56
1
0 0 0 0 0 1
41
0.75
7
W0$1
0
TEXT
8
LABEL_ATTRIBUTE
10
1.1
20
-0.25
40
0.56
1
Ref.Des.
41
0.75
7
W0$1
0
TEXT
8
PART_NAME_01
10
1.1
20
-0.25
40
0.56
1
C4
41
0.75
7
W0$1
0
TEXT
8
LABEL_INFO
10
-1.124
20
1.652
40
0.7
1
0 0 0 0 0 1
41
0.75
7
W0$1
0
TEXT
8
LABEL_ATTRIBUTE
10
-1.124
20
1.652
40
0.7
1
PartType
41
0.75
7
W0$1
0
TEXT
8
PART_TYPE_01
10
-1.124
20
1.652
40
0.7
1
C_1005
41
0.75
7
W0$1
0
TEXT
8
PART_INFO
10
-1.124
20
0.652
40
0.7
1
000000
41
0.75
7
W0$1
0
TEXT
8
PART_PTS
10
-1.124
20
-0.348
40
0.7
1
1 2 
41
0.75
7
W0$1
0
ENDBLK
0
BLOCK
2
PART_TOP_25
8
0
10
0
20
0
3
PART_TOP_25
70
64
0
INSERT
2
SYM_TOP_2
8
0
10
0
20
0
0
INSERT
2
PKG_0
8
0
10
0
20
0
0
TEXT
8
LABEL_INFO
10
1.1
20
-0.2
40
0.56
1
0 0 0 0 0 1
41
0.75
7
W0$1
0
TEXT
8
LABEL_ATTRIBUTE
10
1.1
20
-0.2
40
0.56
1
Ref.Des.
41
0.75
7
W0$1
0
TEXT
8
PART_NAME_01
10
1.1
20
-0.2
40
0.56
1
C5
41
0.75
7
W0$1
0
TEXT
8
LABEL_INFO
10
-1.124
20
1.652
40
0.7
1
0 0 0 0 0 1
41
0.75
7
W0$1
0
TEXT
8
LABEL_ATTRIBUTE
10
-1.124
20
1.652
40
0.7
1
PartType
41
0.75
7
W0$1
0
TEXT
8
PART_TYPE_01
10
-1.124
20
1.652
40
0.7
1
C_1005
41
0.75
7
W0$1
0
TEXT
8
PART_INFO
10
-1.124
20
0.652
40
0.7
1
000000
41
0.75
7
W0$1
0
TEXT
8
PART_PTS
10
-1.124
20
-0.348
40
0.7
1
1 2 
41
0.75
7
W0$1
0
ENDBLK
0
BLOCK
2
PART_TOP_26
8
0
10
0
20
0
3
PART_TOP_26
70
64
0
INSERT
2
SYM_TOP_2
8
0
10
0
20
0
0
INSERT
2
PKG_0
8
0
10
0
20
0
0
TEXT
8
LABEL_INFO
10
1.8
20
0.3
40
0.56
1
0 324000000 0 0 0 1
50
180
41
0.75
7
W0$1
0
TEXT
8
LABEL_ATTRIBUTE
10
1.8
20
0.3
40
0.56
1
Ref.Des.
50
180
41
0.75
7
W0$1
0
TEXT
8
PART_NAME_01
10
1.8
20
0.3
40
0.56
1
C7
50
180
41
0.75
7
W0$1
0
TEXT
8
LABEL_INFO
10
-1.124
20
1.652
40
0.7
1
0 0 0 0 0 1
41
0.75
7
W0$1
0
TEXT
8
LABEL_ATTRIBUTE
10
-1.124
20
1.652
40
0.7
1
PartType
41
0.75
7
W0$1
0
TEXT
8
PART_TYPE_01
10
-1.124
20
1.652
40
0.7
1
C_1005
41
0.75
7
W0$1
0
TEXT
8
PART_INFO
10
-1.124
20
0.652
40
0.7
1
000000
41
0.75
7
W0$1
0
TEXT
8
PART_PTS
10
-1.124
20
-0.348
40
0.7
1
1 2 
41
0.75
7
W0$1
0
ENDBLK
0
BLOCK
2
PART_TOP_27
8
0
10
0
20
0
3
PART_TOP_27
70
64
0
INSERT
2
SYM_TOP_3
8
0
10
0
20
0
0
INSERT
2
PKG_1
8
0
10
0
20
0
0
TEXT
8
LABEL_INFO
10
-1.124
20
1.652
40
0.7
1
0 0 0 0 0 1
41
0.75
7
W0$1
0
TEXT
8
LABEL_ATTRIBUTE
10
-1.124
20
1.652
40
0.7
1
PartType
41
0.75
7
W0$1
0
TEXT
8
PART_TYPE_01
10
-1.124
20
1.652
40
0.7
1
C_0201
41
0.75
7
W0$1
0
TEXT
8
LABEL_INFO
10
1.75
20
0.22
40
0.56
1
0 324000000 0 0 0 1
50
180
41
0.75
7
W0$1
0
TEXT
8
LABEL_ATTRIBUTE
10
1.75
20
0.22
40
0.56
1
Ref.Des.
50
180
41
0.75
7
W0$1
0
TEXT
8
PART_NAME_01
10
1.75
20
0.22
40
0.56
1
C8
50
180
41
0.75
7
W0$1
0
TEXT
8
PART_INFO
10
1.75
20
-0.58
40
0.56
1
000000
50
180
41
0.75
7
W0$1
0
TEXT
8
PART_PTS
10
1.75
20
-1.38
40
0.56
1
1 2 
50
180
41
0.75
7
W0$1
0
ENDBLK
0
BLOCK
2
PART_TOP_28
8
0
10
0
20
0
3
PART_TOP_28
70
64
0
INSERT
2
SYM_TOP_2
8
0
10
0
20
0
0
INSERT
2
PKG_0
8
0
10
0
20
0
0
TEXT
8
LABEL_INFO
10
1.8
20
0.2
40
0.56
1
0 324000000 0 0 0 1
50
180
41
0.75
7
W0$1
0
TEXT
8
LABEL_ATTRIBUTE
10
1.8
20
0.2
40
0.56
1
Ref.Des.
50
180
41
0.75
7
W0$1
0
TEXT
8
PART_NAME_01
10
1.8
20
0.2
40
0.56
1
C9
50
180
41
0.75
7
W0$1
0
TEXT
8
LABEL_INFO
10
-1.124
20
1.652
40
0.7
1
0 0 0 0 0 1
41
0.75
7
W0$1
0
TEXT
8
LABEL_ATTRIBUTE
10
-1.124
20
1.652
40
0.7
1
PartType
41
0.75
7
W0$1
0
TEXT
8
PART_TYPE_01
10
-1.124
20
1.652
40
0.7
1
C_1005
41
0.75
7
W0$1
0
TEXT
8
PART_INFO
10
-1.124
20
0.652
40
0.7
1
000000
41
0.75
7
W0$1
0
TEXT
8
PART_PTS
10
-1.124
20
-0.348
40
0.7
1
1 2 
41
0.75
7
W0$1
0
ENDBLK
0
BLOCK
2
PART_TOP_29
8
0
10
0
20
0
3
PART_TOP_29
70
64
0
INSERT
2
SYM_TOP_5
8
0
10
0
20
0
0
INSERT
2
PKG_3
8
0
10
0
20
0
0
TEXT
8
LABEL_INFO
10
-2.2
20
0.2999993333
40
0.56
1
0 486000000 0 0 0 1
50
270
41
0.75
7
W0$1
0
TEXT
8
LABEL_ATTRIBUTE
10
-2.2
20
0.2999993333
40
0.56
1
Ref.Des.
50
270
41
0.75
7
W0$1
0
TEXT
8
PART_NAME_01
10
-2.2
20
0.2999993333
40
0.56
1
D1
50
270
41
0.75
7
W0$1
0
TEXT
8
LABEL_INFO
10
-0.9
20
-2.8
40
0.7
1
0 0 0 0 0 1
41
0.75
7
W0$1
0
TEXT
8
LABEL_ATTRIBUTE
10
-0.9
20
-2.8
40
0.7
1
PartType
41
0.75
7
W0$1
0
TEXT
8
PART_TYPE_01
10
-0.9
20
-2.8
40
0.7
1
D_BAT54C(SOT23_H1.1)
41
0.75
7
W0$1
0
TEXT
8
PART_INFO
10
-0.9
20
-3.8
40
0.7
1
000000
41
0.75
7
W0$1
0
TEXT
8
PART_PTS
10
-0.9
20
-4.8
40
0.7
1
1 2 3 
41
0.75
7
W0$1
0
ENDBLK
0
BLOCK
2
PART_TOP_30
8
0
10
0
20
0
3
PART_TOP_30
70
64
0
INSERT
2
SYM_TOP_6
8
0
10
0
20
0
0
INSERT
2
PKG_4
8
0
10
0
20
0
0
TEXT
8
LABEL_INFO
10
-1.778
20
3.81
40
1.778
1
0 0 0 2 0 1
73
2
11
-1.778
21
3.81
41
0.75
7
W0$254
0
TEXT
8
LABEL_ATTRIBUTE
10
-1.778
20
3.81
40
1.778
1
PartType
73
2
11
-1.778
21
3.81
41
0.75
7
W0$254
0
TEXT
8
PART_TYPE_01
10
-1.778
20
3.81
40
1.778
1
B5819WS
73
3
11
-1.778
21
3.81
41
0.75
7
W0$254
0
TEXT
8
LABEL_INFO
10
-0.16
20
-1.51
40
0.56
1
0 0 0 0 0 1
41
0.75
7
W0$1
0
TEXT
8
LABEL_ATTRIBUTE
10
-0.16
20
-1.51
40
0.56
1
Ref.Des.
41
0.75
7
W0$1
0
TEXT
8
PART_NAME_01
10
-0.16
20
-1.51
40
0.56
1
D2
41
0.75
7
W0$1
0
TEXT
8
PART_INFO
10
-0.16
20
-2.31
40
0.56
1
000000
41
0.75
7
W0$1
0
TEXT
8
PART_PTS
10
-0.16
20
-3.11
40
0.56
1
1 2 
41
0.75
7
W0$1
0
ENDBLK
0
BLOCK
2
PART_TOP_31
8
0
10
0
20
0
3
PART_TOP_31
70
64
0
INSERT
2
SYM_TOP_7
8
0
10
0
20
0
0
INSERT
2
PKG_5
8
0
10
0
20
0
0
TEXT
8
LABEL_INFO
10
-0.1
20
1.2
40
0.56
1
0 162000000 0 0 0 1
50
90
41
0.75
7
W0$1
0
TEXT
8
LABEL_ATTRIBUTE
10
-0.1
20
1.2
40
0.56
1
Ref.Des.
50
90
41
0.75
7
W0$1
0
TEXT
8
PART_NAME_01
10
-0.1
20
1.2
40
0.56
1
J1
50
90
41
0.75
7
W0$1
0
TEXT
8
LABEL_INFO
10
0
20
0
40
0.889
1
0 0 0 2 0 1
73
2
11
0
21
0
41
0.75
7
W0$127
0
TEXT
8
LABEL_ATTRIBUTE
10
0
20
0
40
0.889
1
PartType
73
2
11
0
21
0
41
0.75
7
W0$127
0
TEXT
8
PART_TYPE_01
10
0
20
0
40
0.889
1
2.54MM_16PIN
73
3
11
0
21
0
41
0.75
7
W0$127
0
TEXT
8
PART_INFO
10
0
20
-1.27
40
0.889
1
000010
73
3
11
0
21
-1.27
41
0.75
7
W0$127
0
TEXT
8
PART_PTS
10
0
20
-2.54
40
0.889
1
1 2 3 4 5 6 7 8 9 10 11 12 13 14 15 16 
73
3
11
0
21
-2.54
41
0.75
7
W0$127
0
ENDBLK
0
BLOCK
2
PART_TOP_32
8
0
10
0
20
0
3
PART_TOP_32
70
64
0
INSERT
2
SYM_TOP_7
8
0
10
0
20
0
0
INSERT
2
PKG_5
8
0
10
0
20
0
0
TEXT
8
LABEL_INFO
10
0.4
20
-1.5
40
0.56
1
0 162000000 0 0 0 1
50
90
41
0.75
7
W0$1
0
TEXT
8
LABEL_ATTRIBUTE
10
0.4
20
-1.5
40
0.56
1
Ref.Des.
50
90
41
0.75
7
W0$1
0
TEXT
8
PART_NAME_01
10
0.4
20
-1.5
40
0.56
1
J2
50
90
41
0.75
7
W0$1
0
TEXT
8
LABEL_INFO
10
0
20
0
40
0.889
1
0 0 0 2 0 1
73
2
11
0
21
0
41
0.75
7
W0$127
0
TEXT
8
LABEL_ATTRIBUTE
10
0
20
0
40
0.889
1
PartType
73
2
11
0
21
0
41
0.75
7
W0$127
0
TEXT
8
PART_TYPE_01
10
0
20
0
40
0.889
1
2.54MM_16PIN
73
3
11
0
21
0
41
0.75
7
W0$127
0
TEXT
8
PART_INFO
10
0
20
-1.27
40
0.889
1
000010
73
3
11
0
21
-1.27
41
0.75
7
W0$127
0
TEXT
8
PART_PTS
10
0
20
-2.54
40
0.889
1
1 2 3 4 5 6 7 8 9 10 11 12 13 14 15 16 
73
3
11
0
21
-2.54
41
0.75
7
W0$127
0
ENDBLK
0
BLOCK
2
PART_TOP_33
8
0
10
0
20
0
3
PART_TOP_33
70
64
0
INSERT
2
SYM_TOP_8
8
0
10
0
20
0
0
INSERT
2
PKG_6
8
0
10
0
20
0
0
TEXT
8
LABEL_INFO
10
-1.124
20
1.652
40
0.7
1
0 0 0 0 0 1
41
0.75
7
W0$1
0
TEXT
8
LABEL_ATTRIBUTE
10
-1.124
20
1.652
40
0.7
1
PartType
41
0.75
7
W0$1
0
TEXT
8
PART_TYPE_01
10
-1.124
20
1.652
40
0.7
1
L_1005
41
0.75
7
W0$1
0
TEXT
8
LABEL_INFO
10
-1.54
20
-0.28
40
0.56
1
0 162000000 0 0 0 1
50
90
41
0.75
7
W0$1
0
TEXT
8
LABEL_ATTRIBUTE
10
-1.54
20
-0.28
40
0.56
1
Ref.Des.
50
90
41
0.75
7
W0$1
0
TEXT
8
PART_NAME_01
10
-1.54
20
-0.28
40
0.56
1
L1
50
90
41
0.75
7
W0$1
0
TEXT
8
PART_INFO
10
-1.54
20
-1.08
40
0.56
1
000000
50
90
41
0.75
7
W0$1
0
TEXT
8
PART_PTS
10
-1.54
20
-1.88
40
0.56
1
1 2 
50
90
41
0.75
7
W0$1
0
ENDBLK
0
BLOCK
2
PART_TOP_34
8
0
10
0
20
0
3
PART_TOP_34
70
64
0
INSERT
2
SYM_TOP_8
8
0
10
0
20
0
0
INSERT
2
PKG_6
8
0
10
0
20
0
0
TEXT
8
LABEL_INFO
10
-1.124
20
1.652
40
0.7
1
0 0 0 0 0 1
41
0.75
7
W0$1
0
TEXT
8
LABEL_ATTRIBUTE
10
-1.124
20
1.652
40
0.7
1
PartType
41
0.75
7
W0$1
0
TEXT
8
PART_TYPE_01
10
-1.124
20
1.652
40
0.7
1
L_1005
41
0.75
7
W0$1
0
TEXT
8
LABEL_INFO
10
0.2499993333
20
0.65
40
0.56
1
0 162000000 0 0 0 1
50
90
41
0.75
7
W0$1
0
TEXT
8
LABEL_ATTRIBUTE
10
0.2499993333
20
0.65
40
0.56
1
Ref.Des.
50
90
41
0.75
7
W0$1
0
TEXT
8
PART_NAME_01
10
0.2499993333
20
0.65
40
0.56
1
L2
50
90
41
0.75
7
W0$1
0
TEXT
8
PART_INFO
10
0.2499993333
20
-0.15
40
0.56
1
000000
50
90
41
0.75
7
W0$1
0
TEXT
8
PART_PTS
10
0.2499993333
20
-0.95
40
0.56
1
1 2 
50
90
41
0.75
7
W0$1
0
ENDBLK
0
BLOCK
2
PART_TOP_35
8
0
10
0
20
0
3
PART_TOP_35
70
64
0
INSERT
2
SYM_TOP_9
8
0
10
0
20
0
0
INSERT
2
PKG_7
8
0
10
0
20
0
0
TEXT
8
LABEL_INFO
10
0.1999993333
20
0.9
40
0.56
1
0 162000000 0 0 0 1
50
90
41
0.75
7
W0$1
0
TEXT
8
LABEL_ATTRIBUTE
10
0.1999993333
20
0.9
40
0.56
1
Ref.Des.
50
90
41
0.75
7
W0$1
0
TEXT
8
PART_NAME_01
10
0.1999993333
20
0.9
40
0.56
1
R1
50
90
41
0.75
7
W0$1
0
TEXT
8
LABEL_INFO
10
-1.124
20
1.652
40
0.7
1
0 0 0 0 0 1
41
0.75
7
W0$1
0
TEXT
8
LABEL_ATTRIBUTE
10
-1.124
20
1.652
40
0.7
1
PartType
41
0.75
7
W0$1
0
TEXT
8
PART_TYPE_01
10
-1.124
20
1.652
40
0.7
1
R_1005
41
0.75
7
W0$1
0
TEXT
8
PART_INFO
10
-1.124
20
0.652
40
0.7
1
000000
41
0.75
7
W0$1
0
TEXT
8
PART_PTS
10
-1.124
20
-0.348
40
0.7
1
1 2 
41
0.75
7
W0$1
0
ENDBLK
0
BLOCK
2
PART_TOP_36
8
0
10
0
20
0
3
PART_TOP_36
70
64
0
INSERT
2
SYM_TOP_9
8
0
10
0
20
0
0
INSERT
2
PKG_7
8
0
10
0
20
0
0
TEXT
8
LABEL_INFO
10
1.95
20
0.28
40
0.56
1
0 324000000 0 0 0 1
50
180
41
0.75
7
W0$1
0
TEXT
8
LABEL_ATTRIBUTE
10
1.95
20
0.28
40
0.56
1
Ref.Des.
50
180
41
0.75
7
W0$1
0
TEXT
8
PART_NAME_01
10
1.95
20
0.28
40
0.56
1
R11
50
180
41
0.75
7
W0$1
0
TEXT
8
LABEL_INFO
10
-1.124
20
1.652
40
0.7
1
0 0 0 0 0 1
41
0.75
7
W0$1
0
TEXT
8
LABEL_ATTRIBUTE
10
-1.124
20
1.652
40
0.7
1
PartType
41
0.75
7
W0$1
0
TEXT
8
PART_TYPE_01
10
-1.124
20
1.652
40
0.7
1
R_1005
41
0.75
7
W0$1
0
TEXT
8
PART_INFO
10
-1.124
20
0.652
40
0.7
1
000000
41
0.75
7
W0$1
0
TEXT
8
PART_PTS
10
-1.124
20
-0.348
40
0.7
1
1 2 
41
0.75
7
W0$1
0
ENDBLK
0
BLOCK
2
PART_TOP_37
8
0
10
0
20
0
3
PART_TOP_37
70
64
0
INSERT
2
SYM_TOP_9
8
0
10
0
20
0
0
INSERT
2
PKG_7
8
0
10
0
20
0
0
TEXT
8
LABEL_INFO
10
2.05
20
0.25
40
0.56
1
0 324000000 0 0 0 1
50
180
41
0.75
7
W0$1
0
TEXT
8
LABEL_ATTRIBUTE
10
2.05
20
0.25
40
0.56
1
Ref.Des.
50
180
41
0.75
7
W0$1
0
TEXT
8
PART_NAME_01
10
2.05
20
0.25
40
0.56
1
R12
50
180
41
0.75
7
W0$1
0
TEXT
8
LABEL_INFO
10
-1.124
20
1.652
40
0.7
1
0 0 0 0 0 1
41
0.75
7
W0$1
0
TEXT
8
LABEL_ATTRIBUTE
10
-1.124
20
1.652
40
0.7
1
PartType
41
0.75
7
W0$1
0
TEXT
8
PART_TYPE_01
10
-1.124
20
1.652
40
0.7
1
R_1005
41
0.75
7
W0$1
0
TEXT
8
PART_INFO
10
-1.124
20
0.652
40
0.7
1
000000
41
0.75
7
W0$1
0
TEXT
8
PART_PTS
10
-1.124
20
-0.348
40
0.7
1
1 2 
41
0.75
7
W0$1
0
ENDBLK
0
BLOCK
2
PART_TOP_38
8
0
10
0
20
0
3
PART_TOP_38
70
64
0
INSERT
2
SYM_TOP_9
8
0
10
0
20
0
0
INSERT
2
PKG_7
8
0
10
0
20
0
0
TEXT
8
LABEL_INFO
10
1.7
20
-0.4999993333
40
0.56
1
0 162000000 0 0 0 1
50
90
41
0.75
7
W0$1
0
TEXT
8
LABEL_ATTRIBUTE
10
1.7
20
-0.4999993333
40
0.56
1
Ref.Des.
50
90
41
0.75
7
W0$1
0
TEXT
8
PART_NAME_01
10
1.7
20
-0.4999993333
40
0.56
1
R13
50
90
41
0.75
7
W0$1
0
TEXT
8
LABEL_INFO
10
-1.124
20
1.652
40
0.7
1
0 0 0 0 0 1
41
0.75
7
W0$1
0
TEXT
8
LABEL_ATTRIBUTE
10
-1.124
20
1.652
40
0.7
1
PartType
41
0.75
7
W0$1
0
TEXT
8
PART_TYPE_01
10
-1.124
20
1.652
40
0.7
1
R_1005
41
0.75
7
W0$1
0
TEXT
8
PART_INFO
10
-1.124
20
0.652
40
0.7
1
000000
41
0.75
7
W0$1
0
TEXT
8
PART_PTS
10
-1.124
20
-0.348
40
0.7
1
1 2 
41
0.75
7
W0$1
0
ENDBLK
0
BLOCK
2
PART_TOP_39
8
0
10
0
20
0
3
PART_TOP_39
70
64
0
INSERT
2
SYM_TOP_9
8
0
10
0
20
0
0
INSERT
2
PKG_7
8
0
10
0
20
0
0
TEXT
8
LABEL_INFO
10
2
20
0.25
40
0.56
1
0 324000000 0 0 0 1
50
180
41
0.75
7
W0$1
0
TEXT
8
LABEL_ATTRIBUTE
10
2
20
0.25
40
0.56
1
Ref.Des.
50
180
41
0.75
7
W0$1
0
TEXT
8
PART_NAME_01
10
2
20
0.25
40
0.56
1
R14
50
180
41
0.75
7
W0$1
0
TEXT
8
LABEL_INFO
10
-1.124
20
1.652
40
0.7
1
0 0 0 0 0 1
41
0.75
7
W0$1
0
TEXT
8
LABEL_ATTRIBUTE
10
-1.124
20
1.652
40
0.7
1
PartType
41
0.75
7
W0$1
0
TEXT
8
PART_TYPE_01
10
-1.124
20
1.652
40
0.7
1
R_1005
41
0.75
7
W0$1
0
TEXT
8
PART_INFO
10
-1.124
20
0.652
40
0.7
1
000000
41
0.75
7
W0$1
0
TEXT
8
PART_PTS
10
-1.124
20
-0.348
40
0.7
1
1 2 
41
0.75
7
W0$1
0
ENDBLK
0
BLOCK
2
PART_TOP_40
8
0
10
0
20
0
3
PART_TOP_40
70
64
0
INSERT
2
SYM_TOP_9
8
0
10
0
20
0
0
INSERT
2
PKG_7
8
0
10
0
20
0
0
TEXT
8
LABEL_INFO
10
2
20
0.25
40
0.56
1
0 324000000 0 0 0 1
50
180
41
0.75
7
W0$1
0
TEXT
8
LABEL_ATTRIBUTE
10
2
20
0.25
40
0.56
1
Ref.Des.
50
180
41
0.75
7
W0$1
0
TEXT
8
PART_NAME_01
10
2
20
0.25
40
0.56
1
R15
50
180
41
0.75
7
W0$1
0
TEXT
8
LABEL_INFO
10
-1.124
20
1.652
40
0.7
1
0 0 0 0 0 1
41
0.75
7
W0$1
0
TEXT
8
LABEL_ATTRIBUTE
10
-1.124
20
1.652
40
0.7
1
PartType
41
0.75
7
W0$1
0
TEXT
8
PART_TYPE_01
10
-1.124
20
1.652
40
0.7
1
R_1005
41
0.75
7
W0$1
0
TEXT
8
PART_INFO
10
-1.124
20
0.652
40
0.7
1
000000
41
0.75
7
W0$1
0
TEXT
8
PART_PTS
10
-1.124
20
-0.348
40
0.7
1
1 2 
41
0.75
7
W0$1
0
ENDBLK
0
BLOCK
2
PART_TOP_41
8
0
10
0
20
0
3
PART_TOP_41
70
64
0
INSERT
2
SYM_TOP_9
8
0
10
0
20
0
0
INSERT
2
PKG_7
8
0
10
0
20
0
0
TEXT
8
LABEL_INFO
10
0.3
20
-0.7
40
0.56
1
0 486000000 0 0 0 1
50
270
41
0.75
7
W0$1
0
TEXT
8
LABEL_ATTRIBUTE
10
0.3
20
-0.7
40
0.56
1
Ref.Des.
50
270
41
0.75
7
W0$1
0
TEXT
8
PART_NAME_01
10
0.3
20
-0.7
40
0.56
1
R16
50
270
41
0.75
7
W0$1
0
TEXT
8
LABEL_INFO
10
-1.124
20
1.652
40
0.7
1
0 0 0 0 0 1
41
0.75
7
W0$1
0
TEXT
8
LABEL_ATTRIBUTE
10
-1.124
20
1.652
40
0.7
1
PartType
41
0.75
7
W0$1
0
TEXT
8
PART_TYPE_01
10
-1.124
20
1.652
40
0.7
1
R_1005
41
0.75
7
W0$1
0
TEXT
8
PART_INFO
10
-1.124
20
0.652
40
0.7
1
000000
41
0.75
7
W0$1
0
TEXT
8
PART_PTS
10
-1.124
20
-0.348
40
0.7
1
1 2 
41
0.75
7
W0$1
0
ENDBLK
0
BLOCK
2
PART_TOP_42
8
0
10
0
20
0
3
PART_TOP_42
70
64
0
INSERT
2
SYM_TOP_9
8
0
10
0
20
0
0
INSERT
2
PKG_7
8
0
10
0
20
0
0
TEXT
8
LABEL_INFO
10
-1.6
20
0.2999993333
40
0.56
1
0 486000000 0 0 0 1
50
270
41
0.75
7
W0$1
0
TEXT
8
LABEL_ATTRIBUTE
10
-1.6
20
0.2999993333
40
0.56
1
Ref.Des.
50
270
41
0.75
7
W0$1
0
TEXT
8
PART_NAME_01
10
-1.6
20
0.2999993333
40
0.56
1
R17
50
270
41
0.75
7
W0$1
0
TEXT
8
LABEL_INFO
10
-1.124
20
1.652
40
0.7
1
0 0 0 0 0 1
41
0.75
7
W0$1
0
TEXT
8
LABEL_ATTRIBUTE
10
-1.124
20
1.652
40
0.7
1
PartType
41
0.75
7
W0$1
0
TEXT
8
PART_TYPE_01
10
-1.124
20
1.652
40
0.7
1
R_1005
41
0.75
7
W0$1
0
TEXT
8
PART_INFO
10
-1.124
20
0.652
40
0.7
1
000000
41
0.75
7
W0$1
0
TEXT
8
PART_PTS
10
-1.124
20
-0.348
40
0.7
1
1 2 
41
0.75
7
W0$1
0
ENDBLK
0
BLOCK
2
PART_TOP_43
8
0
10
0
20
0
3
PART_TOP_43
70
64
0
INSERT
2
SYM_TOP_9
8
0
10
0
20
0
0
INSERT
2
PKG_7
8
0
10
0
20
0
0
TEXT
8
LABEL_INFO
10
-1.6
20
0.3999993333
40
0.56
1
0 486000000 0 0 0 1
50
270
41
0.75
7
W0$1
0
TEXT
8
LABEL_ATTRIBUTE
10
-1.6
20
0.3999993333
40
0.56
1
Ref.Des.
50
270
41
0.75
7
W0$1
0
TEXT
8
PART_NAME_01
10
-1.6
20
0.3999993333
40
0.56
1
R18
50
270
41
0.75
7
W0$1
0
TEXT
8
LABEL_INFO
10
-1.124
20
1.652
40
0.7
1
0 0 0 0 0 1
41
0.75
7
W0$1
0
TEXT
8
LABEL_ATTRIBUTE
10
-1.124
20
1.652
40
0.7
1
PartType
41
0.75
7
W0$1
0
TEXT
8
PART_TYPE_01
10
-1.124
20
1.652
40
0.7
1
R_1005
41
0.75
7
W0$1
0
TEXT
8
PART_INFO
10
-1.124
20
0.652
40
0.7
1
000000
41
0.75
7
W0$1
0
TEXT
8
PART_PTS
10
-1.124
20
-0.348
40
0.7
1
1 2 
41
0.75
7
W0$1
0
ENDBLK
0
BLOCK
2
PART_TOP_44
8
0
10
0
20
0
3
PART_TOP_44
70
64
0
INSERT
2
SYM_TOP_9
8
0
10
0
20
0
0
INSERT
2
PKG_7
8
0
10
0
20
0
0
TEXT
8
LABEL_INFO
10
-1.1
20
0.1999993333
40
0.56
1
0 324000000 0 0 0 1
50
180
41
0.75
7
W0$1
0
TEXT
8
LABEL_ATTRIBUTE
10
-1.1
20
0.1999993333
40
0.56
1
Ref.Des.
50
180
41
0.75
7
W0$1
0
TEXT
8
PART_NAME_01
10
-1.1
20
0.1999993333
40
0.56
1
R19
50
180
41
0.75
7
W0$1
0
TEXT
8
LABEL_INFO
10
-1.124
20
1.652
40
0.7
1
0 0 0 0 0 1
41
0.75
7
W0$1
0
TEXT
8
LABEL_ATTRIBUTE
10
-1.124
20
1.652
40
0.7
1
PartType
41
0.75
7
W0$1
0
TEXT
8
PART_TYPE_01
10
-1.124
20
1.652
40
0.7
1
R_1005
41
0.75
7
W0$1
0
TEXT
8
PART_INFO
10
-1.124
20
0.652
40
0.7
1
000000
41
0.75
7
W0$1
0
TEXT
8
PART_PTS
10
-1.124
20
-0.348
40
0.7
1
1 2 
41
0.75
7
W0$1
0
ENDBLK
0
BLOCK
2
PART_TOP_45
8
0
10
0
20
0
3
PART_TOP_45
70
64
0
INSERT
2
SYM_TOP_9
8
0
10
0
20
0
0
INSERT
2
PKG_7
8
0
10
0
20
0
0
TEXT
8
LABEL_INFO
10
1.71
20
-0.3899993333
40
0.56
1
0 162000000 0 0 0 1
50
90
41
0.75
7
W0$1
0
TEXT
8
LABEL_ATTRIBUTE
10
1.71
20
-0.3899993333
40
0.56
1
Ref.Des.
50
90
41
0.75
7
W0$1
0
TEXT
8
PART_NAME_01
10
1.71
20
-0.3899993333
40
0.56
1
R2
50
90
41
0.75
7
W0$1
0
TEXT
8
LABEL_INFO
10
-1.124
20
1.652
40
0.7
1
0 0 0 0 0 1
41
0.75
7
W0$1
0
TEXT
8
LABEL_ATTRIBUTE
10
-1.124
20
1.652
40
0.7
1
PartType
41
0.75
7
W0$1
0
TEXT
8
PART_TYPE_01
10
-1.124
20
1.652
40
0.7
1
R_1005
41
0.75
7
W0$1
0
TEXT
8
PART_INFO
10
-1.124
20
0.652
40
0.7
1
000000
41
0.75
7
W0$1
0
TEXT
8
PART_PTS
10
-1.124
20
-0.348
40
0.7
1
1 2 
41
0.75
7
W0$1
0
ENDBLK
0
BLOCK
2
PART_TOP_46
8
0
10
0
20
0
3
PART_TOP_46
70
64
0
INSERT
2
SYM_TOP_9
8
0
10
0
20
0
0
INSERT
2
PKG_7
8
0
10
0
20
0
0
TEXT
8
LABEL_INFO
10
-1.6
20
0.6999993333
40
0.56
1
0 486000000 0 0 0 1
50
270
41
0.75
7
W0$1
0
TEXT
8
LABEL_ATTRIBUTE
10
-1.6
20
0.6999993333
40
0.56
1
Ref.Des.
50
270
41
0.75
7
W0$1
0
TEXT
8
PART_NAME_01
10
-1.6
20
0.6999993333
40
0.56
1
R20
50
270
41
0.75
7
W0$1
0
TEXT
8
LABEL_INFO
10
-1.124
20
1.652
40
0.7
1
0 0 0 0 0 1
41
0.75
7
W0$1
0
TEXT
8
LABEL_ATTRIBUTE
10
-1.124
20
1.652
40
0.7
1
PartType
41
0.75
7
W0$1
0
TEXT
8
PART_TYPE_01
10
-1.124
20
1.652
40
0.7
1
R_1005
41
0.75
7
W0$1
0
TEXT
8
PART_INFO
10
-1.124
20
0.652
40
0.7
1
000000
41
0.75
7
W0$1
0
TEXT
8
PART_PTS
10
-1.124
20
-0.348
40
0.7
1
1 2 
41
0.75
7
W0$1
0
ENDBLK
0
BLOCK
2
PART_TOP_47
8
0
10
0
20
0
3
PART_TOP_47
70
64
0
INSERT
2
SYM_TOP_9
8
0
10
0
20
0
0
INSERT
2
PKG_7
8
0
10
0
20
0
0
TEXT
8
LABEL_INFO
10
-1.7
20
0.3999993333
40
0.56
1
0 486000000 0 0 0 1
50
270
41
0.75
7
W0$1
0
TEXT
8
LABEL_ATTRIBUTE
10
-1.7
20
0.3999993333
40
0.56
1
Ref.Des.
50
270
41
0.75
7
W0$1
0
TEXT
8
PART_NAME_01
10
-1.7
20
0.3999993333
40
0.56
1
R21
50
270
41
0.75
7
W0$1
0
TEXT
8
LABEL_INFO
10
-1.124
20
1.652
40
0.7
1
0 0 0 0 0 1
41
0.75
7
W0$1
0
TEXT
8
LABEL_ATTRIBUTE
10
-1.124
20
1.652
40
0.7
1
PartType
41
0.75
7
W0$1
0
TEXT
8
PART_TYPE_01
10
-1.124
20
1.652
40
0.7
1
R_1005
41
0.75
7
W0$1
0
TEXT
8
PART_INFO
10
-1.124
20
0.652
40
0.7
1
000000
41
0.75
7
W0$1
0
TEXT
8
PART_PTS
10
-1.124
20
-0.348
40
0.7
1
1 2 
41
0.75
7
W0$1
0
ENDBLK
0
BLOCK
2
PART_TOP_48
8
0
10
0
20
0
3
PART_TOP_48
70
64
0
INSERT
2
SYM_TOP_9
8
0
10
0
20
0
0
INSERT
2
PKG_7
8
0
10
0
20
0
0
TEXT
8
LABEL_INFO
10
-1.7
20
0.5999993333
40
0.56
1
0 486000000 0 0 0 1
50
270
41
0.75
7
W0$1
0
TEXT
8
LABEL_ATTRIBUTE
10
-1.7
20
0.5999993333
40
0.56
1
Ref.Des.
50
270
41
0.75
7
W0$1
0
TEXT
8
PART_NAME_01
10
-1.7
20
0.5999993333
40
0.56
1
R22
50
270
41
0.75
7
W0$1
0
TEXT
8
LABEL_INFO
10
-1.124
20
1.652
40
0.7
1
0 0 0 0 0 1
41
0.75
7
W0$1
0
TEXT
8
LABEL_ATTRIBUTE
10
-1.124
20
1.652
40
0.7
1
PartType
41
0.75
7
W0$1
0
TEXT
8
PART_TYPE_01
10
-1.124
20
1.652
40
0.7
1
R_1005
41
0.75
7
W0$1
0
TEXT
8
PART_INFO
10
-1.124
20
0.652
40
0.7
1
000000
41
0.75
7
W0$1
0
TEXT
8
PART_PTS
10
-1.124
20
-0.348
40
0.7
1
1 2 
41
0.75
7
W0$1
0
ENDBLK
0
BLOCK
2
PART_TOP_49
8
0
10
0
20
0
3
PART_TOP_49
70
64
0
INSERT
2
SYM_TOP_9
8
0
10
0
20
0
0
INSERT
2
PKG_7
8
0
10
0
20
0
0
TEXT
8
LABEL_INFO
10
1.1
20
0.7
40
0.56
1
0 486000000 0 0 0 1
50
270
41
0.75
7
W0$1
0
TEXT
8
LABEL_ATTRIBUTE
10
1.1
20
0.7
40
0.56
1
Ref.Des.
50
270
41
0.75
7
W0$1
0
TEXT
8
PART_NAME_01
10
1.1
20
0.7
40
0.56
1
R23
50
270
41
0.75
7
W0$1
0
TEXT
8
LABEL_INFO
10
-1.124
20
1.652
40
0.7
1
0 0 0 0 0 1
41
0.75
7
W0$1
0
TEXT
8
LABEL_ATTRIBUTE
10
-1.124
20
1.652
40
0.7
1
PartType
41
0.75
7
W0$1
0
TEXT
8
PART_TYPE_01
10
-1.124
20
1.652
40
0.7
1
R_1005
41
0.75
7
W0$1
0
TEXT
8
PART_INFO
10
-1.124
20
0.652
40
0.7
1
000000
41
0.75
7
W0$1
0
TEXT
8
PART_PTS
10
-1.124
20
-0.348
40
0.7
1
1 2 
41
0.75
7
W0$1
0
ENDBLK
0
BLOCK
2
PART_TOP_50
8
0
10
0
20
0
3
PART_TOP_50
70
64
0
INSERT
2
SYM_TOP_9
8
0
10
0
20
0
0
INSERT
2
PKG_7
8
0
10
0
20
0
0
TEXT
8
LABEL_INFO
10
1.64
20
-0.4499993333
40
0.56
1
0 162000000 0 0 0 1
50
90
41
0.75
7
W0$1
0
TEXT
8
LABEL_ATTRIBUTE
10
1.64
20
-0.4499993333
40
0.56
1
Ref.Des.
50
90
41
0.75
7
W0$1
0
TEXT
8
PART_NAME_01
10
1.64
20
-0.4499993333
40
0.56
1
R24
50
90
41
0.75
7
W0$1
0
TEXT
8
LABEL_INFO
10
-1.124
20
1.652
40
0.7
1
0 0 0 0 0 1
41
0.75
7
W0$1
0
TEXT
8
LABEL_ATTRIBUTE
10
-1.124
20
1.652
40
0.7
1
PartType
41
0.75
7
W0$1
0
TEXT
8
PART_TYPE_01
10
-1.124
20
1.652
40
0.7
1
R_1005
41
0.75
7
W0$1
0
TEXT
8
PART_INFO
10
-1.124
20
0.652
40
0.7
1
000000
41
0.75
7
W0$1
0
TEXT
8
PART_PTS
10
-1.124
20
-0.348
40
0.7
1
1 2 
41
0.75
7
W0$1
0
ENDBLK
0
BLOCK
2
PART_TOP_51
8
0
10
0
20
0
3
PART_TOP_51
70
64
0
INSERT
2
SYM_TOP_9
8
0
10
0
20
0
0
INSERT
2
PKG_7
8
0
10
0
20
0
0
TEXT
8
LABEL_INFO
10
1.8
20
-0.3
40
0.56
1
0 0 0 0 0 1
41
0.75
7
W0$1
0
TEXT
8
LABEL_ATTRIBUTE
10
1.8
20
-0.3
40
0.56
1
Ref.Des.
41
0.75
7
W0$1
0
TEXT
8
PART_NAME_01
10
1.8
20
-0.3
40
0.56
1
R25
41
0.75
7
W0$1
0
TEXT
8
LABEL_INFO
10
-1.124
20
1.652
40
0.7
1
0 0 0 0 0 1
41
0.75
7
W0$1
0
TEXT
8
LABEL_ATTRIBUTE
10
-1.124
20
1.652
40
0.7
1
PartType
41
0.75
7
W0$1
0
TEXT
8
PART_TYPE_01
10
-1.124
20
1.652
40
0.7
1
R_1005
41
0.75
7
W0$1
0
TEXT
8
PART_INFO
10
-1.124
20
0.652
40
0.7
1
000000
41
0.75
7
W0$1
0
TEXT
8
PART_PTS
10
-1.124
20
-0.348
40
0.7
1
1 2 
41
0.75
7
W0$1
0
ENDBLK
0
BLOCK
2
PART_TOP_52
8
0
10
0
20
0
3
PART_TOP_52
70
64
0
INSERT
2
SYM_TOP_9
8
0
10
0
20
0
0
INSERT
2
PKG_7
8
0
10
0
20
0
0
TEXT
8
LABEL_INFO
10
1.6
20
-0.5499993333
40
0.56
1
0 162000000 0 0 0 1
50
90
41
0.75
7
W0$1
0
TEXT
8
LABEL_ATTRIBUTE
10
1.6
20
-0.5499993333
40
0.56
1
Ref.Des.
50
90
41
0.75
7
W0$1
0
TEXT
8
PART_NAME_01
10
1.6
20
-0.5499993333
40
0.56
1
R26
50
90
41
0.75
7
W0$1
0
TEXT
8
LABEL_INFO
10
-1.124
20
1.652
40
0.7
1
0 0 0 0 0 1
41
0.75
7
W0$1
0
TEXT
8
LABEL_ATTRIBUTE
10
-1.124
20
1.652
40
0.7
1
PartType
41
0.75
7
W0$1
0
TEXT
8
PART_TYPE_01
10
-1.124
20
1.652
40
0.7
1
R_1005
41
0.75
7
W0$1
0
TEXT
8
PART_INFO
10
-1.124
20
0.652
40
0.7
1
000000
41
0.75
7
W0$1
0
TEXT
8
PART_PTS
10
-1.124
20
-0.348
40
0.7
1
1 2 
41
0.75
7
W0$1
0
ENDBLK
0
BLOCK
2
PART_TOP_53
8
0
10
0
20
0
3
PART_TOP_53
70
64
0
INSERT
2
SYM_TOP_9
8
0
10
0
20
0
0
INSERT
2
PKG_7
8
0
10
0
20
0
0
TEXT
8
LABEL_INFO
10
1.3
20
0.1
40
0.56
1
0 0 0 0 0 1
41
0.75
7
W0$1
0
TEXT
8
LABEL_ATTRIBUTE
10
1.3
20
0.1
40
0.56
1
Ref.Des.
41
0.75
7
W0$1
0
TEXT
8
PART_NAME_01
10
1.3
20
0.1
40
0.56
1
R3
41
0.75
7
W0$1
0
TEXT
8
LABEL_INFO
10
-1.124
20
1.652
40
0.7
1
0 0 0 0 0 1
41
0.75
7
W0$1
0
TEXT
8
LABEL_ATTRIBUTE
10
-1.124
20
1.652
40
0.7
1
PartType
41
0.75
7
W0$1
0
TEXT
8
PART_TYPE_01
10
-1.124
20
1.652
40
0.7
1
R_1005
41
0.75
7
W0$1
0
TEXT
8
PART_INFO
10
-1.124
20
0.652
40
0.7
1
000000
41
0.75
7
W0$1
0
TEXT
8
PART_PTS
10
-1.124
20
-0.348
40
0.7
1
1 2 
41
0.75
7
W0$1
0
ENDBLK
0
BLOCK
2
PART_TOP_54
8
0
10
0
20
0
3
PART_TOP_54
70
64
0
INSERT
2
SYM_TOP_9
8
0
10
0
20
0
0
INSERT
2
PKG_7
8
0
10
0
20
0
0
TEXT
8
LABEL_INFO
10
0.2999993333
20
0.65
40
0.56
1
0 162000000 0 0 0 1
50
90
41
0.75
7
W0$1
0
TEXT
8
LABEL_ATTRIBUTE
10
0.2999993333
20
0.65
40
0.56
1
Ref.Des.
50
90
41
0.75
7
W0$1
0
TEXT
8
PART_NAME_01
10
0.2999993333
20
0.65
40
0.56
1
R4
50
90
41
0.75
7
W0$1
0
TEXT
8
LABEL_INFO
10
-1.124
20
1.652
40
0.7
1
0 0 0 0 0 1
41
0.75
7
W0$1
0
TEXT
8
LABEL_ATTRIBUTE
10
-1.124
20
1.652
40
0.7
1
PartType
41
0.75
7
W0$1
0
TEXT
8
PART_TYPE_01
10
-1.124
20
1.652
40
0.7
1
R_1005
41
0.75
7
W0$1
0
TEXT
8
PART_INFO
10
-1.124
20
0.652
40
0.7
1
000000
41
0.75
7
W0$1
0
TEXT
8
PART_PTS
10
-1.124
20
-0.348
40
0.7
1
1 2 
41
0.75
7
W0$1
0
ENDBLK
0
BLOCK
2
PART_TOP_55
8
0
10
0
20
0
3
PART_TOP_55
70
64
0
INSERT
2
SYM_TOP_9
8
0
10
0
20
0
0
INSERT
2
PKG_7
8
0
10
0
20
0
0
TEXT
8
LABEL_INFO
10
-1.0999993333
20
-0.6
40
0.56
1
0 162000000 0 0 0 1
50
90
41
0.75
7
W0$1
0
TEXT
8
LABEL_ATTRIBUTE
10
-1.0999993333
20
-0.6
40
0.56
1
Ref.Des.
50
90
41
0.75
7
W0$1
0
TEXT
8
PART_NAME_01
10
-1.0999993333
20
-0.6
40
0.56
1
R6
50
90
41
0.75
7
W0$1
0
TEXT
8
LABEL_INFO
10
-1.124
20
1.652
40
0.7
1
0 0 0 0 0 1
41
0.75
7
W0$1
0
TEXT
8
LABEL_ATTRIBUTE
10
-1.124
20
1.652
40
0.7
1
PartType
41
0.75
7
W0$1
0
TEXT
8
PART_TYPE_01
10
-1.124
20
1.652
40
0.7
1
R_1005
41
0.75
7
W0$1
0
TEXT
8
PART_INFO
10
-1.124
20
0.652
40
0.7
1
000000
41
0.75
7
W0$1
0
TEXT
8
PART_PTS
10
-1.124
20
-0.348
40
0.7
1
1 2 
41
0.75
7
W0$1
0
ENDBLK
0
BLOCK
2
PART_TOP_56
8
0
10
0
20
0
3
PART_TOP_56
70
64
0
INSERT
2
SYM_TOP_9
8
0
10
0
20
0
0
INSERT
2
PKG_7
8
0
10
0
20
0
0
TEXT
8
LABEL_INFO
10
-0.4899993333
20
-0.68
40
0.56
1
0 486000000 0 0 0 1
50
270
41
0.75
7
W0$1
0
TEXT
8
LABEL_ATTRIBUTE
10
-0.4899993333
20
-0.68
40
0.56
1
Ref.Des.
50
270
41
0.75
7
W0$1
0
TEXT
8
PART_NAME_01
10
-0.4899993333
20
-0.68
40
0.56
1
R7
50
270
41
0.75
7
W0$1
0
TEXT
8
LABEL_INFO
10
-1.124
20
1.652
40
0.7
1
0 0 0 0 0 1
41
0.75
7
W0$1
0
TEXT
8
LABEL_ATTRIBUTE
10
-1.124
20
1.652
40
0.7
1
PartType
41
0.75
7
W0$1
0
TEXT
8
PART_TYPE_01
10
-1.124
20
1.652
40
0.7
1
R_1005
41
0.75
7
W0$1
0
TEXT
8
PART_INFO
10
-1.124
20
0.652
40
0.7
1
000000
41
0.75
7
W0$1
0
TEXT
8
PART_PTS
10
-1.124
20
-0.348
40
0.7
1
1 2 
41
0.75
7
W0$1
0
ENDBLK
0
BLOCK
2
PART_TOP_57
8
0
10
0
20
0
3
PART_TOP_57
70
64
0
INSERT
2
SYM_TOP_9
8
0
10
0
20
0
0
INSERT
2
PKG_7
8
0
10
0
20
0
0
TEXT
8
LABEL_INFO
10
1.9
20
0.3
40
0.56
1
0 324000000 0 0 0 1
50
180
41
0.75
7
W0$1
0
TEXT
8
LABEL_ATTRIBUTE
10
1.9
20
0.3
40
0.56
1
Ref.Des.
50
180
41
0.75
7
W0$1
0
TEXT
8
PART_NAME_01
10
1.9
20
0.3
40
0.56
1
R8
50
180
41
0.75
7
W0$1
0
TEXT
8
LABEL_INFO
10
-1.124
20
1.652
40
0.7
1
0 0 0 0 0 1
41
0.75
7
W0$1
0
TEXT
8
LABEL_ATTRIBUTE
10
-1.124
20
1.652
40
0.7
1
PartType
41
0.75
7
W0$1
0
TEXT
8
PART_TYPE_01
10
-1.124
20
1.652
40
0.7
1
R_1005
41
0.75
7
W0$1
0
TEXT
8
PART_INFO
10
-1.124
20
0.652
40
0.7
1
000000
41
0.75
7
W0$1
0
TEXT
8
PART_PTS
10
-1.124
20
-0.348
40
0.7
1
1 2 
41
0.75
7
W0$1
0
ENDBLK
0
BLOCK
2
PART_TOP_58
8
0
10
0
20
0
3
PART_TOP_58
70
64
0
INSERT
2
SYM_TOP_9
8
0
10
0
20
0
0
INSERT
2
PKG_7
8
0
10
0
20
0
0
TEXT
8
LABEL_INFO
10
0.6999993333
20
0.6
40
0.56
1
0 162000000 0 0 0 1
50
90
41
0.75
7
W0$1
0
TEXT
8
LABEL_ATTRIBUTE
10
0.6999993333
20
0.6
40
0.56
1
Ref.Des.
50
90
41
0.75
7
W0$1
0
TEXT
8
PART_NAME_01
10
0.6999993333
20
0.6
40
0.56
1
R9
50
90
41
0.75
7
W0$1
0
TEXT
8
LABEL_INFO
10
-1.124
20
1.652
40
0.7
1
0 0 0 0 0 1
41
0.75
7
W0$1
0
TEXT
8
LABEL_ATTRIBUTE
10
-1.124
20
1.652
40
0.7
1
PartType
41
0.75
7
W0$1
0
TEXT
8
PART_TYPE_01
10
-1.124
20
1.652
40
0.7
1
R_1005
41
0.75
7
W0$1
0
TEXT
8
PART_INFO
10
-1.124
20
0.652
40
0.7
1
000000
41
0.75
7
W0$1
0
TEXT
8
PART_PTS
10
-1.124
20
-0.348
40
0.7
1
1 2 
41
0.75
7
W0$1
0
ENDBLK
0
BLOCK
2
PART_TOP_59
8
0
10
0
20
0
3
PART_TOP_59
70
64
0
INSERT
2
SYM_TOP_10
8
0
10
0
20
0
0
INSERT
2
PKG_8
8
0
10
0
20
0
0
TEXT
8
LABEL_INFO
10
-2.17
20
-0.19
40
0.56
1
0 0 0 0 0 1
41
0.75
7
W0$1
0
TEXT
8
LABEL_ATTRIBUTE
10
-2.17
20
-0.19
40
0.56
1
Ref.Des.
41
0.75
7
W0$1
0
TEXT
8
PART_NAME_01
10
-2.17
20
-0.19
40
0.56
1
TP1
41
0.75
7
W0$1
0
TEXT
8
LABEL_INFO
10
-1.124
20
1.652
40
0.7
1
0 0 0 0 0 1
41
0.75
7
W0$1
0
TEXT
8
LABEL_ATTRIBUTE
10
-1.124
20
1.652
40
0.7
1
PartType
41
0.75
7
W0$1
0
TEXT
8
PART_TYPE_01
10
-1.124
20
1.652
40
0.7
1
TP
41
0.75
7
W0$1
0
TEXT
8
PART_INFO
10
-1.124
20
0.652
40
0.7
1
000000
41
0.75
7
W0$1
0
TEXT
8
PART_PTS
10
-1.124
20
-0.348
40
0.7
1
1 
41
0.75
7
W0$1
0
ENDBLK
0
BLOCK
2
PART_TOP_60
8
0
10
0
20
0
3
PART_TOP_60
70
64
0
INSERT
2
SYM_TOP_10
8
0
10
0
20
0
0
INSERT
2
PKG_8
8
0
10
0
20
0
0
TEXT
8
LABEL_INFO
10
-2.24
20
-0.26
40
0.56
1
0 0 0 0 0 1
41
0.75
7
W0$1
0
TEXT
8
LABEL_ATTRIBUTE
10
-2.24
20
-0.26
40
0.56
1
Ref.Des.
41
0.75
7
W0$1
0
TEXT
8
PART_NAME_01
10
-2.24
20
-0.26
40
0.56
1
TP2
41
0.75
7
W0$1
0
TEXT
8
LABEL_INFO
10
-1.124
20
1.652
40
0.7
1
0 0 0 0 0 1
41
0.75
7
W0$1
0
TEXT
8
LABEL_ATTRIBUTE
10
-1.124
20
1.652
40
0.7
1
PartType
41
0.75
7
W0$1
0
TEXT
8
PART_TYPE_01
10
-1.124
20
1.652
40
0.7
1
TP
41
0.75
7
W0$1
0
TEXT
8
PART_INFO
10
-1.124
20
0.652
40
0.7
1
000000
41
0.75
7
W0$1
0
TEXT
8
PART_PTS
10
-1.124
20
-0.348
40
0.7
1
1 
41
0.75
7
W0$1
0
ENDBLK
0
BLOCK
2
PART_TOP_61
8
0
10
0
20
0
3
PART_TOP_61
70
64
0
INSERT
2
SYM_TOP_11
8
0
10
0
20
0
0
INSERT
2
PKG_9
8
0
10
0
20
0
0
TEXT
8
LABEL_INFO
10
-0.8
20
0.7
40
0.7
1
0 0 0 0 0 1
41
0.75
7
W0$1
0
TEXT
8
LABEL_ATTRIBUTE
10
-0.8
20
0.7
40
0.7
1
PartType
41
0.75
7
W0$1
0
TEXT
8
PART_TYPE_01
10
-0.8
20
0.7
40
0.7
1
RECE.20279.001E.01
41
0.75
7
W0$1
0
TEXT
8
LABEL_INFO
10
2.65
20
-0.3
40
0.56
1
0 0 0 0 0 1
41
0.75
7
W0$1
0
TEXT
8
LABEL_ATTRIBUTE
10
2.65
20
-0.3
40
0.56
1
Ref.Des.
41
0.75
7
W0$1
0
TEXT
8
PART_NAME_01
10
2.65
20
-0.3
40
0.56
1
CON2
41
0.75
7
W0$1
0
TEXT
8
PART_INFO
10
2.65
20
-1.1
40
0.56
1
000010
41
0.75
7
W0$1
0
TEXT
8
PART_PTS
10
2.65
20
-1.9
40
0.56
1
1 2 3 
41
0.75
7
W0$1
0
ENDBLK
0
BLOCK
2
PART_TOP_62
8
0
10
0
20
0
3
PART_TOP_62
70
64
0
INSERT
2
SYM_TOP_11
8
0
10
0
20
0
0
INSERT
2
PKG_9
8
0
10
0
20
0
0
TEXT
8
LABEL_INFO
10
-0.8
20
0.7
40
0.7
1
0 0 0 0 0 1
41
0.75
7
W0$1
0
TEXT
8
LABEL_ATTRIBUTE
10
-0.8
20
0.7
40
0.7
1
PartType
41
0.75
7
W0$1
0
TEXT
8
PART_TYPE_01
10
-0.8
20
0.7
40
0.7
1
RECE.20279.001E.01
41
0.75
7
W0$1
0
TEXT
8
LABEL_INFO
10
-4.35
20
-0.2
40
0.56
1
0 0 0 0 0 1
41
0.75
7
W0$1
0
TEXT
8
LABEL_ATTRIBUTE
10
-4.35
20
-0.2
40
0.56
1
Ref.Des.
41
0.75
7
W0$1
0
TEXT
8
PART_NAME_01
10
-4.35
20
-0.2
40
0.56
1
CON3
41
0.75
7
W0$1
0
TEXT
8
PART_INFO
10
-4.35
20
-1
40
0.56
1
000000
41
0.75
7
W0$1
0
TEXT
8
PART_PTS
10
-4.35
20
-1.8
40
0.56
1
1 2 3 
41
0.75
7
W0$1
0
ENDBLK
0
BLOCK
2
PART_TOP_63
8
0
10
0
20
0
3
PART_TOP_63
70
64
0
INSERT
2
SYM_TOP_12
8
0
10
0
20
0
0
INSERT
2
PKG_10
8
0
10
0
20
0
0
TEXT
8
LABEL_INFO
10
0
20
0
40
0.21
1
0 0 0 2 0 1
73
2
11
0
21
0
41
0.75
7
W0$01
0
TEXT
8
LABEL_ATTRIBUTE
10
0
20
0
40
0.21
1
PartType
73
2
11
0
21
0
41
0.75
7
W0$01
0
TEXT
8
PART_TYPE_01
10
0
20
0
40
0.21
1
SAFBA1G56AB0E0A
73
3
11
0
21
0
41
0.75
7
W0$01
0
TEXT
8
LABEL_INFO
10
0.9499993333
20
0.55
40
0.56
1
0 162000000 0 0 0 1
50
90
41
0.75
7
W0$1
0
TEXT
8
LABEL_ATTRIBUTE
10
0.9499993333
20
0.55
40
0.56
1
Ref.Des.
50
90
41
0.75
7
W0$1
0
TEXT
8
PART_NAME_01
10
0.9499993333
20
0.55
40
0.56
1
U4
50
90
41
0.75
7
W0$1
0
TEXT
8
PART_INFO
10
0.9499993333
20
-0.25
40
0.56
1
000000
50
90
41
0.75
7
W0$1
0
TEXT
8
PART_PTS
10
0.9499993333
20
-1.05
40
0.56
1
1 2 3 4 
50
90
41
0.75
7
W0$1
0
ENDBLK
0
BLOCK
2
PART_TOP_64
8
0
10
0
20
0
3
PART_TOP_64
70
64
0
INSERT
2
SYM_TOP_13
8
0
10
0
20
0
0
INSERT
2
PKG_11
8
0
10
0
20
0
0
TEXT
8
LABEL_INFO
10
-1.85
20
0.8999993333
40
0.56
1
0 162000000 0 0 0 1
50
90
41
0.75
7
W0$1
0
TEXT
8
LABEL_ATTRIBUTE
10
-1.85
20
0.8999993333
40
0.56
1
Ref.Des.
50
90
41
0.75
7
W0$1
0
TEXT
8
PART_NAME_01
10
-1.85
20
0.8999993333
40
0.56
1
U6
50
90
41
0.75
7
W0$1
0
TEXT
8
LABEL_INFO
10
0
20
0
40
0.21
1
0 0 0 2 0 1
73
2
11
0
21
0
41
0.75
7
W0$01
0
TEXT
8
LABEL_ATTRIBUTE
10
0
20
0
40
0.21
1
PartType
73
2
11
0
21
0
41
0.75
7
W0$01
0
TEXT
8
PART_TYPE_01
10
0
20
0
40
0.21
1
RT2518GQW
73
3
11
0
21
0
41
0.75
7
W0$01
0
TEXT
8
PART_INFO
10
0
20
-0.3
40
0.21
1
000000
73
3
11
0
21
-0.3
41
0.75
7
W0$01
0
TEXT
8
PART_PTS
10
0
20
-0.6
40
0.21
1
1 2 3 4 5 6 7 8 9 
73
3
11
0
21
-0.6
41
0.75
7
W0$01
0
ENDBLK
0
BLOCK
2
PART_TOP_65
8
0
10
0
20
0
3
PART_TOP_65
70
64
0
INSERT
2
SYM_TOP_13
8
0
10
0
20
0
0
INSERT
2
PKG_11
8
0
10
0
20
0
0
TEXT
8
LABEL_INFO
10
-1.9
20
-0.3
40
0.56
1
0 162000000 0 0 0 1
50
90
41
0.75
7
W0$1
0
TEXT
8
LABEL_ATTRIBUTE
10
-1.9
20
-0.3
40
0.56
1
Ref.Des.
50
90
41
0.75
7
W0$1
0
TEXT
8
PART_NAME_01
10
-1.9
20
-0.3
40
0.56
1
U8
50
90
41
0.75
7
W0$1
0
TEXT
8
LABEL_INFO
10
0
20
0
40
0.21
1
0 0 0 2 0 1
73
2
11
0
21
0
41
0.75
7
W0$01
0
TEXT
8
LABEL_ATTRIBUTE
10
0
20
0
40
0.21
1
PartType
73
2
11
0
21
0
41
0.75
7
W0$01
0
TEXT
8
PART_TYPE_01
10
0
20
0
40
0.21
1
RT2518GQW
73
3
11
0
21
0
41
0.75
7
W0$01
0
TEXT
8
PART_INFO
10
0
20
-0.3
40
0.21
1
000000
73
3
11
0
21
-0.3
41
0.75
7
W0$01
0
TEXT
8
PART_PTS
10
0
20
-0.6
40
0.21
1
1 2 3 4 5 6 7 8 9 
73
3
11
0
21
-0.6
41
0.75
7
W0$01
0
ENDBLK
0
BLOCK
2
PART_TOP_66
8
0
10
0
20
0
3
PART_TOP_66
70
64
0
INSERT
2
SYM_TOP_14
8
0
10
0
20
0
0
INSERT
2
PKG_12
8
0
10
0
20
0
0
TEXT
8
LABEL_INFO
10
0.2
20
9.5
40
0.2667
1
0 0 0 0 0 1
41
0.75
7
W0$0381
0
TEXT
8
LABEL_ATTRIBUTE
10
0.2
20
9.5
40
0.2667
1
Ref.Des.
41
0.75
7
W0$0381
0
TEXT
8
PART_NAME_01
10
0.2
20
9.5
40
0.2667
1
U2
41
0.75
7
W0$0381
0
TEXT
8
LABEL_INFO
10
0
20
0
40
0.2667
1
0 0 0 2 0 1
73
2
11
0
21
0
41
0.75
7
W0$0381
0
TEXT
8
LABEL_ATTRIBUTE
10
0
20
0
40
0.2667
1
PartType
73
2
11
0
21
0
41
0.75
7
W0$0381
0
TEXT
8
PART_TYPE_01
10
0
20
0
40
0.2667
1
ME310G1-W3-1
73
3
11
0
21
0
41
0.75
7
W0$0381
0
TEXT
8
PART_INFO
10
0
20
-0.381
40
0.2667
1
000010
73
3
11
0
21
-0.381
41
0.75
7
W0$0381
0
TEXT
8
PART_PTS
10
0
20
-0.762
40
0.2667
1
1 2 3 4 5 6 7 8 9 10 11 12 13 14 15 16 17 18 19 20 21 22 23 24 25 26 27 28 29 30 31 32 33 34 35 36 37 38 39 40 41 42 43 44 45 46 47 48 49 50 51 52 53 54 55 56 57 58 59 60 61 62 63 64 65 66 67 68 69 70 71 72 73 74 75 76 77 78 79 80 81 82 83 84 85 86 
73
3
11
0
21
-0.762
41
0.75
7
W0$0381
0
TEXT
8
PART_PTS
10
0
20
-1.143
40
0.2667
1
87 88 89 90 91 92 93 94 
73
3
11
0
21
-1.143
41
0.75
7
W0$0381
0
ENDBLK
0
BLOCK
2
PART_TOP_67
8
0
10
0
20
0
3
PART_TOP_67
70
64
0
INSERT
2
SYM_TOP_15
8
0
10
0
20
0
0
INSERT
2
PKG_13
8
0
10
0
20
0
0
TEXT
8
LABEL_INFO
10
2
20
-2.3999993333
40
0.56
1
0 324000000 0 0 0 1
50
180
41
0.75
7
W0$1
0
TEXT
8
LABEL_ATTRIBUTE
10
2
20
-2.3999993333
40
0.56
1
Ref.Des.
50
180
41
0.75
7
W0$1
0
TEXT
8
PART_NAME_01
10
2
20
-2.3999993333
40
0.56
1
U7
50
180
41
0.75
7
W0$1
0
TEXT
8
LABEL_INFO
10
0
20
0
40
0.889
1
0 0 0 2 0 1
73
2
11
0
21
0
41
0.75
7
W0$127
0
TEXT
8
LABEL_ATTRIBUTE
10
0
20
0
40
0.889
1
PartType
73
2
11
0
21
0
41
0.75
7
W0$127
0
TEXT
8
PART_TYPE_01
10
0
20
0
40
0.889
1
TXB0108DQS
73
3
11
0
21
0
41
0.75
7
W0$127
0
TEXT
8
PART_INFO
10
0
20
-1.27
40
0.889
1
000000
73
3
11
0
21
-1.27
41
0.75
7
W0$127
0
TEXT
8
PART_PTS
10
0
20
-2.54
40
0.889
1
1 2 3 4 5 6 7 8 9 10 11 12 13 14 15 16 17 18 19 20 
73
3
11
0
21
-2.54
41
0.75
7
W0$127
0
ENDBLK
0
BLOCK
2
PART_TOP_68
8
0
10
0
20
0
3
PART_TOP_68
70
64
0
INSERT
2
SYM_TOP_16
8
0
10
0
20
0
0
INSERT
2
PKG_14
8
0
10
0
20
0
0
TEXT
8
LABEL_INFO
10
0
20
0
40
0.889
1
0 0 0 2 0 1
73
2
11
0
21
0
41
0.75
7
W0$127
0
TEXT
8
LABEL_ATTRIBUTE
10
0
20
0
40
0.889
1
PartType
73
2
11
0
21
0
41
0.75
7
W0$127
0
TEXT
8
PART_TYPE_01
10
0
20
0
40
0.889
1
SI69C-08200
73
3
11
0
21
0
41
0.75
7
W0$127
0
TEXT
8
LABEL_INFO
10
-7.2
20
5.1
40
0.56
1
0 0 0 0 0 1
41
0.75
7
W0$1
0
TEXT
8
LABEL_ATTRIBUTE
10
-7.2
20
5.1
40
0.56
1
Ref.Des.
41
0.75
7
W0$1
0
TEXT
8
PART_NAME_01
10
-7.2
20
5.1
40
0.56
1
CON1
41
0.75
7
W0$1
0
TEXT
8
PART_INFO
10
-7.2
20
4.3
40
0.56
1
000000
41
0.75
7
W0$1
0
TEXT
8
PART_PTS
10
-7.2
20
3.5
40
0.56
1
1 2 3 4 5 6 7 8 9 10 
41
0.75
7
W0$1
0
ENDBLK
0
BLOCK
2
PART_TOP_69
8
0
10
0
20
0
3
PART_TOP_69
70
64
0
INSERT
2
SYM_TOP_9
8
0
10
0
20
0
0
INSERT
2
PKG_7
8
0
10
0
20
0
0
TEXT
8
LABEL_INFO
10
-0.95
20
1.2
40
0.7
1
0 0 0 0 0 1
41
0.75
7
W0$1
0
TEXT
8
LABEL_ATTRIBUTE
10
-0.95
20
1.2
40
0.7
1
PartType
41
0.75
7
W0$1
0
TEXT
8
PART_TYPE_01
10
-0.95
20
1.2
40
0.7
1
R_1005
41
0.75
7
W0$1
0
TEXT
8
LABEL_INFO
10
-1.6
20
0.4999993333
40
0.56
1
0 486000000 0 0 0 1
50
270
41
0.75
7
W0$1
0
TEXT
8
LABEL_ATTRIBUTE
10
-1.6
20
0.4999993333
40
0.56
1
Ref.Des.
50
270
41
0.75
7
W0$1
0
TEXT
8
PART_NAME_01
10
-1.6
20
0.4999993333
40
0.56
1
R28
50
270
41
0.75
7
W0$1
0
TEXT
8
PART_INFO
10
-1.6
20
-0.3000006667
40
0.56
1
000000
50
270
41
0.75
7
W0$1
0
TEXT
8
PART_PTS
10
-1.6
20
-1.1000006667
40
0.56
1
1 2 
50
270
41
0.75
7
W0$1
0
ENDBLK
0
BLOCK
2
PART_TOP_70
8
0
10
0
20
0
3
PART_TOP_70
70
64
0
INSERT
2
SYM_TOP_9
8
0
10
0
20
0
0
INSERT
2
PKG_7
8
0
10
0
20
0
0
TEXT
8
LABEL_INFO
10
-0.95
20
1.2
40
0.7
1
0 0 0 0 0 1
41
0.75
7
W0$1
0
TEXT
8
LABEL_ATTRIBUTE
10
-0.95
20
1.2
40
0.7
1
PartType
41
0.75
7
W0$1
0
TEXT
8
PART_TYPE_01
10
-0.95
20
1.2
40
0.7
1
R_1005
41
0.75
7
W0$1
0
TEXT
8
LABEL_INFO
10
-1.6
20
0.6999993333
40
0.56
1
0 486000000 0 0 0 1
50
270
41
0.75
7
W0$1
0
TEXT
8
LABEL_ATTRIBUTE
10
-1.6
20
0.6999993333
40
0.56
1
Ref.Des.
50
270
41
0.75
7
W0$1
0
TEXT
8
PART_NAME_01
10
-1.6
20
0.6999993333
40
0.56
1
R27
50
270
41
0.75
7
W0$1
0
TEXT
8
PART_INFO
10
-1.6
20
-0.1000006667
40
0.56
1
000000
50
270
41
0.75
7
W0$1
0
TEXT
8
PART_PTS
10
-1.6
20
-0.9000006667
40
0.56
1
1 2 
50
270
41
0.75
7
W0$1
0
ENDBLK
0
BLOCK
2
PART_TOP_71
8
0
10
0
20
0
3
PART_TOP_71
70
64
0
INSERT
2
SYM_TOP_2
8
0
10
0
20
0
0
INSERT
2
PKG_0
8
0
10
0
20
0
0
TEXT
8
LABEL_INFO
10
-0.15
20
1.5
40
0.56
1
0 0 1 1 0 1
72
1
73
1
11
-0.15
21
1.5
41
0.75
7
W0$1
0
TEXT
8
LABEL_ATTRIBUTE
10
-0.15
20
1.5
40
0.56
1
Value
72
1
73
1
11
-0.15
21
1.5
41
0.75
7
W0$1
0
TEXT
8
ATTRIBUTE_01
10
-0.15
20
1.5
40
0.56
1
 
72
1
73
2
11
-0.15
21
1.5
41
0.75
7
W0$1
0
TEXT
8
LABEL_INFO
10
0.05
20
-2.8
40
0.56
1
0 324000000 1 1 0 1
72
1
73
1
11
0.05
21
-2.8
50
180
41
0.75
7
W0$1
0
TEXT
8
LABEL_ATTRIBUTE
10
0.05
20
-2.8
40
0.56
1
Ref.Des.
72
1
73
1
11
0.05
21
-2.8
50
180
41
0.75
7
W0$1
0
TEXT
8
PART_NAME_01
10
0.05
20
-2.8
40
0.56
1
C31
72
1
73
2
11
0.05
21
-2.8
50
180
41
0.75
7
W0$1
0
TEXT
8
LABEL_INFO
10
-0.1
20
1.7
40
0.9779
1
0 0 1 1 0 1
72
1
73
1
11
-0.1
21
1.7
41
0.75
7
W0$1778
0
TEXT
8
LABEL_ATTRIBUTE
10
-0.1
20
1.7
40
0.9779
1
PartType
72
1
73
1
11
-0.1
21
1.7
41
0.75
7
W0$1778
0
TEXT
8
PART_TYPE_01
10
-0.1
20
1.7
40
0.9779
1
C_1005
72
1
73
2
11
-0.1
21
1.7
41
0.75
7
W0$1778
0
TEXT
8
PART_INFO
10
-0.1
20
0.303
40
0.9779
1
000000
72
1
73
2
11
-0.1
21
0.303
41
0.75
7
W0$1778
0
TEXT
8
PART_PTS
10
-0.1
20
-1.094
40
0.9779
1
1 2 
72
1
73
2
11
-0.1
21
-1.094
41
0.75
7
W0$1778
0
ENDBLK
0
BLOCK
2
PART_TOP_72
8
0
10
0
20
0
3
PART_TOP_72
70
64
0
INSERT
2
SYM_TOP_18
8
0
10
0
20
0
0
INSERT
2
PKG_15
8
0
10
0
20
0
0
TEXT
8
LABEL_INFO
10
-1.1
20
0.2999993333
40
0.56
1
0 324000000 0 0 0 1
50
180
41
0.75
7
W0$1
0
TEXT
8
LABEL_ATTRIBUTE
10
-1.1
20
0.2999993333
40
0.56
1
Ref.Des.
50
180
41
0.75
7
W0$1
0
TEXT
8
PART_NAME_01
10
-1.1
20
0.2999993333
40
0.56
1
ESD1
50
180
41
0.75
7
W0$1
0
TEXT
8
LABEL_INFO
10
-1.124
20
1.652
40
0.7
1
0 0 0 0 0 1
41
0.75
7
W0$1
0
TEXT
8
LABEL_ATTRIBUTE
10
-1.124
20
1.652
40
0.7
1
PartType
41
0.75
7
W0$1
0
TEXT
8
PART_TYPE_01
10
-1.124
20
1.652
40
0.7
1
ULCE0158A015
41
0.75
7
W0$1
0
TEXT
8
PART_INFO
10
-1.124
20
0.652
40
0.7
1
000001
41
0.75
7
W0$1
0
TEXT
8
PART_PTS
10
-1.124
20
-0.348
40
0.7
1
1 2 
41
0.75
7
W0$1
0
ENDBLK
0
BLOCK
2
PART_TOP_73
8
0
10
0
20
0
3
PART_TOP_73
70
64
0
INSERT
2
SYM_TOP_18
8
0
10
0
20
0
0
INSERT
2
PKG_15
8
0
10
0
20
0
0
TEXT
8
LABEL_INFO
10
-1.1
20
0.1999993333
40
0.56
1
0 324000000 0 0 0 1
50
180
41
0.75
7
W0$1
0
TEXT
8
LABEL_ATTRIBUTE
10
-1.1
20
0.1999993333
40
0.56
1
Ref.Des.
50
180
41
0.75
7
W0$1
0
TEXT
8
PART_NAME_01
10
-1.1
20
0.1999993333
40
0.56
1
ESD2
50
180
41
0.75
7
W0$1
0
TEXT
8
LABEL_INFO
10
-1.124
20
1.652
40
0.7
1
0 0 0 0 0 1
41
0.75
7
W0$1
0
TEXT
8
LABEL_ATTRIBUTE
10
-1.124
20
1.652
40
0.7
1
PartType
41
0.75
7
W0$1
0
TEXT
8
PART_TYPE_01
10
-1.124
20
1.652
40
0.7
1
ULCE0158A015
41
0.75
7
W0$1
0
TEXT
8
PART_INFO
10
-1.124
20
0.652
40
0.7
1
000001
41
0.75
7
W0$1
0
TEXT
8
PART_PTS
10
-1.124
20
-0.348
40
0.7
1
1 2 
41
0.75
7
W0$1
0
ENDBLK
0
BLOCK
2
PART_TOP_74
8
0
10
0
20
0
3
PART_TOP_74
70
64
0
INSERT
2
SYM_TOP_18
8
0
10
0
20
0
0
INSERT
2
PKG_15
8
0
10
0
20
0
0
TEXT
8
LABEL_INFO
10
1.2
20
0.7
40
0.56
1
0 486000000 0 0 0 1
50
270
41
0.75
7
W0$1
0
TEXT
8
LABEL_ATTRIBUTE
10
1.2
20
0.7
40
0.56
1
Ref.Des.
50
270
41
0.75
7
W0$1
0
TEXT
8
PART_NAME_01
10
1.2
20
0.7
40
0.56
1
ESD8
50
270
41
0.75
7
W0$1
0
TEXT
8
LABEL_INFO
10
-1.124
20
1.652
40
0.7
1
0 0 0 0 0 1
41
0.75
7
W0$1
0
TEXT
8
LABEL_ATTRIBUTE
10
-1.124
20
1.652
40
0.7
1
PartType
41
0.75
7
W0$1
0
TEXT
8
PART_TYPE_01
10
-1.124
20
1.652
40
0.7
1
ULCE0158A015
41
0.75
7
W0$1
0
TEXT
8
PART_INFO
10
-1.124
20
0.652
40
0.7
1
000001
41
0.75
7
W0$1
0
TEXT
8
PART_PTS
10
-1.124
20
-0.348
40
0.7
1
1 2 
41
0.75
7
W0$1
0
ENDBLK
0
BLOCK
2
PART_TOP_75
8
0
10
0
20
0
3
PART_TOP_75
70
64
0
INSERT
2
SYM_TOP_18
8
0
10
0
20
0
0
INSERT
2
PKG_15
8
0
10
0
20
0
0
TEXT
8
LABEL_INFO
10
0.0299993333
20
0.6
40
0.56
1
0 162000000 0 0 0 1
50
90
41
0.75
7
W0$1
0
TEXT
8
LABEL_ATTRIBUTE
10
0.0299993333
20
0.6
40
0.56
1
Ref.Des.
50
90
41
0.75
7
W0$1
0
TEXT
8
PART_NAME_01
10
0.0299993333
20
0.6
40
0.56
1
ESD7
50
90
41
0.75
7
W0$1
0
TEXT
8
LABEL_INFO
10
-1.124
20
1.652
40
0.7
1
0 0 0 0 0 1
41
0.75
7
W0$1
0
TEXT
8
LABEL_ATTRIBUTE
10
-1.124
20
1.652
40
0.7
1
PartType
41
0.75
7
W0$1
0
TEXT
8
PART_TYPE_01
10
-1.124
20
1.652
40
0.7
1
ULCE0158A015
41
0.75
7
W0$1
0
TEXT
8
PART_INFO
10
-1.124
20
0.652
40
0.7
1
000001
41
0.75
7
W0$1
0
TEXT
8
PART_PTS
10
-1.124
20
-0.348
40
0.7
1
1 2 
41
0.75
7
W0$1
0
ENDBLK
0
BLOCK
2
PART_TOP_76
8
0
10
0
20
0
3
PART_TOP_76
70
64
0
INSERT
2
SYM_TOP_18
8
0
10
0
20
0
0
INSERT
2
PKG_15
8
0
10
0
20
0
0
TEXT
8
LABEL_INFO
10
-2.61
20
-0.26
40
0.56
1
0 0 0 0 0 1
41
0.75
7
W0$1
0
TEXT
8
LABEL_ATTRIBUTE
10
-2.61
20
-0.26
40
0.56
1
Ref.Des.
41
0.75
7
W0$1
0
TEXT
8
PART_NAME_01
10
-2.61
20
-0.26
40
0.56
1
ESD5
41
0.75
7
W0$1
0
TEXT
8
LABEL_INFO
10
-1.124
20
1.652
40
0.7
1
0 0 0 0 0 1
41
0.75
7
W0$1
0
TEXT
8
LABEL_ATTRIBUTE
10
-1.124
20
1.652
40
0.7
1
PartType
41
0.75
7
W0$1
0
TEXT
8
PART_TYPE_01
10
-1.124
20
1.652
40
0.7
1
ULCE0158A015
41
0.75
7
W0$1
0
TEXT
8
PART_INFO
10
-1.124
20
0.652
40
0.7
1
000001
41
0.75
7
W0$1
0
TEXT
8
PART_PTS
10
-1.124
20
-0.348
40
0.7
1
1 2 
41
0.75
7
W0$1
0
ENDBLK
0
BLOCK
2
PART_TOP_77
8
0
10
0
20
0
3
PART_TOP_77
70
64
0
INSERT
2
SYM_TOP_18
8
0
10
0
20
0
0
INSERT
2
PKG_15
8
0
10
0
20
0
0
TEXT
8
LABEL_INFO
10
-2.6
20
-0.2
40
0.56
1
0 0 0 0 0 1
41
0.75
7
W0$1
0
TEXT
8
LABEL_ATTRIBUTE
10
-2.6
20
-0.2
40
0.56
1
Ref.Des.
41
0.75
7
W0$1
0
TEXT
8
PART_NAME_01
10
-2.6
20
-0.2
40
0.56
1
ESD4
41
0.75
7
W0$1
0
TEXT
8
LABEL_INFO
10
-1.124
20
1.652
40
0.7
1
0 0 0 0 0 1
41
0.75
7
W0$1
0
TEXT
8
LABEL_ATTRIBUTE
10
-1.124
20
1.652
40
0.7
1
PartType
41
0.75
7
W0$1
0
TEXT
8
PART_TYPE_01
10
-1.124
20
1.652
40
0.7
1
ULCE0158A015
41
0.75
7
W0$1
0
TEXT
8
PART_INFO
10
-1.124
20
0.652
40
0.7
1
000001
41
0.75
7
W0$1
0
TEXT
8
PART_PTS
10
-1.124
20
-0.348
40
0.7
1
1 2 
41
0.75
7
W0$1
0
ENDBLK
0
BLOCK
2
PART_TOP_78
8
0
10
0
20
0
3
PART_TOP_78
70
64
0
INSERT
2
SYM_TOP_18
8
0
10
0
20
0
0
INSERT
2
PKG_15
8
0
10
0
20
0
0
TEXT
8
LABEL_INFO
10
-0.6
20
0.9999993333
40
0.56
1
0 162000000 0 0 0 1
50
90
41
0.75
7
W0$1
0
TEXT
8
LABEL_ATTRIBUTE
10
-0.6
20
0.9999993333
40
0.56
1
Ref.Des.
50
90
41
0.75
7
W0$1
0
TEXT
8
PART_NAME_01
10
-0.6
20
0.9999993333
40
0.56
1
ESD3
50
90
41
0.75
7
W0$1
0
TEXT
8
LABEL_INFO
10
-1.124
20
1.652
40
0.7
1
0 0 0 0 0 1
41
0.75
7
W0$1
0
TEXT
8
LABEL_ATTRIBUTE
10
-1.124
20
1.652
40
0.7
1
PartType
41
0.75
7
W0$1
0
TEXT
8
PART_TYPE_01
10
-1.124
20
1.652
40
0.7
1
ULCE0158A015
41
0.75
7
W0$1
0
TEXT
8
PART_INFO
10
-1.124
20
0.652
40
0.7
1
000001
41
0.75
7
W0$1
0
TEXT
8
PART_PTS
10
-1.124
20
-0.348
40
0.7
1
1 2 
41
0.75
7
W0$1
0
ENDBLK
0
BLOCK
2
PART_TOP_79
8
0
10
0
20
0
3
PART_TOP_79
70
64
0
INSERT
2
SYM_TOP_9
8
0
10
0
20
0
0
INSERT
2
PKG_7
8
0
10
0
20
0
0
TEXT
8
LABEL_INFO
10
-1.1
20
-0.1
40
0.56
1
0 324000000 0 0 0 1
50
180
41
0.75
7
W0$1
0
TEXT
8
LABEL_ATTRIBUTE
10
-1.1
20
-0.1
40
0.56
1
Ref.Des.
50
180
41
0.75
7
W0$1
0
TEXT
8
PART_NAME_01
10
-1.1
20
-0.1
40
0.56
1
R10
50
180
41
0.75
7
W0$1
0
TEXT
8
LABEL_INFO
10
-1.124
20
1.652
40
0.7
1
0 0 0 0 0 1
41
0.75
7
W0$1
0
TEXT
8
LABEL_ATTRIBUTE
10
-1.124
20
1.652
40
0.7
1
PartType
41
0.75
7
W0$1
0
TEXT
8
PART_TYPE_01
10
-1.124
20
1.652
40
0.7
1
R_1005
41
0.75
7
W0$1
0
TEXT
8
PART_INFO
10
-1.124
20
0.652
40
0.7
1
000000
41
0.75
7
W0$1
0
TEXT
8
PART_PTS
10
-1.124
20
-0.348
40
0.7
1
1 2 
41
0.75
7
W0$1
0
ENDBLK
0
BLOCK
2
PART_TOP_80
8
0
10
0
20
0
3
PART_TOP_80
70
64
0
INSERT
2
SYM_TOP_18
8
0
10
0
20
0
0
INSERT
2
PKG_15
8
0
10
0
20
0
0
TEXT
8
LABEL_INFO
10
0.6
20
-2.1
40
0.56
1
0 324000000 0 0 0 1
50
180
41
0.75
7
W0$1
0
TEXT
8
LABEL_ATTRIBUTE
10
0.6
20
-2.1
40
0.56
1
Ref.Des.
50
180
41
0.75
7
W0$1
0
TEXT
8
PART_NAME_01
10
0.6
20
-2.1
40
0.56
1
ESD6
50
180
41
0.75
7
W0$1
0
TEXT
8
LABEL_INFO
10
-1.124
20
1.652
40
0.7
1
0 0 0 0 0 1
41
0.75
7
W0$1
0
TEXT
8
LABEL_ATTRIBUTE
10
-1.124
20
1.652
40
0.7
1
PartType
41
0.75
7
W0$1
0
TEXT
8
PART_TYPE_01
10
-1.124
20
1.652
40
0.7
1
ULCE0158A015
41
0.75
7
W0$1
0
TEXT
8
PART_INFO
10
-1.124
20
0.652
40
0.7
1
000001
41
0.75
7
W0$1
0
TEXT
8
PART_PTS
10
-1.124
20
-0.348
40
0.7
1
1 2 
41
0.75
7
W0$1
0
ENDBLK
0
BLOCK
2
PART_TOP_81
8
0
10
0
20
0
3
PART_TOP_81
70
64
0
INSERT
2
SYM_TOP_8
8
0
10
0
20
0
0
INSERT
2
PKG_6
8
0
10
0
20
0
0
TEXT
8
LABEL_INFO
10
-1.124
20
1.652
40
0.7
1
0 0 0 0 0 1
41
0.75
7
W0$1
0
TEXT
8
LABEL_ATTRIBUTE
10
-1.124
20
1.652
40
0.7
1
PartType
41
0.75
7
W0$1
0
TEXT
8
PART_TYPE_01
10
-1.124
20
1.652
40
0.7
1
L_1005
41
0.75
7
W0$1
0
TEXT
8
LABEL_INFO
10
0.4999993333
20
1.3
40
0.56
1
0 324000000 0 0 0 1
50
180
41
0.75
7
W0$1
0
TEXT
8
LABEL_ATTRIBUTE
10
0.4999993333
20
1.3
40
0.56
1
Ref.Des.
50
180
41
0.75
7
W0$1
0
TEXT
8
PART_NAME_01
10
0.4999993333
20
1.3
40
0.56
1
L3
50
180
41
0.75
7
W0$1
0
TEXT
8
PART_INFO
10
0.4999993333
20
0.5
40
0.56
1
000000
50
180
41
0.75
7
W0$1
0
TEXT
8
PART_PTS
10
0.4999993333
20
-0.3
40
0.56
1
1 2 
50
180
41
0.75
7
W0$1
0
ENDBLK
0
BLOCK
2
PART_TOP_82
8
0
10
0
20
0
3
PART_TOP_82
70
64
0
INSERT
2
SYM_TOP_19
8
0
10
0
20
0
0
INSERT
2
PKG_16
8
0
10
0
20
0
0
TEXT
8
LABEL_INFO
10
-5.012
20
0.674
40
1.0668
1
0 0 0 0 0 1
41
0.75
7
W0$254
0
TEXT
8
LABEL_ATTRIBUTE
10
-5.012
20
0.674
40
1.0668
1
PartType
41
0.75
7
W0$254
0
TEXT
8
PART_TYPE_01
10
-5.012
20
0.674
40
1.0668
1
Q_2SC4617(EMT3_H0.7)
41
0.75
7
W0$254
0
TEXT
8
LABEL_INFO
10
-0.9
20
-0.4
40
0.56
1
0 324000000 0 0 0 1
50
180
41
0.75
7
W0$1
0
TEXT
8
LABEL_ATTRIBUTE
10
-0.9
20
-0.4
40
0.56
1
Ref.Des.
50
180
41
0.75
7
W0$1
0
TEXT
8
PART_NAME_01
10
-0.9
20
-0.4
40
0.56
1
Q2
50
180
41
0.75
7
W0$1
0
TEXT
8
PART_INFO
10
-0.9
20
-1.2
40
0.56
1
000000
50
180
41
0.75
7
W0$1
0
TEXT
8
PART_PTS
10
-0.9
20
-2
40
0.56
1
1 2 3 
50
180
41
0.75
7
W0$1
0
ENDBLK
0
BLOCK
2
PART_TOP_83
8
0
10
0
20
0
3
PART_TOP_83
70
64
0
INSERT
2
SYM_TOP_19
8
0
10
0
20
0
0
INSERT
2
PKG_16
8
0
10
0
20
0
0
TEXT
8
LABEL_INFO
10
-5.012
20
0.674
40
1.0668
1
0 0 0 0 0 1
41
0.75
7
W0$254
0
TEXT
8
LABEL_ATTRIBUTE
10
-5.012
20
0.674
40
1.0668
1
PartType
41
0.75
7
W0$254
0
TEXT
8
PART_TYPE_01
10
-5.012
20
0.674
40
1.0668
1
Q_2SC4617(EMT3_H0.7)
41
0.75
7
W0$254
0
TEXT
8
LABEL_INFO
10
-0.3
20
-2.4
40
0.56
1
0 0 0 0 0 1
41
0.75
7
W0$1
0
TEXT
8
LABEL_ATTRIBUTE
10
-0.3
20
-2.4
40
0.56
1
Ref.Des.
41
0.75
7
W0$1
0
TEXT
8
PART_NAME_01
10
-0.3
20
-2.4
40
0.56
1
Q3
41
0.75
7
W0$1
0
TEXT
8
PART_INFO
10
-0.3
20
-3.2
40
0.56
1
000000
41
0.75
7
W0$1
0
TEXT
8
PART_PTS
10
-0.3
20
-4
40
0.56
1
1 2 3 
41
0.75
7
W0$1
0
ENDBLK
0
BLOCK
2
PART_TOP_84
8
0
10
0
20
0
3
PART_TOP_84
70
64
0
INSERT
2
SYM_TOP_9
8
0
10
0
20
0
0
INSERT
2
PKG_7
8
0
10
0
20
0
0
TEXT
8
LABEL_INFO
10
0.7999993333
20
1.6
40
0.56
1
0 324000000 0 0 0 1
50
180
41
0.75
7
W0$1
0
TEXT
8
LABEL_ATTRIBUTE
10
0.7999993333
20
1.6
40
0.56
1
Ref.Des.
50
180
41
0.75
7
W0$1
0
TEXT
8
PART_NAME_01
10
0.7999993333
20
1.6
40
0.56
1
R29
50
180
41
0.75
7
W0$1
0
TEXT
8
LABEL_INFO
10
-1.124
20
1.652
40
0.7
1
0 0 0 0 0 1
41
0.75
7
W0$1
0
TEXT
8
LABEL_ATTRIBUTE
10
-1.124
20
1.652
40
0.7
1
PartType
41
0.75
7
W0$1
0
TEXT
8
PART_TYPE_01
10
-1.124
20
1.652
40
0.7
1
R_1005
41
0.75
7
W0$1
0
TEXT
8
PART_INFO
10
-1.124
20
0.652
40
0.7
1
000000
41
0.75
7
W0$1
0
TEXT
8
PART_PTS
10
-1.124
20
-0.348
40
0.7
1
1 2 
41
0.75
7
W0$1
0
ENDBLK
0
BLOCK
2
PART_TOP_85
8
0
10
0
20
0
3
PART_TOP_85
70
64
0
INSERT
2
SYM_TOP_9
8
0
10
0
20
0
0
INSERT
2
PKG_7
8
0
10
0
20
0
0
TEXT
8
LABEL_INFO
10
-1.5
20
0.0999993333
40
0.56
1
0 324000000 0 0 0 1
50
180
41
0.75
7
W0$1
0
TEXT
8
LABEL_ATTRIBUTE
10
-1.5
20
0.0999993333
40
0.56
1
Ref.Des.
50
180
41
0.75
7
W0$1
0
TEXT
8
PART_NAME_01
10
-1.5
20
0.0999993333
40
0.56
1
R30
50
180
41
0.75
7
W0$1
0
TEXT
8
LABEL_INFO
10
-1.124
20
1.652
40
0.7
1
0 0 0 0 0 1
41
0.75
7
W0$1
0
TEXT
8
LABEL_ATTRIBUTE
10
-1.124
20
1.652
40
0.7
1
PartType
41
0.75
7
W0$1
0
TEXT
8
PART_TYPE_01
10
-1.124
20
1.652
40
0.7
1
R_1005
41
0.75
7
W0$1
0
TEXT
8
PART_INFO
10
-1.124
20
0.652
40
0.7
1
000000
41
0.75
7
W0$1
0
TEXT
8
PART_PTS
10
-1.124
20
-0.348
40
0.7
1
1 2 
41
0.75
7
W0$1
0
ENDBLK
0
BLOCK
2
PART_TOP_86
8
0
10
0
20
0
3
PART_TOP_86
70
64
0
INSERT
2
SYM_TOP_9
8
0
10
0
20
0
0
INSERT
2
PKG_7
8
0
10
0
20
0
0
TEXT
8
LABEL_INFO
10
-0.2999993333
20
-0.6
40
0.56
1
0 486000000 0 0 0 1
50
270
41
0.75
7
W0$1
0
TEXT
8
LABEL_ATTRIBUTE
10
-0.2999993333
20
-0.6
40
0.56
1
Ref.Des.
50
270
41
0.75
7
W0$1
0
TEXT
8
PART_NAME_01
10
-0.2999993333
20
-0.6
40
0.56
1
R31
50
270
41
0.75
7
W0$1
0
TEXT
8
LABEL_INFO
10
-1.124
20
1.652
40
0.7
1
0 0 0 0 0 1
41
0.75
7
W0$1
0
TEXT
8
LABEL_ATTRIBUTE
10
-1.124
20
1.652
40
0.7
1
PartType
41
0.75
7
W0$1
0
TEXT
8
PART_TYPE_01
10
-1.124
20
1.652
40
0.7
1
R_1005
41
0.75
7
W0$1
0
TEXT
8
PART_INFO
10
-1.124
20
0.652
40
0.7
1
000000
41
0.75
7
W0$1
0
TEXT
8
PART_PTS
10
-1.124
20
-0.348
40
0.7
1
1 2 
41
0.75
7
W0$1
0
ENDBLK
0
BLOCK
2
PART_TOP_87
8
0
10
0
20
0
3
PART_TOP_87
70
64
0
INSERT
2
SYM_TOP_9
8
0
10
0
20
0
0
INSERT
2
PKG_7
8
0
10
0
20
0
0
TEXT
8
LABEL_INFO
10
-2.2
20
0.4999993333
40
0.56
1
0 486000000 0 0 0 1
50
270
41
0.75
7
W0$1
0
TEXT
8
LABEL_ATTRIBUTE
10
-2.2
20
0.4999993333
40
0.56
1
Ref.Des.
50
270
41
0.75
7
W0$1
0
TEXT
8
PART_NAME_01
10
-2.2
20
0.4999993333
40
0.56
1
R32
50
270
41
0.75
7
W0$1
0
TEXT
8
LABEL_INFO
10
-1.124
20
1.652
40
0.7
1
0 0 0 0 0 1
41
0.75
7
W0$1
0
TEXT
8
LABEL_ATTRIBUTE
10
-1.124
20
1.652
40
0.7
1
PartType
41
0.75
7
W0$1
0
TEXT
8
PART_TYPE_01
10
-1.124
20
1.652
40
0.7
1
R_1005
41
0.75
7
W0$1
0
TEXT
8
PART_INFO
10
-1.124
20
0.652
40
0.7
1
000000
41
0.75
7
W0$1
0
TEXT
8
PART_PTS
10
-1.124
20
-0.348
40
0.7
1
1 2 
41
0.75
7
W0$1
0
ENDBLK
0
BLOCK
2
PART_TOP_88
8
0
10
0
20
0
3
PART_TOP_88
70
64
0
INSERT
2
SYM_TOP_9
8
0
10
0
20
0
0
INSERT
2
PKG_7
8
0
10
0
20
0
0
TEXT
8
LABEL_INFO
10
1.4
20
0.6
40
0.56
1
0 486000000 0 0 0 1
50
270
41
0.75
7
W0$1
0
TEXT
8
LABEL_ATTRIBUTE
10
1.4
20
0.6
40
0.56
1
Ref.Des.
50
270
41
0.75
7
W0$1
0
TEXT
8
PART_NAME_01
10
1.4
20
0.6
40
0.56
1
R33
50
270
41
0.75
7
W0$1
0
TEXT
8
LABEL_INFO
10
-1.124
20
1.652
40
0.7
1
0 0 0 0 0 1
41
0.75
7
W0$1
0
TEXT
8
LABEL_ATTRIBUTE
10
-1.124
20
1.652
40
0.7
1
PartType
41
0.75
7
W0$1
0
TEXT
8
PART_TYPE_01
10
-1.124
20
1.652
40
0.7
1
R_1005
41
0.75
7
W0$1
0
TEXT
8
PART_INFO
10
-1.124
20
0.652
40
0.7
1
000000
41
0.75
7
W0$1
0
TEXT
8
PART_PTS
10
-1.124
20
-0.348
40
0.7
1
1 2 
41
0.75
7
W0$1
0
ENDBLK
0
BLOCK
2
PART_TOP_89
8
0
10
0
20
0
3
PART_TOP_89
70
64
0
INSERT
2
SYM_TOP_20
8
0
10
0
20
0
0
INSERT
2
PKG_17
8
0
10
0
20
0
0
TEXT
8
LABEL_INFO
10
-0.9
20
-2.8
40
0.7
1
0 0 0 0 0 1
41
0.75
7
W0$1
0
TEXT
8
LABEL_ATTRIBUTE
10
-0.9
20
-2.8
40
0.7
1
PartType
41
0.75
7
W0$1
0
TEXT
8
PART_TYPE_01
10
-0.9
20
-2.8
40
0.7
1
RV2C010UNT2L
41
0.75
7
W0$1
0
TEXT
8
LABEL_INFO
10
-0.8
20
0.4999993333
40
0.7
1
0 324000000 0 0 0 1
50
180
41
0.75
7
W0$1
0
TEXT
8
LABEL_ATTRIBUTE
10
-0.8
20
0.4999993333
40
0.7
1
Ref.Des.
50
180
41
0.75
7
W0$1
0
TEXT
8
PART_NAME_01
10
-0.8
20
0.4999993333
40
0.7
1
Q1
50
180
41
0.75
7
W0$1
0
TEXT
8
PART_INFO
10
-0.8
20
-0.5000006667
40
0.7
1
000000
50
180
41
0.75
7
W0$1
0
TEXT
8
PART_PTS
10
-0.8
20
-1.5000006667
40
0.7
1
1 2 3 
50
180
41
0.75
7
W0$1
0
ENDBLK
0
BLOCK
2
SYM_TOP_2
8
0
10
0
20
0
3
SYM_TOP_2
70
64
0
TEXT
8
SYM_NAME
10
0
20
0
40
1.778
1
C_1005
41
0.75
0
TEXT
8
SYM_PART_NAME_01
10
-1.117
20
0.778
40
0.7
1
 
41
0.75
7
W0$1R0
0
TEXT
8
SYM_PART_TYPE_01
10
-1.124
20
1.652
40
0.7
1
 
41
0.75
7
W0$1R0
0
INSERT
2
PART_BODY_TOP_2
8
0
10
0
20
0
0
INSERT
2
STK_TOP_5
8
0
10
-0.45
20
0
0
TEXT
8
SYM_TERMINAL
10
0
20
-3.048
40
1.778
1
1
0
INSERT
2
STK_TOP_5
8
0
10
0.45
20
0
0
TEXT
8
SYM_TERMINAL
10
0
20
-6.096
40
1.778
1
2
0
ENDBLK
0
BLOCK
2
PKG_0
8
0
10
0
20
0
3
PKG_0
70
64
0
TEXT
8
PKG_INFO
10
0
20
0
40
1.778
1
*SYM:= 2
0
TEXT
8
PKG_INFO
10
0
20
-3.048
40
1.778
1
*PKG:= 0 C_1005 UND
0
ENDBLK
0
BLOCK
2
SYM_TOP_3
8
0
10
0
20
0
3
SYM_TOP_3
70
64
0
TEXT
8
SYM_NAME
10
0
20
0
40
1.778
1
C_0201
41
0.75
0
TEXT
8
SYM_PART_TYPE_01
10
-1.124
20
1.652
40
0.7
1
 
41
0.75
7
W0$1R0
0
TEXT
8
SYM_PART_NAME_01
10
-1.117
20
0.778
40
0.7
1
 
41
0.75
7
W0$1R0
0
INSERT
2
PART_BODY_TOP_3
8
0
10
0
20
0
0
INSERT
2
STK_TOP_4
8
0
10
-0.3
20
0
0
TEXT
8
SYM_TERMINAL
10
0
20
-3.048
40
1.778
1
1
0
INSERT
2
STK_TOP_4
8
0
10
0.3
20
0
0
TEXT
8
SYM_TERMINAL
10
0
20
-6.096
40
1.778
1
2
0
ENDBLK
0
BLOCK
2
PKG_1
8
0
10
0
20
0
3
PKG_1
70
64
0
TEXT
8
PKG_INFO
10
0
20
0
40
1.778
1
*SYM:= 3
0
TEXT
8
PKG_INFO
10
0
20
-3.048
40
1.778
1
*PKG:= 0 C_0201 UND
0
TEXT
8
PKG_INFO
10
0
20
-6.096
40
1.778
1
*GATE:=0
0
TEXT
8
PKG_INFO
10
0
20
-9.144
40
1.778
1
*GATEPIN:= 0 9 1 <>
0
TEXT
8
PKG_INFO
10
0
20
-12.192
40
1.778
1
*GATEPIN:= 0 9 2 <>
0
ENDBLK
0
BLOCK
2
SYM_TOP_4
8
0
10
0
20
0
3
SYM_TOP_4
70
64
0
TEXT
8
SYM_NAME
10
0
20
0
40
1.778
1
C_3225
41
0.75
0
TEXT
8
SYM_PART_NAME_01
10
0.05
20
2.3
40
0.889
1
 
72
1
73
1
11
0.05
21
2.3
41
0.75
7
W0$12R1
0
TEXT
8
SYM_PART_TYPE_01
10
-0.05
20
2.3
40
0.889
1
 
72
1
73
1
11
-0.05
21
2.3
41
0.75
7
W0$12R1
0
INSERT
2
PART_BODY_TOP_4
8
0
10
0
20
0
0
INSERT
2
STK_TOP_48
8
0
10
-1.4
20
0
0
TEXT
8
SYM_TERMINAL
10
0
20
-3.048
40
1.778
1
1
0
INSERT
2
STK_TOP_48
8
0
10
1.4
20
0
0
TEXT
8
SYM_TERMINAL
10
0
20
-6.096
40
1.778
1
2
0
ENDBLK
0
BLOCK
2
PKG_2
8
0
10
0
20
0
3
PKG_2
70
64
0
TEXT
8
PKG_INFO
10
0
20
0
40
1.778
1
*SYM:= 4
0
TEXT
8
PKG_INFO
10
0
20
-3.048
40
1.778
1
*PKG:= 0 C_3225 UND
0
ENDBLK
0
BLOCK
2
SYM_TOP_5
8
0
10
0
20
0
3
SYM_TOP_5
70
64
0
TEXT
8
SYM_NAME
10
0
20
0
40
1.778
1
D_BAT54C(SOT23_H1.1)
41
0.75
0
TEXT
8
SYM_PART_NAME_01
10
-0.95
20
2
40
0.7
1
 
41
0.75
7
W0$1R0
0
TEXT
8
SYM_PART_TYPE_01
10
-0.9
20
-2.8
40
0.7
1
 
41
0.75
7
W0$1R0
0
INSERT
2
PART_BODY_TOP_5
8
0
10
0
20
0
0
INSERT
2
STK_TOP_37
8
0
10
-0.9575
20
-1.2
0
TEXT
8
SYM_TERMINAL
10
0
20
-3.048
40
1.778
1
1
0
INSERT
2
STK_TOP_37
8
0
10
0.9575
20
-1.2
0
TEXT
8
SYM_TERMINAL
10
0
20
-6.096
40
1.778
1
2
0
INSERT
2
STK_TOP_37
8
0
10
0
20
1.2
0
TEXT
8
SYM_TERMINAL
10
0
20
-9.144
40
1.778
1
3
0
ENDBLK
0
BLOCK
2
PKG_3
8
0
10
0
20
0
3
PKG_3
70
64
0
TEXT
8
PKG_INFO
10
0
20
0
40
1.778
1
*SYM:= 5
0
TEXT
8
PKG_INFO
10
0
20
-3.048
40
1.778
1
*PKG:= 0 D_BAT54C(SOT23_H1.1) UND
0
ENDBLK
0
BLOCK
2
SYM_TOP_6
8
0
10
0
20
0
3
SYM_TOP_6
70
64
0
TEXT
8
SYM_NAME
10
0
20
0
40
1.778
1
B5819WS
41
0.75
0
TEXT
8
SYM_PART_TYPE_01
10
-1.778
20
3.81
40
1.778
1
 
73
2
11
-1.778
21
3.81
41
0.75
7
W0$254R0
0
TEXT
8
SYM_PART_NAME_01
10
-1.778
20
3.81
40
1.778
1
 
41
0.75
7
W0$254R0
0
INSERT
2
PART_BODY_TOP_6
8
0
10
0
20
0
0
INSERT
2
STK_TOP_23
8
0
10
1.425
20
0
0
TEXT
8
SYM_TERMINAL
10
0
20
-3.048
40
1.778
1
1
0
INSERT
2
STK_TOP_23
8
0
10
-1.425
20
0
0
TEXT
8
SYM_TERMINAL
10
0
20
-6.096
40
1.778
1
2
0
ENDBLK
0
BLOCK
2
PKG_4
8
0
10
0
20
0
3
PKG_4
70
64
0
TEXT
8
PKG_INFO
10
0
20
0
40
1.778
1
*SYM:= 6
0
TEXT
8
PKG_INFO
10
0
20
-3.048
40
1.778
1
*PKG:= 0 B5819WS UND
0
TEXT
8
PKG_INFO
10
0
20
-6.096
40
1.778
1
*GATE:=0
0
TEXT
8
PKG_INFO
10
0
20
-9.144
40
1.778
1
*GATEPIN:= 0 9 1 <>
0
TEXT
8
PKG_INFO
10
0
20
-12.192
40
1.778
1
*GATEPIN:= 0 9 2 <>
0
ENDBLK
0
BLOCK
2
SYM_TOP_7
8
0
10
0
20
0
3
SYM_TOP_7
70
64
0
TEXT
8
SYM_NAME
10
0
20
0
40
1.778
1
2.54MM_16PIN
41
0.75
0
TEXT
8
SYM_PART_NAME_01
10
0
20
0
40
0.889
1
 
41
0.75
7
W0$127R0
0
TEXT
8
SYM_PART_TYPE_01
10
0
20
0
40
0.889
1
 
73
2
11
0
21
0
41
0.75
7
W0$127R0
0
INSERT
2
PART_BODY_TOP_7
8
0
10
0
20
0
0
INSERT
2
STK_TOP_11
8
0
10
0
20
0
0
TEXT
8
SYM_TERMINAL
10
0
20
-3.048
40
1.778
1
1
0
INSERT
2
STK_TOP_11
8
0
10
2.54
20
0
0
TEXT
8
SYM_TERMINAL
10
0
20
-6.096
40
1.778
1
2
0
INSERT
2
STK_TOP_11
8
0
10
5.08
20
0
0
TEXT
8
SYM_TERMINAL
10
0
20
-9.144
40
1.778
1
3
0
INSERT
2
STK_TOP_11
8
0
10
7.62
20
0
0
TEXT
8
SYM_TERMINAL
10
0
20
-12.192
40
1.778
1
4
0
INSERT
2
STK_TOP_11
8
0
10
10.16
20
0
0
TEXT
8
SYM_TERMINAL
10
0
20
-15.24
40
1.778
1
5
0
INSERT
2
STK_TOP_11
8
0
10
12.7
20
0
0
TEXT
8
SYM_TERMINAL
10
0
20
-18.288
40
1.778
1
6
0
INSERT
2
STK_TOP_11
8
0
10
15.24
20
0
0
TEXT
8
SYM_TERMINAL
10
0
20
-21.336
40
1.778
1
7
0
INSERT
2
STK_TOP_11
8
0
10
17.78
20
0
0
TEXT
8
SYM_TERMINAL
10
0
20
-24.384
40
1.778
1
8
0
INSERT
2
STK_TOP_11
8
0
10
20.32
20
0
0
TEXT
8
SYM_TERMINAL
10
0
20
-27.432
40
1.778
1
9
0
INSERT
2
STK_TOP_11
8
0
10
22.86
20
0
0
TEXT
8
SYM_TERMINAL
10
0
20
-30.48
40
1.778
1
10
0
INSERT
2
STK_TOP_11
8
0
10
25.4
20
0
0
TEXT
8
SYM_TERMINAL
10
0
20
-33.528
40
1.778
1
11
0
INSERT
2
STK_TOP_11
8
0
10
27.94
20
0
0
TEXT
8
SYM_TERMINAL
10
0
20
-36.576
40
1.778
1
12
0
INSERT
2
STK_TOP_11
8
0
10
30.48
20
0
0
TEXT
8
SYM_TERMINAL
10
0
20
-39.624
40
1.778
1
13
0
INSERT
2
STK_TOP_11
8
0
10
33.02
20
0
0
TEXT
8
SYM_TERMINAL
10
0
20
-42.672
40
1.778
1
14
0
INSERT
2
STK_TOP_11
8
0
10
35.56
20
0
0
TEXT
8
SYM_TERMINAL
10
0
20
-45.72
40
1.778
1
15
0
INSERT
2
STK_TOP_11
8
0
10
38.1
20
0
0
TEXT
8
SYM_TERMINAL
10
0
20
-48.768
40
1.778
1
16
0
ENDBLK
0
BLOCK
2
PKG_5
8
0
10
0
20
0
3
PKG_5
70
64
0
TEXT
8
PKG_INFO
10
0
20
0
40
1.778
1
*SYM:= 7
0
TEXT
8
PKG_INFO
10
0
20
-3.048
40
1.778
1
*PKG:= 0 2.54MM_16PIN UND
0
TEXT
8
PKG_INFO
10
0
20
-6.096
40
1.778
1
*GATE:=0
0
TEXT
8
PKG_INFO
10
0
20
-9.144
40
1.778
1
*GATEPIN:= 0 9 1 <>
0
TEXT
8
PKG_INFO
10
0
20
-12.192
40
1.778
1
*GATEPIN:= 0 9 2 <>
0
TEXT
8
PKG_INFO
10
0
20
-15.24
40
1.778
1
*GATEPIN:= 0 9 3 <>
0
TEXT
8
PKG_INFO
10
0
20
-18.288
40
1.778
1
*GATEPIN:= 0 9 4 <>
0
TEXT
8
PKG_INFO
10
0
20
-21.336
40
1.778
1
*GATEPIN:= 0 9 5 <>
0
TEXT
8
PKG_INFO
10
0
20
-24.384
40
1.778
1
*GATEPIN:= 0 9 6 <>
0
TEXT
8
PKG_INFO
10
0
20
-27.432
40
1.778
1
*GATEPIN:= 0 9 7 <>
0
TEXT
8
PKG_INFO
10
0
20
-30.48
40
1.778
1
*GATEPIN:= 0 9 8 <>
0
TEXT
8
PKG_INFO
10
0
20
-33.528
40
1.778
1
*GATEPIN:= 0 9 9 <>
0
TEXT
8
PKG_INFO
10
0
20
-36.576
40
1.778
1
*GATEPIN:= 0 9 10 <>
0
TEXT
8
PKG_INFO
10
0
20
-39.624
40
1.778
1
*GATEPIN:= 0 9 11 <>
0
TEXT
8
PKG_INFO
10
0
20
-42.672
40
1.778
1
*GATEPIN:= 0 9 12 <>
0
TEXT
8
PKG_INFO
10
0
20
-45.72
40
1.778
1
*GATEPIN:= 0 9 13 <>
0
TEXT
8
PKG_INFO
10
0
20
-48.768
40
1.778
1
*GATEPIN:= 0 9 14 <>
0
TEXT
8
PKG_INFO
10
0
20
-51.816
40
1.778
1
*GATEPIN:= 0 9 15 <>
0
TEXT
8
PKG_INFO
10
0
20
-54.864
40
1.778
1
*GATEPIN:= 0 9 16 <>
0
ENDBLK
0
BLOCK
2
SYM_TOP_8
8
0
10
0
20
0
3
SYM_TOP_8
70
64
0
TEXT
8
SYM_NAME
10
0
20
0
40
1.778
1
L_1005
41
0.75
0
TEXT
8
SYM_PART_TYPE_01
10
-1.124
20
1.652
40
0.7
1
 
41
0.75
7
W0$1R0
0
TEXT
8
SYM_PART_NAME_01
10
-1.117
20
0.778
40
0.7
1
 
41
0.75
7
W0$1R0
0
INSERT
2
PART_BODY_TOP_8
8
0
10
0
20
0
0
INSERT
2
STK_TOP_5
8
0
10
-0.45
20
0
0
TEXT
8
SYM_TERMINAL
10
0
20
-3.048
40
1.778
1
1
0
INSERT
2
STK_TOP_5
8
0
10
0.45
20
0
0
TEXT
8
SYM_TERMINAL
10
0
20
-6.096
40
1.778
1
2
0
ENDBLK
0
BLOCK
2
PKG_6
8
0
10
0
20
0
3
PKG_6
70
64
0
TEXT
8
PKG_INFO
10
0
20
0
40
1.778
1
*SYM:= 8
0
TEXT
8
PKG_INFO
10
0
20
-3.048
40
1.778
1
*PKG:= 0 L_1005 UND
0
ENDBLK
0
BLOCK
2
SYM_TOP_9
8
0
10
0
20
0
3
SYM_TOP_9
70
64
0
TEXT
8
SYM_NAME
10
0
20
0
40
1.778
1
R_1005
41
0.75
0
TEXT
8
SYM_PART_NAME_01
10
-1.117
20
0.778
40
0.7
1
 
41
0.75
7
W0$1R0
0
TEXT
8
SYM_PART_TYPE_01
10
-1.124
20
1.652
40
0.7
1
 
41
0.75
7
W0$1R0
0
INSERT
2
PART_BODY_TOP_9
8
0
10
0
20
0
0
INSERT
2
STK_TOP_5
8
0
10
-0.45
20
0
0
TEXT
8
SYM_TERMINAL
10
0
20
-3.048
40
1.778
1
1
0
INSERT
2
STK_TOP_5
8
0
10
0.45
20
0
0
TEXT
8
SYM_TERMINAL
10
0
20
-6.096
40
1.778
1
2
0
ENDBLK
0
BLOCK
2
PKG_7
8
0
10
0
20
0
3
PKG_7
70
64
0
TEXT
8
PKG_INFO
10
0
20
0
40
1.778
1
*SYM:= 9
0
TEXT
8
PKG_INFO
10
0
20
-3.048
40
1.778
1
*PKG:= 0 R_1005 UND
0
ENDBLK
0
BLOCK
2
SYM_TOP_10
8
0
10
0
20
0
3
SYM_TOP_10
70
64
0
TEXT
8
SYM_NAME
10
0
20
0
40
1.778
1
TP
41
0.75
0
TEXT
8
SYM_PART_TYPE_01
10
-1.124
20
1.652
40
0.7
1
 
41
0.75
7
W0$1R0
0
INSERT
2
PART_BODY_TOP_10
8
0
10
0
20
0
0
INSERT
2
STK_TOP_25
8
0
10
0
20
0
0
TEXT
8
SYM_TERMINAL
10
0
20
-3.048
40
1.778
1
1
0
ENDBLK
0
BLOCK
2
PKG_8
8
0
10
0
20
0
3
PKG_8
70
64
0
TEXT
8
PKG_INFO
10
0
20
0
40
1.778
1
*SYM:= 10
0
TEXT
8
PKG_INFO
10
0
20
-3.048
40
1.778
1
*PKG:= 0 TP UND
0
TEXT
8
PKG_INFO
10
0
20
-6.096
40
1.778
1
*GATE:=0
0
TEXT
8
PKG_INFO
10
0
20
-9.144
40
1.778
1
*GATEPIN:= 0 9 1 <>
0
ENDBLK
0
BLOCK
2
SYM_TOP_11
8
0
10
0
20
0
3
SYM_TOP_11
70
64
0
TEXT
8
SYM_NAME
10
0
20
0
40
1.778
1
RECE.20279.001E.01
41
0.75
0
TEXT
8
SYM_PART_TYPE_01
10
-0.8
20
0.7
40
0.7
1
 
41
0.75
7
W0$1R0
0
TEXT
8
SYM_PART_NAME_01
10
-0.9
20
-0.1
40
0.7
1
 
41
0.75
7
W0$1R0
0
INSERT
2
PART_BODY_TOP_11
8
0
10
0
20
0
0
INSERT
2
STK_TOP_19
8
0
10
0
20
-1.55
0
TEXT
8
SYM_TERMINAL
10
0
20
-3.048
40
1.778
1
1
0
INSERT
2
STK_TOP_18
8
0
10
-1.45
20
0
0
TEXT
8
SYM_TERMINAL
10
0
20
-6.096
40
1.778
1
2
0
INSERT
2
STK_TOP_18
8
0
10
1.45
20
0
0
TEXT
8
SYM_TERMINAL
10
0
20
-9.144
40
1.778
1
3
0
ENDBLK
0
BLOCK
2
PKG_9
8
0
10
0
20
0
3
PKG_9
70
64
0
TEXT
8
PKG_INFO
10
0
20
0
40
1.778
1
*SYM:= 11
0
TEXT
8
PKG_INFO
10
0
20
-3.048
40
1.778
1
*PKG:= 0 RECE.20279.001E.01 UND
0
TEXT
8
PKG_INFO
10
0
20
-6.096
40
1.778
1
*GATE:=0
0
TEXT
8
PKG_INFO
10
0
20
-9.144
40
1.778
1
*GATEPIN:= 0 9 2 <>
0
TEXT
8
PKG_INFO
10
0
20
-12.192
40
1.778
1
*GATEPIN:= 0 9 3 <>
0
TEXT
8
PKG_INFO
10
0
20
-15.24
40
1.778
1
*GATEPIN:= 0 9 1 <>
0
ENDBLK
0
BLOCK
2
SYM_TOP_12
8
0
10
0
20
0
3
SYM_TOP_12
70
64
0
TEXT
8
SYM_NAME
10
0
20
0
40
1.778
1
SAFBA1G56AB0E0A
41
0.75
0
TEXT
8
SYM_PART_TYPE_01
10
0
20
0
40
0.21
1
 
73
2
11
0
21
0
41
0.75
7
W0$01R0
0
TEXT
8
SYM_PART_NAME_01
10
0
20
0
40
0.21
1
 
41
0.75
7
W0$01R0
0
INSERT
2
PART_BODY_TOP_12
8
0
10
0
20
0
0
INSERT
2
STK_TOP_41
8
0
10
-0.3
20
-0.2
0
TEXT
8
SYM_TERMINAL
10
0
20
-3.048
40
1.778
1
1
0
INSERT
2
STK_TOP_41
8
0
10
0.3
20
-0.2
0
TEXT
8
SYM_TERMINAL
10
0
20
-6.096
40
1.778
1
2
0
INSERT
2
STK_TOP_41
8
0
10
0.3
20
0.2
0
TEXT
8
SYM_TERMINAL
10
0
20
-9.144
40
1.778
1
3
0
INSERT
2
STK_TOP_41
8
0
10
-0.3
20
0.2
0
TEXT
8
SYM_TERMINAL
10
0
20
-12.192
40
1.778
1
4
0
ENDBLK
0
BLOCK
2
PKG_10
8
0
10
0
20
0
3
PKG_10
70
64
0
TEXT
8
PKG_INFO
10
0
20
0
40
1.778
1
*SYM:= 12
0
TEXT
8
PKG_INFO
10
0
20
-3.048
40
1.778
1
*PKG:= 0 SAFBA1G56AB0E0A UND
0
TEXT
8
PKG_INFO
10
0
20
-6.096
40
1.778
1
*GATE:=0
0
TEXT
8
PKG_INFO
10
0
20
-9.144
40
1.778
1
*GATEPIN:= 0 9 1 <>
0
TEXT
8
PKG_INFO
10
0
20
-12.192
40
1.778
1
*GATEPIN:= 0 9 2 <>
0
TEXT
8
PKG_INFO
10
0
20
-15.24
40
1.778
1
*GATEPIN:= 0 9 3 <>
0
TEXT
8
PKG_INFO
10
0
20
-18.288
40
1.778
1
*GATEPIN:= 0 9 4 <>
0
ENDBLK
0
BLOCK
2
SYM_TOP_13
8
0
10
0
20
0
3
SYM_TOP_13
70
64
0
TEXT
8
SYM_NAME
10
0
20
0
40
1.778
1
RT2518GQW
41
0.75
0
TEXT
8
SYM_PART_NAME_01
10
0
20
0
40
0.21
1
 
41
0.75
7
W0$01R0
0
TEXT
8
SYM_PART_TYPE_01
10
0
20
0
40
0.21
1
 
73
2
11
0
21
0
41
0.75
7
W0$01R0
0
INSERT
2
PART_BODY_TOP_13
8
0
10
0
20
0
0
INSERT
2
STK_TOP_44
8
0
10
-0.975
20
-1.4
0
TEXT
8
SYM_TERMINAL
10
0
20
-3.048
40
1.778
1
1
0
INSERT
2
STK_TOP_44
8
0
10
-0.325
20
-1.4
0
TEXT
8
SYM_TERMINAL
10
0
20
-6.096
40
1.778
1
2
0
INSERT
2
STK_TOP_44
8
0
10
0.325
20
-1.4
0
TEXT
8
SYM_TERMINAL
10
0
20
-9.144
40
1.778
1
3
0
INSERT
2
STK_TOP_44
8
0
10
0.975
20
-1.4
0
TEXT
8
SYM_TERMINAL
10
0
20
-12.192
40
1.778
1
4
0
INSERT
2
STK_TOP_44
8
0
10
0.975
20
1.4
0
TEXT
8
SYM_TERMINAL
10
0
20
-15.24
40
1.778
1
5
0
INSERT
2
STK_TOP_44
8
0
10
0.325
20
1.4
0
TEXT
8
SYM_TERMINAL
10
0
20
-18.288
40
1.778
1
6
0
INSERT
2
STK_TOP_44
8
0
10
-0.325
20
1.4
0
TEXT
8
SYM_TERMINAL
10
0
20
-21.336
40
1.778
1
7
0
INSERT
2
STK_TOP_44
8
0
10
-0.975
20
1.4
0
TEXT
8
SYM_TERMINAL
10
0
20
-24.384
40
1.778
1
8
0
INSERT
2
STK_TOP_45
8
0
10
0
20
0
0
TEXT
8
SYM_TERMINAL
10
0
20
-27.432
40
1.778
1
9
0
ENDBLK
0
BLOCK
2
PKG_11
8
0
10
0
20
0
3
PKG_11
70
64
0
TEXT
8
PKG_INFO
10
0
20
0
40
1.778
1
*SYM:= 13
0
TEXT
8
PKG_INFO
10
0
20
-3.048
40
1.778
1
*PKG:= 0 RT2518GQW UND
0
TEXT
8
PKG_INFO
10
0
20
-6.096
40
1.778
1
*GATE:=0
0
TEXT
8
PKG_INFO
10
0
20
-9.144
40
1.778
1
*GATEPIN:= 0 9 1 <>
0
TEXT
8
PKG_INFO
10
0
20
-12.192
40
1.778
1
*GATEPIN:= 0 9 2 <>
0
TEXT
8
PKG_INFO
10
0
20
-15.24
40
1.778
1
*GATEPIN:= 0 9 3 <>
0
TEXT
8
PKG_INFO
10
0
20
-18.288
40
1.778
1
*GATEPIN:= 0 9 4 <>
0
TEXT
8
PKG_INFO
10
0
20
-21.336
40
1.778
1
*GATEPIN:= 0 9 5 <>
0
TEXT
8
PKG_INFO
10
0
20
-24.384
40
1.778
1
*GATEPIN:= 0 9 6 <>
0
TEXT
8
PKG_INFO
10
0
20
-27.432
40
1.778
1
*GATEPIN:= 0 9 7 <>
0
TEXT
8
PKG_INFO
10
0
20
-30.48
40
1.778
1
*GATEPIN:= 0 9 8 <>
0
TEXT
8
PKG_INFO
10
0
20
-33.528
40
1.778
1
*GATEPIN:= 0 9 9 <>
0
ENDBLK
0
BLOCK
2
SYM_TOP_14
8
0
10
0
20
0
3
SYM_TOP_14
70
64
0
TEXT
8
SYM_NAME
10
0
20
0
40
1.778
1
ME310G1-W3-1
41
0.75
0
TEXT
8
SYM_PART_TYPE_01
10
0
20
0
40
0.2667
1
 
73
2
11
0
21
0
41
0.75
7
W0$0381R0
0
TEXT
8
SYM_PART_NAME_01
10
0
20
0
40
0.2667
1
 
41
0.75
7
W0$0381R0
0
INSERT
2
PART_BODY_TOP_14
8
0
10
0
20
0
0
INSERT
2
STK_TOP_26
8
0
10
-6
20
0
0
TEXT
8
SYM_TERMINAL
10
0
20
-3.048
40
1.778
1
L1
0
INSERT
2
STK_TOP_26
8
0
10
-3.6
20
0
0
TEXT
8
SYM_TERMINAL
10
0
20
-6.096
40
1.778
1
L4
0
INSERT
2
STK_TOP_26
8
0
10
3.6
20
0
0
TEXT
8
SYM_TERMINAL
10
0
20
-9.144
40
1.778
1
L16
0
INSERT
2
STK_TOP_26
8
0
10
6
20
0
0
TEXT
8
SYM_TERMINAL
10
0
20
-12.192
40
1.778
1
L19
0
INSERT
2
STK_TOP_26
8
0
10
-4.8
20
0.6
0
TEXT
8
SYM_TERMINAL
10
0
20
-15.24
40
1.778
1
K2
0
INSERT
2
STK_TOP_26
8
0
10
-6
20
1.2
0
TEXT
8
SYM_TERMINAL
10
0
20
-18.288
40
1.778
1
J1
0
INSERT
2
STK_TOP_26
8
0
10
-6
20
2.4
0
TEXT
8
SYM_TERMINAL
10
0
20
-21.336
40
1.778
1
G1
0
INSERT
2
STK_TOP_26
8
0
10
-6
20
3.6
0
TEXT
8
SYM_TERMINAL
10
0
20
-24.384
40
1.778
1
E1
0
INSERT
2
STK_TOP_26
8
0
10
-6
20
4.8
0
TEXT
8
SYM_TERMINAL
10
0
20
-27.432
40
1.778
1
C1
0
INSERT
2
STK_TOP_26
8
0
10
-6
20
-1.2
0
TEXT
8
SYM_TERMINAL
10
0
20
-30.48
40
1.778
1
N1
0
INSERT
2
STK_TOP_26
8
0
10
-6
20
-2.4
0
TEXT
8
SYM_TERMINAL
10
0
20
-33.528
40
1.778
1
R1
0
INSERT
2
STK_TOP_26
8
0
10
-6
20
-3.6
0
TEXT
8
SYM_TERMINAL
10
0
20
-36.576
40
1.778
1
U1
0
INSERT
2
STK_TOP_26
8
0
10
-6
20
-4.8
0
TEXT
8
SYM_TERMINAL
10
0
20
-39.624
40
1.778
1
W1
0
INSERT
2
STK_TOP_26
8
0
10
6
20
-1.2
0
TEXT
8
SYM_TERMINAL
10
0
20
-42.672
40
1.778
1
N19
0
INSERT
2
STK_TOP_26
8
0
10
6
20
-2.4
0
TEXT
8
SYM_TERMINAL
10
0
20
-45.72
40
1.778
1
R19
0
INSERT
2
STK_TOP_26
8
0
10
6
20
-3.6
0
TEXT
8
SYM_TERMINAL
10
0
20
-48.768
40
1.778
1
U19
0
INSERT
2
STK_TOP_26
8
0
10
6
20
-4.8
0
TEXT
8
SYM_TERMINAL
10
0
20
-51.816
40
1.778
1
W19
0
INSERT
2
STK_TOP_26
8
0
10
6
20
1.2
0
TEXT
8
SYM_TERMINAL
10
0
20
-54.864
40
1.778
1
J19
0
INSERT
2
STK_TOP_26
8
0
10
6
20
2.4
0
TEXT
8
SYM_TERMINAL
10
0
20
-57.912
40
1.778
1
G19
0
INSERT
2
STK_TOP_26
8
0
10
6
20
3.6
0
TEXT
8
SYM_TERMINAL
10
0
20
-60.96
40
1.778
1
E19
0
INSERT
2
STK_TOP_26
8
0
10
6
20
4.8
0
TEXT
8
SYM_TERMINAL
10
0
20
-64.008
40
1.778
1
C19
0
INSERT
2
STK_TOP_26
8
0
10
-4.8
20
1.8
0
TEXT
8
SYM_TERMINAL
10
0
20
-67.056
40
1.778
1
H2
0
INSERT
2
STK_TOP_26
8
0
10
-4.8
20
3
0
TEXT
8
SYM_TERMINAL
10
0
20
-70.104
40
1.778
1
F2
0
INSERT
2
STK_TOP_26
8
0
10
-4.8
20
4.2
0
TEXT
8
SYM_TERMINAL
10
0
20
-73.152
40
1.778
1
D2
0
INSERT
2
STK_TOP_26
8
0
10
-4.8
20
5.4
0
TEXT
8
SYM_TERMINAL
10
0
20
-76.2
40
1.778
1
B2
0
INSERT
2
STK_TOP_26
8
0
10
-4.8
20
-0.6
0
TEXT
8
SYM_TERMINAL
10
0
20
-79.248
40
1.778
1
M2
0
INSERT
2
STK_TOP_26
8
0
10
-4.8
20
-1.8
0
TEXT
8
SYM_TERMINAL
10
0
20
-82.296
40
1.778
1
P2
0
INSERT
2
STK_TOP_26
8
0
10
-4.8
20
-3
0
TEXT
8
SYM_TERMINAL
10
0
20
-85.344
40
1.778
1
T2
0
INSERT
2
STK_TOP_26
8
0
10
-4.8
20
-4.2
0
TEXT
8
SYM_TERMINAL
10
0
20
-88.392
40
1.778
1
V2
0
INSERT
2
STK_TOP_26
8
0
10
-4.8
20
-5.4
0
TEXT
8
SYM_TERMINAL
10
0
20
-91.44
40
1.778
1
Y2
0
INSERT
2
STK_TOP_26
8
0
10
4.8
20
0.6
0
TEXT
8
SYM_TERMINAL
10
0
20
-94.488
40
1.778
1
K18
0
INSERT
2
STK_TOP_26
8
0
10
4.8
20
1.8
0
TEXT
8
SYM_TERMINAL
10
0
20
-97.536
40
1.778
1
H18
0
INSERT
2
STK_TOP_26
8
0
10
4.8
20
3
0
TEXT
8
SYM_TERMINAL
10
0
20
-100.584
40
1.778
1
F18
0
INSERT
2
STK_TOP_26
8
0
10
4.8
20
4.2
0
TEXT
8
SYM_TERMINAL
10
0
20
-103.632
40
1.778
1
D18
0
INSERT
2
STK_TOP_26
8
0
10
4.8
20
-0.6
0
TEXT
8
SYM_TERMINAL
10
0
20
-106.68
40
1.778
1
M18
0
INSERT
2
STK_TOP_26
8
0
10
4.8
20
-1.8
0
TEXT
8
SYM_TERMINAL
10
0
20
-109.728
40
1.778
1
P18
0
INSERT
2
STK_TOP_26
8
0
10
4.8
20
-3
0
TEXT
8
SYM_TERMINAL
10
0
20
-112.776
40
1.778
1
T18
0
INSERT
2
STK_TOP_26
8
0
10
4.8
20
-4.2
0
TEXT
8
SYM_TERMINAL
10
0
20
-115.824
40
1.778
1
V18
0
INSERT
2
STK_TOP_26
8
0
10
4.8
20
-5.4
0
TEXT
8
SYM_TERMINAL
10
0
20
-118.872
40
1.778
1
Y18
0
INSERT
2
STK_TOP_26
8
0
10
-3.6
20
-5.4
0
TEXT
8
SYM_TERMINAL
10
0
20
-121.92
40
1.778
1
Y4
0
INSERT
2
STK_TOP_26
8
0
10
-2.4
20
-5.4
0
TEXT
8
SYM_TERMINAL
10
0
20
-124.968
40
1.778
1
Y6
0
INSERT
2
STK_TOP_26
8
0
10
-1.2
20
-5.4
0
TEXT
8
SYM_TERMINAL
10
0
20
-128.016
40
1.778
1
Y8
0
INSERT
2
STK_TOP_26
8
0
10
0
20
-5.4
0
TEXT
8
SYM_TERMINAL
10
0
20
-131.064
40
1.778
1
Y10
0
INSERT
2
STK_TOP_26
8
0
10
1.2
20
-5.4
0
TEXT
8
SYM_TERMINAL
10
0
20
-134.112
40
1.778
1
Y12
0
INSERT
2
STK_TOP_26
8
0
10
2.4
20
-5.4
0
TEXT
8
SYM_TERMINAL
10
0
20
-137.16
40
1.778
1
Y14
0
INSERT
2
STK_TOP_26
8
0
10
3.6
20
-5.4
0
TEXT
8
SYM_TERMINAL
10
0
20
-140.208
40
1.778
1
Y16
0
INSERT
2
STK_TOP_26
8
0
10
-4.2
20
6.6
0
TEXT
8
SYM_TERMINAL
10
0
20
-143.256
40
1.778
1
A3
0
INSERT
2
STK_TOP_26
8
0
10
-3
20
6.6
0
TEXT
8
SYM_TERMINAL
10
0
20
-146.304
40
1.778
1
A5
0
INSERT
2
STK_TOP_26
8
0
10
-1.8
20
6.6
0
TEXT
8
SYM_TERMINAL
10
0
20
-149.352
40
1.778
1
A7
0
INSERT
2
STK_TOP_26
8
0
10
-0.6
20
6.6
0
TEXT
8
SYM_TERMINAL
10
0
20
-152.4
40
1.778
1
A9
0
INSERT
2
STK_TOP_26
8
0
10
0.6
20
6.6
0
TEXT
8
SYM_TERMINAL
10
0
20
-155.448
40
1.778
1
A11
0
INSERT
2
STK_TOP_26
8
0
10
1.8
20
6.6
0
TEXT
8
SYM_TERMINAL
10
0
20
-158.496
40
1.778
1
A13
0
INSERT
2
STK_TOP_26
8
0
10
3
20
6.6
0
TEXT
8
SYM_TERMINAL
10
0
20
-161.544
40
1.778
1
A15
0
INSERT
2
STK_TOP_26
8
0
10
4.2
20
6.6
0
TEXT
8
SYM_TERMINAL
10
0
20
-164.592
40
1.778
1
A17
0
INSERT
2
STK_TOP_26
8
0
10
-4.2
20
-6.6
0
TEXT
8
SYM_TERMINAL
10
0
20
-167.64
40
1.778
1
AA3
0
INSERT
2
STK_TOP_26
8
0
10
-3
20
-6.6
0
TEXT
8
SYM_TERMINAL
10
0
20
-170.688
40
1.778
1
AA5
0
INSERT
2
STK_TOP_26
8
0
10
-1.8
20
-6.6
0
TEXT
8
SYM_TERMINAL
10
0
20
-173.736
40
1.778
1
AA7
0
INSERT
2
STK_TOP_26
8
0
10
-0.6
20
-6.6
0
TEXT
8
SYM_TERMINAL
10
0
20
-176.784
40
1.778
1
AA9
0
INSERT
2
STK_TOP_26
8
0
10
0.6
20
-6.6
0
TEXT
8
SYM_TERMINAL
10
0
20
-179.832
40
1.778
1
AA11
0
INSERT
2
STK_TOP_26
8
0
10
1.8
20
-6.6
0
TEXT
8
SYM_TERMINAL
10
0
20
-182.88
40
1.778
1
AA13
0
INSERT
2
STK_TOP_26
8
0
10
3
20
-6.6
0
TEXT
8
SYM_TERMINAL
10
0
20
-185.928
40
1.778
1
AA15
0
INSERT
2
STK_TOP_26
8
0
10
4.2
20
-6.6
0
TEXT
8
SYM_TERMINAL
10
0
20
-188.976
40
1.778
1
AA17
0
INSERT
2
STK_TOP_26
8
0
10
-3.6
20
1.2
0
TEXT
8
SYM_TERMINAL
10
0
20
-192.024
40
1.778
1
J4
0
INSERT
2
STK_TOP_26
8
0
10
-3.6
20
2.4
0
TEXT
8
SYM_TERMINAL
10
0
20
-195.072
40
1.778
1
G4
0
INSERT
2
STK_TOP_26
8
0
10
-3.6
20
-1.2
0
TEXT
8
SYM_TERMINAL
10
0
20
-198.12
40
1.778
1
N4
0
INSERT
2
STK_TOP_26
8
0
10
-3.6
20
-2.4
0
TEXT
8
SYM_TERMINAL
10
0
20
-201.168
40
1.778
1
R4
0
INSERT
2
STK_TOP_26
8
0
10
3.6
20
-1.2
0
TEXT
8
SYM_TERMINAL
10
0
20
-204.216
40
1.778
1
N16
0
INSERT
2
STK_TOP_26
8
0
10
3.6
20
-2.4
0
TEXT
8
SYM_TERMINAL
10
0
20
-207.264
40
1.778
1
R16
0
INSERT
2
STK_TOP_26
8
0
10
3.6
20
1.2
0
TEXT
8
SYM_TERMINAL
10
0
20
-210.312
40
1.778
1
J16
0
INSERT
2
STK_TOP_26
8
0
10
3.6
20
2.4
0
TEXT
8
SYM_TERMINAL
10
0
20
-213.36
40
1.778
1
G16
0
INSERT
2
STK_TOP_26
8
0
10
0.6
20
-4.2
0
TEXT
8
SYM_TERMINAL
10
0
20
-216.408
40
1.778
1
V13
0
INSERT
2
STK_TOP_26
8
0
10
1.8
20
-4.2
0
TEXT
8
SYM_TERMINAL
10
0
20
-219.456
40
1.778
1
V15
0
INSERT
2
STK_TOP_26
8
0
10
-0.6
20
-4.2
0
TEXT
8
SYM_TERMINAL
10
0
20
-222.504
40
1.778
1
V11
0
INSERT
2
STK_TOP_26
8
0
10
-1.8
20
-4.2
0
TEXT
8
SYM_TERMINAL
10
0
20
-225.552
40
1.778
1
V9
0
INSERT
2
STK_TOP_26
8
0
10
0.6
20
4.2
0
TEXT
8
SYM_TERMINAL
10
0
20
-228.6
40
1.778
1
D11
0
INSERT
2
STK_TOP_26
8
0
10
1.8
20
4.2
0
TEXT
8
SYM_TERMINAL
10
0
20
-231.648
40
1.778
1
D13
0
INSERT
2
STK_TOP_26
8
0
10
-0.6
20
4.2
0
TEXT
8
SYM_TERMINAL
10
0
20
-234.696
40
1.778
1
D9
0
INSERT
2
STK_TOP_26
8
0
10
-1.8
20
4.2
0
TEXT
8
SYM_TERMINAL
10
0
20
-237.744
40
1.778
1
D7
0
INSERT
2
STK_TOP_26
8
0
10
-2.4
20
1.8
0
TEXT
8
SYM_TERMINAL
10
0
20
-240.792
40
1.778
1
H6
0
INSERT
2
STK_TOP_26
8
0
10
-2.4
20
-1.8
0
TEXT
8
SYM_TERMINAL
10
0
20
-243.84
40
1.778
1
P6
0
INSERT
2
STK_TOP_26
8
0
10
2.4
20
1.8
0
TEXT
8
SYM_TERMINAL
10
0
20
-246.888
40
1.778
1
H14
0
INSERT
2
STK_TOP_26
8
0
10
2.4
20
-1.8
0
TEXT
8
SYM_TERMINAL
10
0
20
-249.936
40
1.778
1
P14
0
INSERT
2
STK_TOP_26
8
0
10
-1.2
20
3
0
TEXT
8
SYM_TERMINAL
10
0
20
-252.984
40
1.778
1
F8
0
INSERT
2
STK_TOP_26
8
0
10
1.2
20
3
0
TEXT
8
SYM_TERMINAL
10
0
20
-256.032
40
1.778
1
F12
0
INSERT
2
STK_TOP_26
8
0
10
-1.2
20
-3
0
TEXT
8
SYM_TERMINAL
10
0
20
-259.08
40
1.778
1
T8
0
INSERT
2
STK_TOP_26
8
0
10
1.2
20
-3
0
TEXT
8
SYM_TERMINAL
10
0
20
-262.128
40
1.778
1
T12
0
INSERT
2
STK_TOP_26
8
0
10
-3.6
20
5.4
0
TEXT
8
SYM_TERMINAL
10
0
20
-265.176
40
1.778
1
B4
0
INSERT
2
STK_TOP_26
8
0
10
-2.4
20
5.4
0
TEXT
8
SYM_TERMINAL
10
0
20
-268.224
40
1.778
1
B6
0
INSERT
2
STK_TOP_26
8
0
10
-1.2
20
5.4
0
TEXT
8
SYM_TERMINAL
10
0
20
-271.272
40
1.778
1
B8
0
INSERT
2
STK_TOP_26
8
0
10
0
20
5.4
0
TEXT
8
SYM_TERMINAL
10
0
20
-274.32
40
1.778
1
B10
0
INSERT
2
STK_TOP_26
8
0
10
1.2
20
5.4
0
TEXT
8
SYM_TERMINAL
10
0
20
-277.368
40
1.778
1
B12
0
INSERT
2
STK_TOP_26
8
0
10
2.4
20
5.4
0
TEXT
8
SYM_TERMINAL
10
0
20
-280.416
40
1.778
1
B14
0
INSERT
2
STK_TOP_26
8
0
10
3.6
20
5.4
0
TEXT
8
SYM_TERMINAL
10
0
20
-283.464
40
1.778
1
B16
0
INSERT
2
STK_TOP_26
8
0
10
4.8
20
5.4
0
TEXT
8
SYM_TERMINAL
10
0
20
-286.512
40
1.778
1
B18
0
ENDBLK
0
BLOCK
2
PKG_12
8
0
10
0
20
0
3
PKG_12
70
64
0
TEXT
8
PKG_INFO
10
0
20
0
40
1.778
1
*SYM:= 14
0
TEXT
8
PKG_INFO
10
0
20
-3.048
40
1.778
1
*PKG:= 0 ME310G1-W3-1 UND
0
TEXT
8
PKG_INFO
10
0
20
-6.096
40
1.778
1
*GATE:=0
0
TEXT
8
PKG_INFO
10
0
20
-9.144
40
1.778
1
*GATEPIN:= 0 9 L1 <>
0
TEXT
8
PKG_INFO
10
0
20
-12.192
40
1.778
1
*GATEPIN:= 0 9 L4 <>
0
TEXT
8
PKG_INFO
10
0
20
-15.24
40
1.778
1
*GATEPIN:= 0 9 L16 <>
0
TEXT
8
PKG_INFO
10
0
20
-18.288
40
1.778
1
*GATEPIN:= 0 9 L19 <>
0
TEXT
8
PKG_INFO
10
0
20
-21.336
40
1.778
1
*GATEPIN:= 0 9 K2 <>
0
TEXT
8
PKG_INFO
10
0
20
-24.384
40
1.778
1
*GATEPIN:= 0 9 J1 <>
0
TEXT
8
PKG_INFO
10
0
20
-27.432
40
1.778
1
*GATEPIN:= 0 9 G1 <>
0
TEXT
8
PKG_INFO
10
0
20
-30.48
40
1.778
1
*GATEPIN:= 0 9 E1 <>
0
TEXT
8
PKG_INFO
10
0
20
-33.528
40
1.778
1
*GATEPIN:= 0 9 C1 <>
0
TEXT
8
PKG_INFO
10
0
20
-36.576
40
1.778
1
*GATEPIN:= 0 9 N1 <>
0
TEXT
8
PKG_INFO
10
0
20
-39.624
40
1.778
1
*GATEPIN:= 0 9 R1 <>
0
TEXT
8
PKG_INFO
10
0
20
-42.672
40
1.778
1
*GATEPIN:= 0 9 U1 <>
0
TEXT
8
PKG_INFO
10
0
20
-45.72
40
1.778
1
*GATEPIN:= 0 9 W1 <>
0
TEXT
8
PKG_INFO
10
0
20
-48.768
40
1.778
1
*GATEPIN:= 0 9 N19 <>
0
TEXT
8
PKG_INFO
10
0
20
-51.816
40
1.778
1
*GATEPIN:= 0 9 R19 <>
0
TEXT
8
PKG_INFO
10
0
20
-54.864
40
1.778
1
*GATEPIN:= 0 9 U19 <>
0
TEXT
8
PKG_INFO
10
0
20
-57.912
40
1.778
1
*GATEPIN:= 0 9 W19 <>
0
TEXT
8
PKG_INFO
10
0
20
-60.96
40
1.778
1
*GATEPIN:= 0 9 J19 <>
0
TEXT
8
PKG_INFO
10
0
20
-64.008
40
1.778
1
*GATEPIN:= 0 9 G19 <>
0
TEXT
8
PKG_INFO
10
0
20
-67.056
40
1.778
1
*GATEPIN:= 0 9 E19 <>
0
TEXT
8
PKG_INFO
10
0
20
-70.104
40
1.778
1
*GATEPIN:= 0 9 C19 <>
0
TEXT
8
PKG_INFO
10
0
20
-73.152
40
1.778
1
*GATEPIN:= 0 9 H2 <>
0
TEXT
8
PKG_INFO
10
0
20
-76.2
40
1.778
1
*GATEPIN:= 0 9 F2 <>
0
TEXT
8
PKG_INFO
10
0
20
-79.248
40
1.778
1
*GATEPIN:= 0 9 D2 <>
0
TEXT
8
PKG_INFO
10
0
20
-82.296
40
1.778
1
*GATEPIN:= 0 9 B2 <>
0
TEXT
8
PKG_INFO
10
0
20
-85.344
40
1.778
1
*GATEPIN:= 0 9 M2 <>
0
TEXT
8
PKG_INFO
10
0
20
-88.392
40
1.778
1
*GATEPIN:= 0 9 P2 <>
0
TEXT
8
PKG_INFO
10
0
20
-91.44
40
1.778
1
*GATEPIN:= 0 9 T2 <>
0
TEXT
8
PKG_INFO
10
0
20
-94.488
40
1.778
1
*GATEPIN:= 0 9 V2 <>
0
TEXT
8
PKG_INFO
10
0
20
-97.536
40
1.778
1
*GATEPIN:= 0 9 Y2 <>
0
TEXT
8
PKG_INFO
10
0
20
-100.584
40
1.778
1
*GATEPIN:= 0 9 K18 <>
0
TEXT
8
PKG_INFO
10
0
20
-103.632
40
1.778
1
*GATEPIN:= 0 9 H18 <>
0
TEXT
8
PKG_INFO
10
0
20
-106.68
40
1.778
1
*GATEPIN:= 0 9 F18 <>
0
TEXT
8
PKG_INFO
10
0
20
-109.728
40
1.778
1
*GATEPIN:= 0 9 D18 <>
0
TEXT
8
PKG_INFO
10
0
20
-112.776
40
1.778
1
*GATEPIN:= 0 9 M18 <>
0
TEXT
8
PKG_INFO
10
0
20
-115.824
40
1.778
1
*GATEPIN:= 0 9 P18 <>
0
TEXT
8
PKG_INFO
10
0
20
-118.872
40
1.778
1
*GATEPIN:= 0 9 T18 <>
0
TEXT
8
PKG_INFO
10
0
20
-121.92
40
1.778
1
*GATEPIN:= 0 9 V18 <>
0
TEXT
8
PKG_INFO
10
0
20
-124.968
40
1.778
1
*GATEPIN:= 0 9 Y18 <>
0
TEXT
8
PKG_INFO
10
0
20
-128.016
40
1.778
1
*GATEPIN:= 0 9 Y4 <>
0
TEXT
8
PKG_INFO
10
0
20
-131.064
40
1.778
1
*GATEPIN:= 0 9 Y6 <>
0
TEXT
8
PKG_INFO
10
0
20
-134.112
40
1.778
1
*GATEPIN:= 0 9 Y8 <>
0
TEXT
8
PKG_INFO
10
0
20
-137.16
40
1.778
1
*GATEPIN:= 0 9 Y10 <>
0
TEXT
8
PKG_INFO
10
0
20
-140.208
40
1.778
1
*GATEPIN:= 0 9 Y12 <>
0
TEXT
8
PKG_INFO
10
0
20
-143.256
40
1.778
1
*GATEPIN:= 0 9 Y14 <>
0
TEXT
8
PKG_INFO
10
0
20
-146.304
40
1.778
1
*GATEPIN:= 0 9 Y16 <>
0
TEXT
8
PKG_INFO
10
0
20
-149.352
40
1.778
1
*GATEPIN:= 0 9 A3 <>
0
TEXT
8
PKG_INFO
10
0
20
-152.4
40
1.778
1
*GATEPIN:= 0 9 A5 <>
0
TEXT
8
PKG_INFO
10
0
20
-155.448
40
1.778
1
*GATEPIN:= 0 9 A7 <>
0
TEXT
8
PKG_INFO
10
0
20
-158.496
40
1.778
1
*GATEPIN:= 0 9 A9 <>
0
TEXT
8
PKG_INFO
10
0
20
-161.544
40
1.778
1
*GATEPIN:= 0 9 A11 <>
0
TEXT
8
PKG_INFO
10
0
20
-164.592
40
1.778
1
*GATEPIN:= 0 9 A13 <>
0
TEXT
8
PKG_INFO
10
0
20
-167.64
40
1.778
1
*GATEPIN:= 0 9 A15 <>
0
TEXT
8
PKG_INFO
10
0
20
-170.688
40
1.778
1
*GATEPIN:= 0 9 A17 <>
0
TEXT
8
PKG_INFO
10
0
20
-173.736
40
1.778
1
*GATEPIN:= 0 9 AA3 <>
0
TEXT
8
PKG_INFO
10
0
20
-176.784
40
1.778
1
*GATEPIN:= 0 9 AA5 <>
0
TEXT
8
PKG_INFO
10
0
20
-179.832
40
1.778
1
*GATEPIN:= 0 9 AA7 <>
0
TEXT
8
PKG_INFO
10
0
20
-182.88
40
1.778
1
*GATEPIN:= 0 9 AA9 <>
0
TEXT
8
PKG_INFO
10
0
20
-185.928
40
1.778
1
*GATEPIN:= 0 9 AA11 <>
0
TEXT
8
PKG_INFO
10
0
20
-188.976
40
1.778
1
*GATEPIN:= 0 9 AA13 <>
0
TEXT
8
PKG_INFO
10
0
20
-192.024
40
1.778
1
*GATEPIN:= 0 9 AA15 <>
0
TEXT
8
PKG_INFO
10
0
20
-195.072
40
1.778
1
*GATEPIN:= 0 9 AA17 <>
0
TEXT
8
PKG_INFO
10
0
20
-198.12
40
1.778
1
*GATEPIN:= 0 9 J4 <>
0
TEXT
8
PKG_INFO
10
0
20
-201.168
40
1.778
1
*GATEPIN:= 0 9 G4 <>
0
TEXT
8
PKG_INFO
10
0
20
-204.216
40
1.778
1
*GATEPIN:= 0 9 N4 <>
0
TEXT
8
PKG_INFO
10
0
20
-207.264
40
1.778
1
*GATEPIN:= 0 9 R4 <>
0
TEXT
8
PKG_INFO
10
0
20
-210.312
40
1.778
1
*GATEPIN:= 0 9 N16 <>
0
TEXT
8
PKG_INFO
10
0
20
-213.36
40
1.778
1
*GATEPIN:= 0 9 R16 <>
0
TEXT
8
PKG_INFO
10
0
20
-216.408
40
1.778
1
*GATEPIN:= 0 9 J16 <>
0
TEXT
8
PKG_INFO
10
0
20
-219.456
40
1.778
1
*GATEPIN:= 0 9 G16 <>
0
TEXT
8
PKG_INFO
10
0
20
-222.504
40
1.778
1
*GATEPIN:= 0 9 V13 <>
0
TEXT
8
PKG_INFO
10
0
20
-225.552
40
1.778
1
*GATEPIN:= 0 9 V15 <>
0
TEXT
8
PKG_INFO
10
0
20
-228.6
40
1.778
1
*GATEPIN:= 0 9 V11 <>
0
TEXT
8
PKG_INFO
10
0
20
-231.648
40
1.778
1
*GATEPIN:= 0 9 V9 <>
0
TEXT
8
PKG_INFO
10
0
20
-234.696
40
1.778
1
*GATEPIN:= 0 9 D11 <>
0
TEXT
8
PKG_INFO
10
0
20
-237.744
40
1.778
1
*GATEPIN:= 0 9 D13 <>
0
TEXT
8
PKG_INFO
10
0
20
-240.792
40
1.778
1
*GATEPIN:= 0 9 D9 <>
0
TEXT
8
PKG_INFO
10
0
20
-243.84
40
1.778
1
*GATEPIN:= 0 9 D7 <>
0
TEXT
8
PKG_INFO
10
0
20
-246.888
40
1.778
1
*GATEPIN:= 0 9 H6 <>
0
TEXT
8
PKG_INFO
10
0
20
-249.936
40
1.778
1
*GATEPIN:= 0 9 P6 <>
0
TEXT
8
PKG_INFO
10
0
20
-252.984
40
1.778
1
*GATEPIN:= 0 9 H14 <>
0
TEXT
8
PKG_INFO
10
0
20
-256.032
40
1.778
1
*GATEPIN:= 0 9 P14 <>
0
TEXT
8
PKG_INFO
10
0
20
-259.08
40
1.778
1
*GATEPIN:= 0 9 F8 <>
0
TEXT
8
PKG_INFO
10
0
20
-262.128
40
1.778
1
*GATEPIN:= 0 9 F12 <>
0
TEXT
8
PKG_INFO
10
0
20
-265.176
40
1.778
1
*GATEPIN:= 0 9 T8 <>
0
TEXT
8
PKG_INFO
10
0
20
-268.224
40
1.778
1
*GATEPIN:= 0 9 T12 <>
0
TEXT
8
PKG_INFO
10
0
20
-271.272
40
1.778
1
*GATEPIN:= 0 9 B4 <>
0
TEXT
8
PKG_INFO
10
0
20
-274.32
40
1.778
1
*GATEPIN:= 0 9 B6 <>
0
TEXT
8
PKG_INFO
10
0
20
-277.368
40
1.778
1
*GATEPIN:= 0 9 B8 <>
0
TEXT
8
PKG_INFO
10
0
20
-280.416
40
1.778
1
*GATEPIN:= 0 9 B10 <>
0
TEXT
8
PKG_INFO
10
0
20
-283.464
40
1.778
1
*GATEPIN:= 0 9 B12 <>
0
TEXT
8
PKG_INFO
10
0
20
-286.512
40
1.778
1
*GATEPIN:= 0 9 B14 <>
0
TEXT
8
PKG_INFO
10
0
20
-289.56
40
1.778
1
*GATEPIN:= 0 9 B16 <>
0
TEXT
8
PKG_INFO
10
0
20
-292.608
40
1.778
1
*GATEPIN:= 0 9 B18 <>
0
ENDBLK
0
BLOCK
2
SYM_TOP_15
8
0
10
0
20
0
3
SYM_TOP_15
70
64
0
TEXT
8
SYM_NAME
10
0
20
0
40
1.778
1
TXB0108DQS
41
0.75
0
TEXT
8
SYM_PART_TYPE_01
10
0
20
0
40
0.889
1
 
73
2
11
0
21
0
41
0.75
7
W0$127R0
0
TEXT
8
SYM_PART_NAME_01
10
0
20
0
40
0.889
1
 
41
0.75
7
W0$127R0
0
INSERT
2
PART_BODY_TOP_15
8
0
10
0
20
0
0
INSERT
2
STK_TOP_107
8
0
10
-0.85
20
1.8
0
TEXT
8
SYM_TERMINAL
10
0
20
-3.048
40
1.778
1
1
0
INSERT
2
STK_TOP_106
8
0
10
-0.9
20
1.4
0
TEXT
8
SYM_TERMINAL
10
0
20
-6.096
40
1.778
1
2
0
INSERT
2
STK_TOP_106
8
0
10
-0.9
20
1
0
TEXT
8
SYM_TERMINAL
10
0
20
-9.144
40
1.778
1
3
0
INSERT
2
STK_TOP_106
8
0
10
-0.9
20
0.6
0
TEXT
8
SYM_TERMINAL
10
0
20
-12.192
40
1.778
1
4
0
INSERT
2
STK_TOP_106
8
0
10
-0.9
20
0.2
0
TEXT
8
SYM_TERMINAL
10
0
20
-15.24
40
1.778
1
5
0
INSERT
2
STK_TOP_106
8
0
10
-0.9
20
-0.2
0
TEXT
8
SYM_TERMINAL
10
0
20
-18.288
40
1.778
1
6
0
INSERT
2
STK_TOP_106
8
0
10
-0.9
20
-0.6
0
TEXT
8
SYM_TERMINAL
10
0
20
-21.336
40
1.778
1
7
0
INSERT
2
STK_TOP_106
8
0
10
-0.9
20
-1
0
TEXT
8
SYM_TERMINAL
10
0
20
-24.384
40
1.778
1
8
0
INSERT
2
STK_TOP_106
8
0
10
-0.9
20
-1.4
0
TEXT
8
SYM_TERMINAL
10
0
20
-27.432
40
1.778
1
9
0
INSERT
2
STK_TOP_106
8
0
10
-0.9
20
-1.8
0
TEXT
8
SYM_TERMINAL
10
0
20
-30.48
40
1.778
1
10
0
INSERT
2
STK_TOP_106
8
0
10
0.9
20
-1.8
0
TEXT
8
SYM_TERMINAL
10
0
20
-33.528
40
1.778
1
11
0
INSERT
2
STK_TOP_106
8
0
10
0.9
20
-1.4
0
TEXT
8
SYM_TERMINAL
10
0
20
-36.576
40
1.778
1
12
0
INSERT
2
STK_TOP_106
8
0
10
0.9
20
-1
0
TEXT
8
SYM_TERMINAL
10
0
20
-39.624
40
1.778
1
13
0
INSERT
2
STK_TOP_106
8
0
10
0.9
20
-0.6
0
TEXT
8
SYM_TERMINAL
10
0
20
-42.672
40
1.778
1
14
0
INSERT
2
STK_TOP_106
8
0
10
0.9
20
-0.2
0
TEXT
8
SYM_TERMINAL
10
0
20
-45.72
40
1.778
1
15
0
INSERT
2
STK_TOP_106
8
0
10
0.9
20
0.2
0
TEXT
8
SYM_TERMINAL
10
0
20
-48.768
40
1.778
1
16
0
INSERT
2
STK_TOP_106
8
0
10
0.9
20
0.6
0
TEXT
8
SYM_TERMINAL
10
0
20
-51.816
40
1.778
1
17
0
INSERT
2
STK_TOP_106
8
0
10
0.9
20
1
0
TEXT
8
SYM_TERMINAL
10
0
20
-54.864
40
1.778
1
18
0
INSERT
2
STK_TOP_106
8
0
10
0.9
20
1.4
0
TEXT
8
SYM_TERMINAL
10
0
20
-57.912
40
1.778
1
19
0
INSERT
2
STK_TOP_106
8
0
10
0.9
20
1.8
0
TEXT
8
SYM_TERMINAL
10
0
20
-60.96
40
1.778
1
20
0
ENDBLK
0
BLOCK
2
PKG_13
8
0
10
0
20
0
3
PKG_13
70
64
0
TEXT
8
PKG_INFO
10
0
20
0
40
1.778
1
*SYM:= 15
0
TEXT
8
PKG_INFO
10
0
20
-3.048
40
1.778
1
*PKG:= 0 TXB0108DQS UND
0
TEXT
8
PKG_INFO
10
0
20
-6.096
40
1.778
1
*GATE:=0
0
TEXT
8
PKG_INFO
10
0
20
-9.144
40
1.778
1
*GATEPIN:= 0 9 5 <>
0
TEXT
8
PKG_INFO
10
0
20
-12.192
40
1.778
1
*GATEPIN:= 0 9 4 <>
0
TEXT
8
PKG_INFO
10
0
20
-15.24
40
1.778
1
*GATEPIN:= 0 9 3 <>
0
TEXT
8
PKG_INFO
10
0
20
-18.288
40
1.778
1
*GATEPIN:= 0 9 2 <>
0
TEXT
8
PKG_INFO
10
0
20
-21.336
40
1.778
1
*GATEPIN:= 0 9 1 <>
0
TEXT
8
PKG_INFO
10
0
20
-24.384
40
1.778
1
*GATEPIN:= 0 9 6 <>
0
TEXT
8
PKG_INFO
10
0
20
-27.432
40
1.778
1
*GATEPIN:= 0 9 7 <>
0
TEXT
8
PKG_INFO
10
0
20
-30.48
40
1.778
1
*GATEPIN:= 0 9 8 <>
0
TEXT
8
PKG_INFO
10
0
20
-33.528
40
1.778
1
*GATEPIN:= 0 9 9 <>
0
TEXT
8
PKG_INFO
10
0
20
-36.576
40
1.778
1
*GATEPIN:= 0 9 10 <>
0
TEXT
8
PKG_INFO
10
0
20
-39.624
40
1.778
1
*GATEPIN:= 0 9 16 <>
0
TEXT
8
PKG_INFO
10
0
20
-42.672
40
1.778
1
*GATEPIN:= 0 9 17 <>
0
TEXT
8
PKG_INFO
10
0
20
-45.72
40
1.778
1
*GATEPIN:= 0 9 18 <>
0
TEXT
8
PKG_INFO
10
0
20
-48.768
40
1.778
1
*GATEPIN:= 0 9 19 <>
0
TEXT
8
PKG_INFO
10
0
20
-51.816
40
1.778
1
*GATEPIN:= 0 9 20 <>
0
TEXT
8
PKG_INFO
10
0
20
-54.864
40
1.778
1
*GATEPIN:= 0 9 15 <>
0
TEXT
8
PKG_INFO
10
0
20
-57.912
40
1.778
1
*GATEPIN:= 0 9 14 <>
0
TEXT
8
PKG_INFO
10
0
20
-60.96
40
1.778
1
*GATEPIN:= 0 9 13 <>
0
TEXT
8
PKG_INFO
10
0
20
-64.008
40
1.778
1
*GATEPIN:= 0 9 12 <>
0
TEXT
8
PKG_INFO
10
0
20
-67.056
40
1.778
1
*GATEPIN:= 0 9 11 <>
0
ENDBLK
0
BLOCK
2
SYM_TOP_16
8
0
10
0
20
0
3
SYM_TOP_16
70
64
0
TEXT
8
SYM_NAME
10
0
20
0
40
1.778
1
SI69C-08200
41
0.75
0
TEXT
8
SYM_PART_NAME_01
10
0
20
0
40
0.889
1
 
41
0.75
7
W0$127R0
0
TEXT
8
SYM_PART_TYPE_01
10
0
20
0
40
0.889
1
 
73
2
11
0
21
0
41
0.75
7
W0$127R0
0
INSERT
2
PART_BODY_TOP_16
8
0
10
0
20
0
0
INSERT
2
STK_TOP_86
8
0
10
2.54
20
-5.97
0
TEXT
8
SYM_TERMINAL
10
0
20
-3.048
40
1.778
1
1
0
INSERT
2
STK_TOP_86
8
0
10
0
20
-5.97
0
TEXT
8
SYM_TERMINAL
10
0
20
-6.096
40
1.778
1
2
0
INSERT
2
STK_TOP_86
8
0
10
-2.54
20
-5.97
0
TEXT
8
SYM_TERMINAL
10
0
20
-9.144
40
1.778
1
3
0
INSERT
2
STK_TOP_86
8
0
10
2.54
20
5.98
0
TEXT
8
SYM_TERMINAL
10
0
20
-12.192
40
1.778
1
4
0
INSERT
2
STK_TOP_86
8
0
10
0
20
5.98
0
TEXT
8
SYM_TERMINAL
10
0
20
-15.24
40
1.778
1
5
0
INSERT
2
STK_TOP_86
8
0
10
-2.54
20
5.98
0
TEXT
8
SYM_TERMINAL
10
0
20
-18.288
40
1.778
1
6
0
INSERT
2
STK_TOP_87
8
0
10
-5.385
20
0
0
TEXT
8
SYM_TERMINAL
10
0
20
-21.336
40
1.778
1
7
0
INSERT
2
STK_TOP_87
8
0
10
5.385
20
0.2
0
TEXT
8
SYM_TERMINAL
10
0
20
-24.384
40
1.778
1
8
0
INSERT
2
STK_TOP_88
8
0
10
-4.36
20
-4.15
0
TEXT
8
SYM_TERMINAL
10
0
20
-27.432
40
1.778
1
9
0
INSERT
2
STK_TOP_89
8
0
10
4.66
20
4.15
0
TEXT
8
SYM_TERMINAL
10
0
20
-30.48
40
1.778
1
10
0
ENDBLK
0
BLOCK
2
PKG_14
8
0
10
0
20
0
3
PKG_14
70
64
0
TEXT
8
PKG_INFO
10
0
20
0
40
1.778
1
*SYM:= 16
0
TEXT
8
PKG_INFO
10
0
20
-3.048
40
1.778
1
*PKG:= 0 SI69C-08200 UND
0
TEXT
8
PKG_INFO
10
0
20
-6.096
40
1.778
1
*GATE:=0
0
TEXT
8
PKG_INFO
10
0
20
-9.144
40
1.778
1
*GATEPIN:= 0 9 1 <>
0
TEXT
8
PKG_INFO
10
0
20
-12.192
40
1.778
1
*GATEPIN:= 0 9 2 <>
0
TEXT
8
PKG_INFO
10
0
20
-15.24
40
1.778
1
*GATEPIN:= 0 9 3 <>
0
TEXT
8
PKG_INFO
10
0
20
-18.288
40
1.778
1
*GATEPIN:= 0 9 4 <>
0
TEXT
8
PKG_INFO
10
0
20
-21.336
40
1.778
1
*GATEPIN:= 0 9 5 <>
0
TEXT
8
PKG_INFO
10
0
20
-24.384
40
1.778
1
*GATEPIN:= 0 9 6 <>
0
TEXT
8
PKG_INFO
10
0
20
-27.432
40
1.778
1
*GATEPIN:= 0 9 7 <>
0
TEXT
8
PKG_INFO
10
0
20
-30.48
40
1.778
1
*GATEPIN:= 0 9 8 <>
0
TEXT
8
PKG_INFO
10
0
20
-33.528
40
1.778
1
*GATEPIN:= 0 9 9 <>
0
TEXT
8
PKG_INFO
10
0
20
-36.576
40
1.778
1
*GATEPIN:= 0 9 10 <>
0
ENDBLK
0
BLOCK
2
SYM_TOP_18
8
0
10
0
20
0
3
SYM_TOP_18
70
64
0
TEXT
8
SYM_NAME
10
0
20
0
40
1.778
1
ULCE0518A015
41
0.75
0
TEXT
8
SYM_PART_NAME_01
10
-1.117
20
0.778
40
0.7
1
 
41
0.75
7
W0$1R0
0
TEXT
8
SYM_PART_TYPE_01
10
-1.124
20
1.652
40
0.7
1
 
41
0.75
7
W0$1R0
0
INSERT
2
PART_BODY_TOP_34
8
0
10
0
20
0
0
INSERT
2
STK_TOP_9
8
0
10
-0.45
20
0
0
TEXT
8
SYM_TERMINAL
10
0
20
-3.048
40
1.778
1
1
0
INSERT
2
STK_TOP_9
8
0
10
0.45
20
0
0
TEXT
8
SYM_TERMINAL
10
0
20
-6.096
40
1.778
1
2
0
ENDBLK
0
BLOCK
2
PKG_15
8
0
10
0
20
0
3
PKG_15
70
64
0
TEXT
8
PKG_INFO
10
0
20
0
40
1.778
1
*SYM:= 17 18
0
TEXT
8
PKG_INFO
10
0
20
-3.048
40
1.778
1
*PKG:= 0 ULCE0158A015 UND
0
TEXT
8
PKG_INFO
10
0
20
-6.096
40
1.778
1
*GATE:=0
0
TEXT
8
PKG_INFO
10
0
20
-9.144
40
1.778
1
*GATEPIN:= 0 9 1 <>
0
TEXT
8
PKG_INFO
10
0
20
-12.192
40
1.778
1
*GATEPIN:= 0 9 2 <>
0
ENDBLK
0
BLOCK
2
SYM_TOP_19
8
0
10
0
20
0
3
SYM_TOP_19
70
64
0
TEXT
8
SYM_NAME
10
0
20
0
40
1.778
1
Q_2SC4617(EMT3_H0.7)
41
0.75
0
TEXT
8
SYM_PART_TYPE_01
10
-5.012
20
0.674
40
1.0668
1
 
41
0.75
7
W0$254R0
0
TEXT
8
SYM_PART_NAME_01
10
-5.012
20
-0.85
40
1.0668
1
 
41
0.75
7
W0$254R0
0
INSERT
2
PART_BODY_TOP_35
8
0
10
0
20
0
0
INSERT
2
STK_TOP_123
8
0
10
0.5
20
-0.8
0
TEXT
8
SYM_TERMINAL
10
0
20
-3.048
40
1.778
1
1
0
INSERT
2
STK_TOP_123
8
0
10
-0.5
20
-0.8
0
TEXT
8
SYM_TERMINAL
10
0
20
-6.096
40
1.778
1
2
0
INSERT
2
STK_TOP_123
8
0
10
0
20
0.8
0
TEXT
8
SYM_TERMINAL
10
0
20
-9.144
40
1.778
1
3
0
ENDBLK
0
BLOCK
2
PKG_16
8
0
10
0
20
0
3
PKG_16
70
64
0
TEXT
8
PKG_INFO
10
0
20
0
40
1.778
1
*SYM:= 19
0
TEXT
8
PKG_INFO
10
0
20
-3.048
40
1.778
1
*PKG:= 0 Q_2SC4617(EMT3_H0.7) UND
0
ENDBLK
0
BLOCK
2
SYM_TOP_20
8
0
10
0
20
0
3
SYM_TOP_20
70
64
0
TEXT
8
SYM_NAME
10
0
20
0
40
1.778
1
RV2C010UNT2L
41
0.75
0
TEXT
8
SYM_PART_NAME_01
10
-0.95
20
2
40
0.7
1
 
41
0.75
7
W0$1R0
0
TEXT
8
SYM_PART_TYPE_01
10
-0.9
20
-2.8
40
0.7
1
 
41
0.75
7
W0$1R0
0
INSERT
2
PART_BODY_TOP_36
8
0
10
0
20
0
0
INSERT
2
STK_TOP_120
8
0
10
-0.175
20
-0.325
0
TEXT
8
SYM_TERMINAL
10
0
20
-3.048
40
1.778
1
1
0
INSERT
2
STK_TOP_121
8
0
10
0
20
0.325
0
TEXT
8
SYM_TERMINAL
10
0
20
-6.096
40
1.778
1
2
0
INSERT
2
STK_TOP_120
8
0
10
0.175
20
-0.325
0
TEXT
8
SYM_TERMINAL
10
0
20
-9.144
40
1.778
1
3
0
ENDBLK
0
BLOCK
2
PKG_17
8
0
10
0
20
0
3
PKG_17
70
64
0
TEXT
8
PKG_INFO
10
0
20
0
40
1.778
1
*SYM:= 20
0
TEXT
8
PKG_INFO
10
0
20
-3.048
40
1.778
1
*PKG:= 0 RV2C010UNT2L UND
0
TEXT
8
PKG_INFO
10
0
20
-6.096
40
1.778
1
*GATE:=0
0
TEXT
8
PKG_INFO
10
0
20
-9.144
40
1.778
1
*GATEPIN:= 0 9 1 <>
0
TEXT
8
PKG_INFO
10
0
20
-12.192
40
1.778
1
*GATEPIN:= 0 9 2 <>
0
TEXT
8
PKG_INFO
10
0
20
-15.24
40
1.778
1
*GATEPIN:= 0 9 3 <>
0
ENDBLK
0
BLOCK
2
PART_BODY_TOP_2
8
0
10
0
20
0
3
PART_BODY_TOP_2
70
64
0
POLYLINE
8
PART_TOP_2DLINE_00
66
1
40
0.1
41
0.1
0
VERTEX
8
PART_TOP_2DLINE_00
10
0
20
-0.25
0
VERTEX
8
PART_TOP_2DLINE_00
10
0
20
0.25
0
SEQEND
0
INSERT
2
SMOOTH_0$1
8
PART_TOP_2DLINE_00
10
0
20
-0.25
0
INSERT
2
SMOOTH_0$1
8
PART_TOP_2DLINE_00
10
0
20
0.25
0
POLYLINE
8
PART_TOP_2DLINE_20
66
1
40
0.1
41
0.1
70
1
0
VERTEX
8
PART_TOP_2DLINE_20
10
-0.5
20
0.25
0
VERTEX
8
PART_TOP_2DLINE_20
10
0.5
20
0.25
0
VERTEX
8
PART_TOP_2DLINE_20
10
0.5
20
-0.25
0
VERTEX
8
PART_TOP_2DLINE_20
10
-0.5
20
-0.25
0
SEQEND
0
INSERT
2
SMOOTH_0$1
8
PART_TOP_2DLINE_20
10
-0.5
20
0.25
0
INSERT
2
SMOOTH_0$1
8
PART_TOP_2DLINE_20
10
0.5
20
0.25
0
INSERT
2
SMOOTH_0$1
8
PART_TOP_2DLINE_20
10
0.5
20
-0.25
0
INSERT
2
SMOOTH_0$1
8
PART_TOP_2DLINE_20
10
-0.5
20
-0.25
0
POLYLINE
8
PART_TOP_2DLINE_00
66
1
40
0.1
41
0.1
70
1
0
VERTEX
8
PART_TOP_2DLINE_00
10
0.9
20
0.45
0
VERTEX
8
PART_TOP_2DLINE_00
10
-0.9
20
0.45
0
VERTEX
8
PART_TOP_2DLINE_00
10
-0.9
20
-0.45
0
VERTEX
8
PART_TOP_2DLINE_00
10
0.9
20
-0.45
0
SEQEND
0
INSERT
2
SMOOTH_0$1
8
PART_TOP_2DLINE_00
10
0.9
20
0.45
0
INSERT
2
SMOOTH_0$1
8
PART_TOP_2DLINE_00
10
-0.9
20
0.45
0
INSERT
2
SMOOTH_0$1
8
PART_TOP_2DLINE_00
10
-0.9
20
-0.45
0
INSERT
2
SMOOTH_0$1
8
PART_TOP_2DLINE_00
10
0.9
20
-0.45
0
POLYLINE
8
KEEPOUT_01
6
KEEPOUT_00001000$0
66
1
70
1
0
VERTEX
8
KEEPOUT_01
10
-0.2
20
0.3
42
-0.4142135624
0
VERTEX
8
KEEPOUT_01
10
-0.1
20
0.4
0
VERTEX
8
KEEPOUT_01
10
0.1
20
0.4
42
-0.4142135624
0
VERTEX
8
KEEPOUT_01
10
0.2
20
0.3
0
VERTEX
8
KEEPOUT_01
10
0.2
20
-0.3
42
-0.4142135624
0
VERTEX
8
KEEPOUT_01
10
0.1
20
-0.4
0
VERTEX
8
KEEPOUT_01
10
-0.1
20
-0.4
42
-0.4142135624
0
VERTEX
8
KEEPOUT_01
10
-0.2
20
-0.3
0
SEQEND
0
ENDBLK
0
BLOCK
2
STK_TOP_5
8
0
10
0
20
0
3
STK_TOP_5
70
64
0
INSERT
2
DRIL_HOLE_0
8
DRIL_PLTE_THRU_01
10
0
20
0
0
INSERT
2
DRIL_HOLE_0
8
DRIL_PLTE_THRU_02
10
0
20
0
0
INSERT
2
DRIL_HOLE_0
8
DRIL_PLTE_THRU_03
10
0
20
0
0
INSERT
2
DRIL_HOLE_0
8
DRIL_PLTE_THRU_04
10
0
20
0
0
INSERT
2
PAD_0
8
PADS_INNER
10
0
20
0
0
INSERT
2
PAD_0
8
PADS_BOT
10
0
20
0
0
INSERT
2
PAD_1
8
PADS_TOP
10
0
20
0
0
ENDBLK
0
BLOCK
2
PART_BODY_TOP_3
8
0
10
0
20
0
3
PART_BODY_TOP_3
70
64
0
POLYLINE
8
PART_TOP_2DLINE_01
66
1
40
0.1
41
0.1
70
1
0
VERTEX
8
PART_TOP_2DLINE_01
10
-0.55
20
0.25
0
VERTEX
8
PART_TOP_2DLINE_01
10
0.55
20
0.25
0
VERTEX
8
PART_TOP_2DLINE_01
10
0.55
20
-0.25
0
VERTEX
8
PART_TOP_2DLINE_01
10
-0.55
20
-0.25
0
SEQEND
0
INSERT
2
SMOOTH_0$1
8
PART_TOP_2DLINE_01
10
-0.55
20
0.25
0
INSERT
2
SMOOTH_0$1
8
PART_TOP_2DLINE_01
10
0.55
20
0.25
0
INSERT
2
SMOOTH_0$1
8
PART_TOP_2DLINE_01
10
0.55
20
-0.25
0
INSERT
2
SMOOTH_0$1
8
PART_TOP_2DLINE_01
10
-0.55
20
-0.25
0
ENDBLK
0
BLOCK
2
STK_TOP_4
8
0
10
0
20
0
3
STK_TOP_4
70
64
0
INSERT
2
DRIL_HOLE_0
8
DRIL_PLTE_THRU_01
10
0
20
0
0
INSERT
2
DRIL_HOLE_0
8
DRIL_PLTE_THRU_02
10
0
20
0
0
INSERT
2
DRIL_HOLE_0
8
DRIL_PLTE_THRU_03
10
0
20
0
0
INSERT
2
DRIL_HOLE_0
8
DRIL_PLTE_THRU_04
10
0
20
0
0
INSERT
2
PAD_0
8
PADS_INNER
10
0
20
0
0
INSERT
2
PAD_0
8
PADS_BOT
10
0
20
0
0
INSERT
2
PAD_2
8
PADS_TOP
10
0
20
0
0
ENDBLK
0
BLOCK
2
PART_BODY_TOP_4
8
0
10
0
20
0
3
PART_BODY_TOP_4
70
64
0
POLYLINE
8
PART_TOP_2DLINE_01
66
1
40
0.1
41
0.1
70
1
0
VERTEX
8
PART_TOP_2DLINE_01
10
-2.2
20
1.45
0
VERTEX
8
PART_TOP_2DLINE_01
10
2.2
20
1.45
0
VERTEX
8
PART_TOP_2DLINE_01
10
2.2
20
-1.45
0
VERTEX
8
PART_TOP_2DLINE_01
10
-2.2
20
-1.45
0
SEQEND
0
INSERT
2
SMOOTH_0$1
8
PART_TOP_2DLINE_01
10
-2.2
20
1.45
0
INSERT
2
SMOOTH_0$1
8
PART_TOP_2DLINE_01
10
2.2
20
1.45
0
INSERT
2
SMOOTH_0$1
8
PART_TOP_2DLINE_01
10
2.2
20
-1.45
0
INSERT
2
SMOOTH_0$1
8
PART_TOP_2DLINE_01
10
-2.2
20
-1.45
0
POLYLINE
8
PART_TOP_2DLINE_20
66
1
40
0.1
41
0.1
70
1
0
VERTEX
8
PART_TOP_2DLINE_20
10
-1.6
20
-1.25
0
VERTEX
8
PART_TOP_2DLINE_20
10
-1.6
20
1.25
0
VERTEX
8
PART_TOP_2DLINE_20
10
1.6
20
1.25
0
VERTEX
8
PART_TOP_2DLINE_20
10
1.6
20
-1.25
0
SEQEND
0
INSERT
2
SMOOTH_0$1
8
PART_TOP_2DLINE_20
10
-1.6
20
-1.25
0
INSERT
2
SMOOTH_0$1
8
PART_TOP_2DLINE_20
10
-1.6
20
1.25
0
INSERT
2
SMOOTH_0$1
8
PART_TOP_2DLINE_20
10
1.6
20
1.25
0
INSERT
2
SMOOTH_0$1
8
PART_TOP_2DLINE_20
10
1.6
20
-1.25
0
POLYLINE
8
PART_TOP_2DLINE_20
66
1
40
0.1
41
0.1
70
1
0
VERTEX
8
PART_TOP_2DLINE_20
10
-1.6
20
1.25
0
VERTEX
8
PART_TOP_2DLINE_20
10
-1
20
1.25
0
VERTEX
8
PART_TOP_2DLINE_20
10
-1
20
-1.25
0
VERTEX
8
PART_TOP_2DLINE_20
10
-1.6
20
-1.25
0
SEQEND
0
INSERT
2
SMOOTH_0$1
8
PART_TOP_2DLINE_20
10
-1.6
20
1.25
0
INSERT
2
SMOOTH_0$1
8
PART_TOP_2DLINE_20
10
-1
20
1.25
0
INSERT
2
SMOOTH_0$1
8
PART_TOP_2DLINE_20
10
-1
20
-1.25
0
INSERT
2
SMOOTH_0$1
8
PART_TOP_2DLINE_20
10
-1.6
20
-1.25
0
POLYLINE
8
PART_TOP_2DLINE_20
66
1
40
0.1
41
0.1
70
1
0
VERTEX
8
PART_TOP_2DLINE_20
10
1
20
1.25
0
VERTEX
8
PART_TOP_2DLINE_20
10
1.6
20
1.25
0
VERTEX
8
PART_TOP_2DLINE_20
10
1.6
20
-1.25
0
VERTEX
8
PART_TOP_2DLINE_20
10
1
20
-1.25
0
SEQEND
0
INSERT
2
SMOOTH_0$1
8
PART_TOP_2DLINE_20
10
1
20
1.25
0
INSERT
2
SMOOTH_0$1
8
PART_TOP_2DLINE_20
10
1.6
20
1.25
0
INSERT
2
SMOOTH_0$1
8
PART_TOP_2DLINE_20
10
1.6
20
-1.25
0
INSERT
2
SMOOTH_0$1
8
PART_TOP_2DLINE_20
10
1
20
-1.25
0
POLYLINE
8
PART_TOP_2DLINE_01
66
1
40
0.1
41
0.1
0
VERTEX
8
PART_TOP_2DLINE_01
10
0
20
1
0
VERTEX
8
PART_TOP_2DLINE_01
10
0
20
0.4
0
SEQEND
0
INSERT
2
SMOOTH_0$1
8
PART_TOP_2DLINE_01
10
0
20
1
0
INSERT
2
SMOOTH_0$1
8
PART_TOP_2DLINE_01
10
0
20
0.4
0
POLYLINE
8
PART_TOP_2DLINE_01
66
1
40
0.1
41
0.1
0
VERTEX
8
PART_TOP_2DLINE_01
10
-0.4
20
0.4
0
VERTEX
8
PART_TOP_2DLINE_01
10
0.4
20
0.4
0
SEQEND
0
INSERT
2
SMOOTH_0$1
8
PART_TOP_2DLINE_01
10
-0.4
20
0.4
0
INSERT
2
SMOOTH_0$1
8
PART_TOP_2DLINE_01
10
0.4
20
0.4
0
POLYLINE
8
PART_TOP_2DLINE_01
66
1
40
0.1
41
0.1
0
VERTEX
8
PART_TOP_2DLINE_01
10
-0.4
20
-0.4
0
VERTEX
8
PART_TOP_2DLINE_01
10
0.4
20
-0.4
0
SEQEND
0
INSERT
2
SMOOTH_0$1
8
PART_TOP_2DLINE_01
10
-0.4
20
-0.4
0
INSERT
2
SMOOTH_0$1
8
PART_TOP_2DLINE_01
10
0.4
20
-0.4
0
POLYLINE
8
PART_TOP_2DLINE_01
66
1
40
0.1
41
0.1
0
VERTEX
8
PART_TOP_2DLINE_01
10
0
20
-0.4
0
VERTEX
8
PART_TOP_2DLINE_01
10
0
20
-1
0
SEQEND
0
INSERT
2
SMOOTH_0$1
8
PART_TOP_2DLINE_01
10
0
20
-0.4
0
INSERT
2
SMOOTH_0$1
8
PART_TOP_2DLINE_01
10
0
20
-1
0
ENDBLK
0
BLOCK
2
STK_TOP_48
8
0
10
0
20
0
3
STK_TOP_48
70
64
0
INSERT
2
DRIL_HOLE_0
8
DRIL_PLTE_THRU_01
10
0
20
0
0
INSERT
2
DRIL_HOLE_0
8
DRIL_PLTE_THRU_02
10
0
20
0
0
INSERT
2
DRIL_HOLE_0
8
DRIL_PLTE_THRU_03
10
0
20
0
0
INSERT
2
DRIL_HOLE_0
8
DRIL_PLTE_THRU_04
10
0
20
0
0
INSERT
2
PAD_0
8
PADS_INNER
10
0
20
0
0
INSERT
2
PAD_0
8
PADS_BOT
10
0
20
0
0
INSERT
2
PAD_3
8
PADS_TOP
10
0
20
0
50
90
0
ENDBLK
0
BLOCK
2
PART_BODY_TOP_5
8
0
10
0
20
0
3
PART_BODY_TOP_5
70
64
0
POLYLINE
8
PART_TOP_2DLINE_00
66
1
40
0.1
41
0.1
70
1
0
VERTEX
8
PART_TOP_2DLINE_00
10
-1.40005
20
-0.5
0
VERTEX
8
PART_TOP_2DLINE_00
10
1.40005
20
-0.5
0
VERTEX
8
PART_TOP_2DLINE_00
10
1.40005
20
0.5
0
VERTEX
8
PART_TOP_2DLINE_00
10
-1.40005
20
0.5
0
SEQEND
0
INSERT
2
SMOOTH_0$1
8
PART_TOP_2DLINE_00
10
-1.40005
20
-0.5
0
INSERT
2
SMOOTH_0$1
8
PART_TOP_2DLINE_00
10
1.40005
20
-0.5
0
INSERT
2
SMOOTH_0$1
8
PART_TOP_2DLINE_00
10
1.40005
20
0.5
0
INSERT
2
SMOOTH_0$1
8
PART_TOP_2DLINE_00
10
-1.40005
20
0.5
0
POLYLINE
8
PART_TOP_2DLINE_00
66
1
40
0.1
41
0.1
0
VERTEX
8
PART_TOP_2DLINE_00
10
-1.40006
20
-0.24995
0
VERTEX
8
PART_TOP_2DLINE_00
10
-1.1750046667
20
-0.4750046667
0
SEQEND
0
INSERT
2
SMOOTH_0$1
8
PART_TOP_2DLINE_00
10
-1.40006
20
-0.24995
0
INSERT
2
SMOOTH_0$1
8
PART_TOP_2DLINE_00
10
-1.1750046667
20
-0.4750046667
0
POLYLINE
8
PART_TOP_2DLINE_00
66
1
40
0.1
41
0.1
0
VERTEX
8
PART_TOP_2DLINE_00
10
-1.4
20
0.00005
0
VERTEX
8
PART_TOP_2DLINE_00
10
-0.9249746667
20
-0.4749746667
0
SEQEND
0
INSERT
2
SMOOTH_0$1
8
PART_TOP_2DLINE_00
10
-1.4
20
0.00005
0
INSERT
2
SMOOTH_0$1
8
PART_TOP_2DLINE_00
10
-0.9249746667
20
-0.4749746667
0
POLYLINE
8
PART_TOP_2DLINE_00
66
1
40
0.1
41
0.1
0
VERTEX
8
PART_TOP_2DLINE_00
10
-1.39994
20
0.25005
0
VERTEX
8
PART_TOP_2DLINE_00
10
-0.6999446667
20
-0.4499446667
0
SEQEND
0
INSERT
2
SMOOTH_0$1
8
PART_TOP_2DLINE_00
10
-1.39994
20
0.25005
0
INSERT
2
SMOOTH_0$1
8
PART_TOP_2DLINE_00
10
-0.6999446667
20
-0.4499446667
0
POLYLINE
8
PART_TOP_2DLINE_00
66
1
40
0.1
41
0.1
0
VERTEX
8
PART_TOP_2DLINE_00
10
-0.15011
20
0
0
VERTEX
8
PART_TOP_2DLINE_00
10
0.15011
20
0
0
SEQEND
0
INSERT
2
SMOOTH_0$1
8
PART_TOP_2DLINE_00
10
-0.15011
20
0
0
INSERT
2
SMOOTH_0$1
8
PART_TOP_2DLINE_00
10
0.15011
20
0
0
POLYLINE
8
PART_TOP_2DLINE_00
66
1
40
0.1
41
0.1
0
VERTEX
8
PART_TOP_2DLINE_00
10
0
20
0.15011
0
VERTEX
8
PART_TOP_2DLINE_00
10
0
20
-0.15011
0
SEQEND
0
INSERT
2
SMOOTH_0$1
8
PART_TOP_2DLINE_00
10
0
20
0.15011
0
INSERT
2
SMOOTH_0$1
8
PART_TOP_2DLINE_00
10
0
20
-0.15011
0
ENDBLK
0
BLOCK
2
STK_TOP_37
8
0
10
0
20
0
3
STK_TOP_37
70
64
0
INSERT
2
DRIL_HOLE_0
8
DRIL_PLTE_THRU_01
10
0
20
0
0
INSERT
2
DRIL_HOLE_0
8
DRIL_PLTE_THRU_02
10
0
20
0
0
INSERT
2
DRIL_HOLE_0
8
DRIL_PLTE_THRU_03
10
0
20
0
0
INSERT
2
DRIL_HOLE_0
8
DRIL_PLTE_THRU_04
10
0
20
0
0
INSERT
2
PAD_0
8
PADS_INNER
10
0
20
0
0
INSERT
2
PAD_0
8
PADS_BOT
10
0
20
0
0
INSERT
2
PAD_4
8
PADS_TOP
10
0
20
0
50
90
0
ENDBLK
0
BLOCK
2
PART_BODY_TOP_6
8
0
10
0
20
0
3
PART_BODY_TOP_6
70
64
0
POLYLINE
8
PART_TOP_2DLINE_01
66
1
40
0.1
41
0.1
0
VERTEX
8
PART_TOP_2DLINE_01
10
-1.4
20
0.5
0
VERTEX
8
PART_TOP_2DLINE_01
10
-1.4
20
0.7
0
VERTEX
8
PART_TOP_2DLINE_01
10
1.4
20
0.7
0
VERTEX
8
PART_TOP_2DLINE_01
10
1.4
20
0.5
0
SEQEND
0
INSERT
2
SMOOTH_0$1
8
PART_TOP_2DLINE_01
10
-1.4
20
0.5
0
INSERT
2
SMOOTH_0$1
8
PART_TOP_2DLINE_01
10
-1.4
20
0.7
0
INSERT
2
SMOOTH_0$1
8
PART_TOP_2DLINE_01
10
1.4
20
0.7
0
INSERT
2
SMOOTH_0$1
8
PART_TOP_2DLINE_01
10
1.4
20
0.5
0
POLYLINE
8
PART_TOP_2DLINE_01
66
1
40
0.1
41
0.1
0
VERTEX
8
PART_TOP_2DLINE_01
10
-1.4
20
-0.5
0
VERTEX
8
PART_TOP_2DLINE_01
10
-1.4
20
-0.7
0
VERTEX
8
PART_TOP_2DLINE_01
10
1.4
20
-0.7
0
VERTEX
8
PART_TOP_2DLINE_01
10
1.4
20
-0.5
0
SEQEND
0
INSERT
2
SMOOTH_0$1
8
PART_TOP_2DLINE_01
10
-1.4
20
-0.5
0
INSERT
2
SMOOTH_0$1
8
PART_TOP_2DLINE_01
10
-1.4
20
-0.7
0
INSERT
2
SMOOTH_0$1
8
PART_TOP_2DLINE_01
10
1.4
20
-0.7
0
INSERT
2
SMOOTH_0$1
8
PART_TOP_2DLINE_01
10
1.4
20
-0.5
0
POLYLINE
8
PART_TOP_2DLINE_01
66
1
40
0.1
41
0.1
70
1
0
VERTEX
8
PART_TOP_2DLINE_01
10
-1.1
20
0.7
0
VERTEX
8
PART_TOP_2DLINE_01
10
-0.7
20
0.7
0
VERTEX
8
PART_TOP_2DLINE_01
10
-0.7
20
-0.7
0
VERTEX
8
PART_TOP_2DLINE_01
10
-1.1
20
-0.7
0
SEQEND
0
INSERT
2
SMOOTH_0$1
8
PART_TOP_2DLINE_01
10
-1.1
20
0.7
0
INSERT
2
SMOOTH_0$1
8
PART_TOP_2DLINE_01
10
-0.7
20
0.7
0
INSERT
2
SMOOTH_0$1
8
PART_TOP_2DLINE_01
10
-0.7
20
-0.7
0
INSERT
2
SMOOTH_0$1
8
PART_TOP_2DLINE_01
10
-1.1
20
-0.7
0
ENDBLK
0
BLOCK
2
STK_TOP_23
8
0
10
0
20
0
3
STK_TOP_23
70
64
0
INSERT
2
DRIL_HOLE_0
8
DRIL_PLTE_THRU_01
10
0
20
0
0
INSERT
2
DRIL_HOLE_0
8
DRIL_PLTE_THRU_02
10
0
20
0
0
INSERT
2
DRIL_HOLE_0
8
DRIL_PLTE_THRU_03
10
0
20
0
0
INSERT
2
DRIL_HOLE_0
8
DRIL_PLTE_THRU_04
10
0
20
0
0
INSERT
2
PAD_0
8
PADS_INNER
10
0
20
0
0
INSERT
2
PAD_0
8
PADS_BOT
10
0
20
0
0
INSERT
2
PAD_5
8
PADS_TOP
10
0
20
0
50
90
0
ENDBLK
0
BLOCK
2
PART_BODY_TOP_7
8
0
10
0
20
0
3
PART_BODY_TOP_7
70
64
0
ENDBLK
0
BLOCK
2
STK_TOP_11
8
0
10
0
20
0
3
STK_TOP_11
70
64
0
INSERT
2
DRIL_HOLE_1
8
DRIL_PLTE_THRU_01
10
0
20
0
0
INSERT
2
DRIL_HOLE_1
8
DRIL_PLTE_THRU_02
10
0
20
0
0
INSERT
2
DRIL_HOLE_1
8
DRIL_PLTE_THRU_03
10
0
20
0
0
INSERT
2
DRIL_HOLE_1
8
DRIL_PLTE_THRU_04
10
0
20
0
0
INSERT
2
PAD_6
8
PADS_INNER
10
0
20
0
0
INSERT
2
PAD_7
8
PADS_BOT
10
0
20
0
50
90
0
INSERT
2
PAD_6
8
PADS_TOP
10
0
20
0
0
ENDBLK
0
BLOCK
2
PART_BODY_TOP_8
8
0
10
0
20
0
3
PART_BODY_TOP_8
70
64
0
POLYLINE
8
PART_TOP_2DLINE_01
66
1
40
0.1
41
0.1
70
1
0
VERTEX
8
PART_TOP_2DLINE_01
10
-0.9
20
-0.46
0
VERTEX
8
PART_TOP_2DLINE_01
10
0.9
20
-0.46
0
VERTEX
8
PART_TOP_2DLINE_01
10
0.9
20
0.45
0
VERTEX
8
PART_TOP_2DLINE_01
10
-0.9
20
0.45
0
SEQEND
0
INSERT
2
SMOOTH_0$1
8
PART_TOP_2DLINE_01
10
-0.9
20
-0.46
0
INSERT
2
SMOOTH_0$1
8
PART_TOP_2DLINE_01
10
0.9
20
-0.46
0
INSERT
2
SMOOTH_0$1
8
PART_TOP_2DLINE_01
10
0.9
20
0.45
0
INSERT
2
SMOOTH_0$1
8
PART_TOP_2DLINE_01
10
-0.9
20
0.45
0
ENDBLK
0
BLOCK
2
PART_BODY_TOP_9
8
0
10
0
20
0
3
PART_BODY_TOP_9
70
64
0
POLYLINE
8
PART_TOP_2DLINE_00
66
1
40
0.1
41
0.1
0
VERTEX
8
PART_TOP_2DLINE_00
10
0
20
-0.15
0
VERTEX
8
PART_TOP_2DLINE_00
10
0
20
0.15
0
SEQEND
0
INSERT
2
SMOOTH_0$1
8
PART_TOP_2DLINE_00
10
0
20
-0.15
0
INSERT
2
SMOOTH_0$1
8
PART_TOP_2DLINE_00
10
0
20
0.15
0
POLYLINE
8
PART_TOP_2DLINE_20
66
1
40
0.1
41
0.1
70
1
0
VERTEX
8
PART_TOP_2DLINE_20
10
-0.5
20
0.25
0
VERTEX
8
PART_TOP_2DLINE_20
10
0.5
20
0.25
0
VERTEX
8
PART_TOP_2DLINE_20
10
0.5
20
-0.25
0
VERTEX
8
PART_TOP_2DLINE_20
10
-0.5
20
-0.25
0
SEQEND
0
INSERT
2
SMOOTH_0$1
8
PART_TOP_2DLINE_20
10
-0.5
20
0.25
0
INSERT
2
SMOOTH_0$1
8
PART_TOP_2DLINE_20
10
0.5
20
0.25
0
INSERT
2
SMOOTH_0$1
8
PART_TOP_2DLINE_20
10
0.5
20
-0.25
0
INSERT
2
SMOOTH_0$1
8
PART_TOP_2DLINE_20
10
-0.5
20
-0.25
0
POLYLINE
8
KEEPOUT_01
6
KEEPOUT_00001000$0
66
1
70
1
0
VERTEX
8
KEEPOUT_01
10
-0.2
20
0.3
42
-0.4142135624
0
VERTEX
8
KEEPOUT_01
10
-0.1
20
0.4
0
VERTEX
8
KEEPOUT_01
10
0.1
20
0.4
42
-0.4142135624
0
VERTEX
8
KEEPOUT_01
10
0.2
20
0.3
0
VERTEX
8
KEEPOUT_01
10
0.2
20
-0.3
42
-0.4142135624
0
VERTEX
8
KEEPOUT_01
10
0.1
20
-0.4
0
VERTEX
8
KEEPOUT_01
10
-0.1
20
-0.4
42
-0.4142135624
0
VERTEX
8
KEEPOUT_01
10
-0.2
20
-0.3
0
SEQEND
0
POLYLINE
8
PART_TOP_2DLINE_20
66
1
40
0.1
41
0.1
70
1
0
VERTEX
8
PART_TOP_2DLINE_20
10
-0.5
20
0.25
0
VERTEX
8
PART_TOP_2DLINE_20
10
0.5
20
0.25
0
VERTEX
8
PART_TOP_2DLINE_20
10
0.5
20
-0.25
0
VERTEX
8
PART_TOP_2DLINE_20
10
-0.5
20
-0.25
0
SEQEND
0
INSERT
2
SMOOTH_0$1
8
PART_TOP_2DLINE_20
10
-0.5
20
0.25
0
INSERT
2
SMOOTH_0$1
8
PART_TOP_2DLINE_20
10
0.5
20
0.25
0
INSERT
2
SMOOTH_0$1
8
PART_TOP_2DLINE_20
10
0.5
20
-0.25
0
INSERT
2
SMOOTH_0$1
8
PART_TOP_2DLINE_20
10
-0.5
20
-0.25
0
POLYLINE
8
PART_TOP_2DLINE_00
66
1
40
0.1
41
0.1
70
1
0
VERTEX
8
PART_TOP_2DLINE_00
10
-0.9
20
0.45
0
VERTEX
8
PART_TOP_2DLINE_00
10
-0.9
20
-0.45
0
VERTEX
8
PART_TOP_2DLINE_00
10
-0.1
20
-0.45
0
VERTEX
8
PART_TOP_2DLINE_00
10
0
20
-0.35
0
VERTEX
8
PART_TOP_2DLINE_00
10
0.1
20
-0.45
0
VERTEX
8
PART_TOP_2DLINE_00
10
0.9
20
-0.45
0
VERTEX
8
PART_TOP_2DLINE_00
10
0.9
20
0.45
0
VERTEX
8
PART_TOP_2DLINE_00
10
0.1
20
0.45
0
VERTEX
8
PART_TOP_2DLINE_00
10
0
20
0.35
0
VERTEX
8
PART_TOP_2DLINE_00
10
-0.1
20
0.45
0
SEQEND
0
INSERT
2
SMOOTH_0$1
8
PART_TOP_2DLINE_00
10
-0.9
20
0.45
0
INSERT
2
SMOOTH_0$1
8
PART_TOP_2DLINE_00
10
-0.9
20
-0.45
0
INSERT
2
SMOOTH_0$1
8
PART_TOP_2DLINE_00
10
-0.1
20
-0.45
0
INSERT
2
SMOOTH_0$1
8
PART_TOP_2DLINE_00
10
0
20
-0.35
0
INSERT
2
SMOOTH_0$1
8
PART_TOP_2DLINE_00
10
0.1
20
-0.45
0
INSERT
2
SMOOTH_0$1
8
PART_TOP_2DLINE_00
10
0.9
20
-0.45
0
INSERT
2
SMOOTH_0$1
8
PART_TOP_2DLINE_00
10
0.9
20
0.45
0
INSERT
2
SMOOTH_0$1
8
PART_TOP_2DLINE_00
10
0.1
20
0.45
0
INSERT
2
SMOOTH_0$1
8
PART_TOP_2DLINE_00
10
0
20
0.35
0
INSERT
2
SMOOTH_0$1
8
PART_TOP_2DLINE_00
10
-0.1
20
0.45
0
ENDBLK
0
BLOCK
2
PART_BODY_TOP_10
8
0
10
0
20
0
3
PART_BODY_TOP_10
70
64
0
ENDBLK
0
BLOCK
2
STK_TOP_25
8
0
10
0
20
0
3
STK_TOP_25
70
64
0
INSERT
2
DRIL_HOLE_0
8
DRIL_PLTE_THRU_01
10
0
20
0
0
INSERT
2
DRIL_HOLE_0
8
DRIL_PLTE_THRU_02
10
0
20
0
0
INSERT
2
DRIL_HOLE_0
8
DRIL_PLTE_THRU_03
10
0
20
0
0
INSERT
2
DRIL_HOLE_0
8
DRIL_PLTE_THRU_04
10
0
20
0
0
INSERT
2
PAD_0
8
PADS_INNER
10
0
20
0
0
INSERT
2
PAD_0
8
PADS_BOT
10
0
20
0
0
INSERT
2
PAD_8
8
PADS_TOP
10
0
20
0
0
ENDBLK
0
BLOCK
2
PART_BODY_TOP_11
8
0
10
0
20
0
3
PART_BODY_TOP_11
70
64
0
POLYLINE
8
PART_TOP_2DLINE_26
66
1
40
0.1
41
0.1
0
VERTEX
8
PART_TOP_2DLINE_26
10
-1.5
20
1.1
0
VERTEX
8
PART_TOP_2DLINE_26
10
-1.5
20
1.3
0
VERTEX
8
PART_TOP_2DLINE_26
10
1.5
20
1.3
0
VERTEX
8
PART_TOP_2DLINE_26
10
1.5
20
1.1
0
SEQEND
0
INSERT
2
SMOOTH_0$1
8
PART_TOP_2DLINE_26
10
-1.5
20
1.1
0
INSERT
2
SMOOTH_0$1
8
PART_TOP_2DLINE_26
10
-1.5
20
1.3
0
INSERT
2
SMOOTH_0$1
8
PART_TOP_2DLINE_26
10
1.5
20
1.3
0
INSERT
2
SMOOTH_0$1
8
PART_TOP_2DLINE_26
10
1.5
20
1.1
0
POLYLINE
8
PART_TOP_2DLINE_26
66
1
40
0.1
41
0.1
0
VERTEX
8
PART_TOP_2DLINE_26
10
-1.5
20
-1.1
0
VERTEX
8
PART_TOP_2DLINE_26
10
-1.5
20
-1.3
0
VERTEX
8
PART_TOP_2DLINE_26
10
-0.6
20
-1.3
0
SEQEND
0
INSERT
2
SMOOTH_0$1
8
PART_TOP_2DLINE_26
10
-1.5
20
-1.1
0
INSERT
2
SMOOTH_0$1
8
PART_TOP_2DLINE_26
10
-1.5
20
-1.3
0
INSERT
2
SMOOTH_0$1
8
PART_TOP_2DLINE_26
10
-0.6
20
-1.3
0
POLYLINE
8
PART_TOP_2DLINE_26
66
1
40
0.1
41
0.1
0
VERTEX
8
PART_TOP_2DLINE_26
10
0.5
20
-1.3
0
VERTEX
8
PART_TOP_2DLINE_26
10
1.5
20
-1.3
0
VERTEX
8
PART_TOP_2DLINE_26
10
1.5
20
-1.1
0
SEQEND
0
INSERT
2
SMOOTH_0$1
8
PART_TOP_2DLINE_26
10
0.5
20
-1.3
0
INSERT
2
SMOOTH_0$1
8
PART_TOP_2DLINE_26
10
1.5
20
-1.3
0
INSERT
2
SMOOTH_0$1
8
PART_TOP_2DLINE_26
10
1.5
20
-1.1
0
ENDBLK
0
BLOCK
2
STK_TOP_19
8
0
10
0
20
0
3
STK_TOP_19
70
64
0
INSERT
2
DRIL_HOLE_0
8
DRIL_PLTE_THRU_01
10
0
20
0
0
INSERT
2
DRIL_HOLE_0
8
DRIL_PLTE_THRU_02
10
0
20
0
0
INSERT
2
DRIL_HOLE_0
8
DRIL_PLTE_THRU_03
10
0
20
0
0
INSERT
2
DRIL_HOLE_0
8
DRIL_PLTE_THRU_04
10
0
20
0
0
INSERT
2
PAD_0
8
PADS_INNER
10
0
20
0
0
INSERT
2
PAD_0
8
PADS_BOT
10
0
20
0
0
INSERT
2
PAD_9
8
PADS_TOP
10
0
20
0
50
90
0
ENDBLK
0
BLOCK
2
STK_TOP_18
8
0
10
0
20
0
3
STK_TOP_18
70
64
0
INSERT
2
DRIL_HOLE_0
8
DRIL_PLTE_THRU_01
10
0
20
0
0
INSERT
2
DRIL_HOLE_0
8
DRIL_PLTE_THRU_02
10
0
20
0
0
INSERT
2
DRIL_HOLE_0
8
DRIL_PLTE_THRU_03
10
0
20
0
0
INSERT
2
DRIL_HOLE_0
8
DRIL_PLTE_THRU_04
10
0
20
0
0
INSERT
2
PAD_0
8
PADS_INNER
10
0
20
0
0
INSERT
2
PAD_0
8
PADS_BOT
10
0
20
0
0
INSERT
2
PAD_10
8
PADS_TOP
10
0
20
0
50
90
0
ENDBLK
0
BLOCK
2
PART_BODY_TOP_12
8
0
10
0
20
0
3
PART_BODY_TOP_12
70
64
0
POLYLINE
8
PART_TOP_2DLINE_01
66
1
40
0.1
41
0.1
70
1
0
VERTEX
8
PART_TOP_2DLINE_01
10
-0.5
20
0.4
0
VERTEX
8
PART_TOP_2DLINE_01
10
0.5
20
0.4
0
VERTEX
8
PART_TOP_2DLINE_01
10
0.5
20
-0.4
0
VERTEX
8
PART_TOP_2DLINE_01
10
-0.5
20
-0.4
0
SEQEND
0
INSERT
2
SMOOTH_0$1
8
PART_TOP_2DLINE_01
10
-0.5
20
0.4
0
INSERT
2
SMOOTH_0$1
8
PART_TOP_2DLINE_01
10
0.5
20
0.4
0
INSERT
2
SMOOTH_0$1
8
PART_TOP_2DLINE_01
10
0.5
20
-0.4
0
INSERT
2
SMOOTH_0$1
8
PART_TOP_2DLINE_01
10
-0.5
20
-0.4
0
POLYLINE
8
PART_TOP_2DLINE_01
66
1
40
0.1
41
0.1
70
1
0
VERTEX
8
PART_TOP_2DLINE_01
10
-0.5
20
-0.6
42
1
0
VERTEX
8
PART_TOP_2DLINE_01
10
-0.3
20
-0.6
42
1
0
SEQEND
0
ENDBLK
0
BLOCK
2
STK_TOP_41
8
0
10
0
20
0
3
STK_TOP_41
70
64
0
INSERT
2
DRIL_HOLE_0
8
DRIL_NPLTE_THRU_01
10
0
20
0
0
INSERT
2
DRIL_HOLE_0
8
DRIL_NPLTE_THRU_02
10
0
20
0
0
INSERT
2
DRIL_HOLE_0
8
DRIL_NPLTE_THRU_03
10
0
20
0
0
INSERT
2
DRIL_HOLE_0
8
DRIL_NPLTE_THRU_04
10
0
20
0
0
INSERT
2
PAD_0
8
PADS_INNER
10
0
20
0
0
INSERT
2
PAD_0
8
PADS_BOT
10
0
20
0
0
INSERT
2
PAD_11
8
PADS_TOP
10
0
20
0
0
ENDBLK
0
BLOCK
2
PART_BODY_TOP_13
8
0
10
0
20
0
3
PART_BODY_TOP_13
70
64
0
POLYLINE
8
PART_TOP_2DLINE_00
66
1
40
0.1
41
0.1
0
VERTEX
8
PART_TOP_2DLINE_00
10
-1.2
20
1.5
0
VERTEX
8
PART_TOP_2DLINE_00
10
-1.5
20
1.5
0
VERTEX
8
PART_TOP_2DLINE_00
10
-1.5
20
-1.5
0
VERTEX
8
PART_TOP_2DLINE_00
10
-1.2
20
-1.5
0
SEQEND
0
INSERT
2
SMOOTH_0$1
8
PART_TOP_2DLINE_00
10
-1.2
20
1.5
0
INSERT
2
SMOOTH_0$1
8
PART_TOP_2DLINE_00
10
-1.5
20
1.5
0
INSERT
2
SMOOTH_0$1
8
PART_TOP_2DLINE_00
10
-1.5
20
-1.5
0
INSERT
2
SMOOTH_0$1
8
PART_TOP_2DLINE_00
10
-1.2
20
-1.5
0
POLYLINE
8
PART_TOP_2DLINE_00
66
1
40
0.1
41
0.1
0
VERTEX
8
PART_TOP_2DLINE_00
10
1.2
20
-1.5
0
VERTEX
8
PART_TOP_2DLINE_00
10
1.5
20
-1.5
0
VERTEX
8
PART_TOP_2DLINE_00
10
1.5
20
1.5
0
VERTEX
8
PART_TOP_2DLINE_00
10
1.2
20
1.5
0
SEQEND
0
INSERT
2
SMOOTH_0$1
8
PART_TOP_2DLINE_00
10
1.2
20
-1.5
0
INSERT
2
SMOOTH_0$1
8
PART_TOP_2DLINE_00
10
1.5
20
-1.5
0
INSERT
2
SMOOTH_0$1
8
PART_TOP_2DLINE_00
10
1.5
20
1.5
0
INSERT
2
SMOOTH_0$1
8
PART_TOP_2DLINE_00
10
1.2
20
1.5
0
POLYLINE
8
PART_TOP_2DLINE_00
66
1
40
0.1
41
0.1
0
VERTEX
8
PART_TOP_2DLINE_00
10
-1.7
20
-1.2
0
VERTEX
8
PART_TOP_2DLINE_00
10
-1.7
20
-1.7
0
VERTEX
8
PART_TOP_2DLINE_00
10
-1.2
20
-1.7
0
SEQEND
0
INSERT
2
SMOOTH_0$1
8
PART_TOP_2DLINE_00
10
-1.7
20
-1.2
0
INSERT
2
SMOOTH_0$1
8
PART_TOP_2DLINE_00
10
-1.7
20
-1.7
0
INSERT
2
SMOOTH_0$1
8
PART_TOP_2DLINE_00
10
-1.2
20
-1.7
0
POLYLINE
8
PART_TOP_2DLINE_00
66
1
40
0.1
41
0.1
0
VERTEX
8
PART_TOP_2DLINE_00
10
-1.2
20
-1.6
0
VERTEX
8
PART_TOP_2DLINE_00
10
-1.6
20
-1.6
0
VERTEX
8
PART_TOP_2DLINE_00
10
-1.6
20
-1.2
0
SEQEND
0
INSERT
2
SMOOTH_0$1
8
PART_TOP_2DLINE_00
10
-1.2
20
-1.6
0
INSERT
2
SMOOTH_0$1
8
PART_TOP_2DLINE_00
10
-1.6
20
-1.6
0
INSERT
2
SMOOTH_0$1
8
PART_TOP_2DLINE_00
10
-1.6
20
-1.2
0
POLYLINE
8
PART_TOP_2DLINE_00
66
1
40
0.1
41
0.1
0
VERTEX
8
PART_TOP_2DLINE_00
10
-1.8
20
-1.2
0
VERTEX
8
PART_TOP_2DLINE_00
10
-1.8
20
-1.8
0
VERTEX
8
PART_TOP_2DLINE_00
10
-1.3
20
-1.8
0
SEQEND
0
INSERT
2
SMOOTH_0$1
8
PART_TOP_2DLINE_00
10
-1.8
20
-1.2
0
INSERT
2
SMOOTH_0$1
8
PART_TOP_2DLINE_00
10
-1.8
20
-1.8
0
INSERT
2
SMOOTH_0$1
8
PART_TOP_2DLINE_00
10
-1.3
20
-1.8
0
ENDBLK
0
BLOCK
2
STK_TOP_44
8
0
10
0
20
0
3
STK_TOP_44
70
64
0
INSERT
2
DRIL_HOLE_0
8
DRIL_NPLTE_THRU_01
10
0
20
0
0
INSERT
2
DRIL_HOLE_0
8
DRIL_NPLTE_THRU_02
10
0
20
0
0
INSERT
2
DRIL_HOLE_0
8
DRIL_NPLTE_THRU_03
10
0
20
0
0
INSERT
2
DRIL_HOLE_0
8
DRIL_NPLTE_THRU_04
10
0
20
0
0
INSERT
2
PAD_0
8
PADS_INNER
10
0
20
0
0
INSERT
2
PAD_0
8
PADS_BOT
10
0
20
0
0
INSERT
2
PAD_12
8
PADS_TOP
10
0
20
0
50
90
0
ENDBLK
0
BLOCK
2
STK_TOP_45
8
0
10
0
20
0
3
STK_TOP_45
70
64
0
INSERT
2
DRIL_HOLE_0
8
DRIL_NPLTE_THRU_01
10
0
20
0
0
INSERT
2
DRIL_HOLE_0
8
DRIL_NPLTE_THRU_02
10
0
20
0
0
INSERT
2
DRIL_HOLE_0
8
DRIL_NPLTE_THRU_03
10
0
20
0
0
INSERT
2
DRIL_HOLE_0
8
DRIL_NPLTE_THRU_04
10
0
20
0
0
INSERT
2
PAD_0
8
PADS_INNER
10
0
20
0
0
INSERT
2
PAD_0
8
PADS_BOT
10
0
20
0
0
INSERT
2
PAD_13
8
PADS_TOP
10
0
20
0
0
ENDBLK
0
BLOCK
2
PART_BODY_TOP_14
8
0
10
0
20
0
3
PART_BODY_TOP_14
70
64
0
POLYLINE
8
PART_TOP_2DLINE_01
66
1
40
0.1
41
0.1
70
1
0
VERTEX
8
PART_TOP_2DLINE_01
10
-7.49
20
9
0
VERTEX
8
PART_TOP_2DLINE_01
10
7.5
20
9
0
VERTEX
8
PART_TOP_2DLINE_01
10
7.5
20
-9
0
VERTEX
8
PART_TOP_2DLINE_01
10
-7.49
20
-9
0
SEQEND
0
INSERT
2
SMOOTH_0$1
8
PART_TOP_2DLINE_01
10
-7.49
20
9
0
INSERT
2
SMOOTH_0$1
8
PART_TOP_2DLINE_01
10
7.5
20
9
0
INSERT
2
SMOOTH_0$1
8
PART_TOP_2DLINE_01
10
7.5
20
-9
0
INSERT
2
SMOOTH_0$1
8
PART_TOP_2DLINE_01
10
-7.49
20
-9
0
POLYLINE
8
PART_TOP_2DLINE_01
66
1
40
0.2
41
0.2
0
VERTEX
8
PART_TOP_2DLINE_01
10
-7.455
20
6.575
0
VERTEX
8
PART_TOP_2DLINE_01
10
-5.075
20
8.955
0
SEQEND
0
INSERT
2
SMOOTH_0$2
8
PART_TOP_2DLINE_01
10
-7.455
20
6.575
0
INSERT
2
SMOOTH_0$2
8
PART_TOP_2DLINE_01
10
-5.075
20
8.955
0
POLYLINE
8
PART_TOP_2DLINE_01
66
1
40
0.2
41
0.2
0
VERTEX
8
PART_TOP_2DLINE_01
10
-7.48
20
7.14
0
VERTEX
8
PART_TOP_2DLINE_01
10
-5.67
20
8.95
0
VERTEX
8
PART_TOP_2DLINE_01
10
-5.67
20
8.97
0
SEQEND
0
INSERT
2
SMOOTH_0$2
8
PART_TOP_2DLINE_01
10
-7.48
20
7.14
0
INSERT
2
SMOOTH_0$2
8
PART_TOP_2DLINE_01
10
-5.67
20
8.95
0
INSERT
2
SMOOTH_0$2
8
PART_TOP_2DLINE_01
10
-5.67
20
8.97
0
POLYLINE
8
PART_TOP_2DLINE_01
66
1
40
0.2
41
0.2
0
VERTEX
8
PART_TOP_2DLINE_01
10
-7.42
20
7.74
0
VERTEX
8
PART_TOP_2DLINE_01
10
-6.25
20
8.91
0
SEQEND
0
INSERT
2
SMOOTH_0$2
8
PART_TOP_2DLINE_01
10
-7.42
20
7.74
0
INSERT
2
SMOOTH_0$2
8
PART_TOP_2DLINE_01
10
-6.25
20
8.91
0
POLYLINE
8
PART_TOP_2DLINE_01
66
1
40
0.2
41
0.2
0
VERTEX
8
PART_TOP_2DLINE_01
10
-7.415
20
8.345
0
VERTEX
8
PART_TOP_2DLINE_01
10
-6.855
20
8.905
0
SEQEND
0
INSERT
2
SMOOTH_0$2
8
PART_TOP_2DLINE_01
10
-7.415
20
8.345
0
INSERT
2
SMOOTH_0$2
8
PART_TOP_2DLINE_01
10
-6.855
20
8.905
0
ENDBLK
0
BLOCK
2
STK_TOP_26
8
0
10
0
20
0
3
STK_TOP_26
70
64
0
INSERT
2
DRIL_HOLE_0
8
DRIL_PLTE_THRU_01
10
0
20
0
0
INSERT
2
DRIL_HOLE_0
8
DRIL_PLTE_THRU_02
10
0
20
0
0
INSERT
2
DRIL_HOLE_0
8
DRIL_PLTE_THRU_03
10
0
20
0
0
INSERT
2
DRIL_HOLE_0
8
DRIL_PLTE_THRU_04
10
0
20
0
0
INSERT
2
PAD_14
8
PADS_INNER
10
0
20
0
0
INSERT
2
PAD_14
8
PADS_BOT
10
0
20
0
0
INSERT
2
PAD_15
8
PADS_TOP
10
0
20
0
0
ENDBLK
0
BLOCK
2
PART_BODY_TOP_15
8
0
10
0
20
0
3
PART_BODY_TOP_15
70
64
0
POLYLINE
8
PART_TOP_2DLINE_26
66
1
40
0.2
41
0.2
39
1.2
0
VERTEX
8
PART_TOP_2DLINE_26
10
-1
20
2
0
VERTEX
8
PART_TOP_2DLINE_26
10
-1
20
2.2
0
VERTEX
8
PART_TOP_2DLINE_26
10
1
20
2.2
0
VERTEX
8
PART_TOP_2DLINE_26
10
1
20
2
0
SEQEND
0
INSERT
2
SMOOTH_0$2
8
PART_TOP_2DLINE_26
10
-1
20
2
0
INSERT
2
SMOOTH_0$2
8
PART_TOP_2DLINE_26
10
-1
20
2.2
0
INSERT
2
SMOOTH_0$2
8
PART_TOP_2DLINE_26
10
1
20
2.2
0
INSERT
2
SMOOTH_0$2
8
PART_TOP_2DLINE_26
10
1
20
2
0
POLYLINE
8
PART_TOP_2DLINE_26
66
1
40
0.2
41
0.2
39
1.2
0
VERTEX
8
PART_TOP_2DLINE_26
10
-1
20
-2
0
VERTEX
8
PART_TOP_2DLINE_26
10
-1
20
-2.2
0
VERTEX
8
PART_TOP_2DLINE_26
10
1
20
-2.2
0
VERTEX
8
PART_TOP_2DLINE_26
10
1
20
-2
0
SEQEND
0
INSERT
2
SMOOTH_0$2
8
PART_TOP_2DLINE_26
10
-1
20
-2
0
INSERT
2
SMOOTH_0$2
8
PART_TOP_2DLINE_26
10
-1
20
-2.2
0
INSERT
2
SMOOTH_0$2
8
PART_TOP_2DLINE_26
10
1
20
-2.2
0
INSERT
2
SMOOTH_0$2
8
PART_TOP_2DLINE_26
10
1
20
-2
0
POLYLINE
8
PART_TOP_2DLINE_26
66
1
40
0.2
41
0.2
39
1.2
0
VERTEX
8
PART_TOP_2DLINE_26
10
-1.4
20
2.3
0
VERTEX
8
PART_TOP_2DLINE_26
10
-1.9
20
2.3
0
VERTEX
8
PART_TOP_2DLINE_26
10
-1.9
20
1.8
0
VERTEX
8
PART_TOP_2DLINE_26
10
-1.8
20
1.8
0
VERTEX
8
PART_TOP_2DLINE_26
10
-1.8
20
2.2
0
VERTEX
8
PART_TOP_2DLINE_26
10
-1.4
20
2.2
0
VERTEX
8
PART_TOP_2DLINE_26
10
-1.4
20
2.3
0
SEQEND
0
INSERT
2
SMOOTH_0$2
8
PART_TOP_2DLINE_26
10
-1.4
20
2.3
0
INSERT
2
SMOOTH_0$2
8
PART_TOP_2DLINE_26
10
-1.9
20
2.3
0
INSERT
2
SMOOTH_0$2
8
PART_TOP_2DLINE_26
10
-1.9
20
1.8
0
INSERT
2
SMOOTH_0$2
8
PART_TOP_2DLINE_26
10
-1.8
20
1.8
0
INSERT
2
SMOOTH_0$2
8
PART_TOP_2DLINE_26
10
-1.8
20
2.2
0
INSERT
2
SMOOTH_0$2
8
PART_TOP_2DLINE_26
10
-1.4
20
2.2
0
INSERT
2
SMOOTH_0$2
8
PART_TOP_2DLINE_26
10
-1.4
20
2.3
0
ENDBLK
0
BLOCK
2
STK_TOP_107
8
0
10
0
20
0
3
STK_TOP_107
70
64
0
INSERT
2
DRIL_HOLE_0
8
DRIL_NPLTE_THRU_01
10
0
20
0
0
INSERT
2
DRIL_HOLE_0
8
DRIL_NPLTE_THRU_02
10
0
20
0
0
INSERT
2
DRIL_HOLE_0
8
DRIL_NPLTE_THRU_03
10
0
20
0
0
INSERT
2
DRIL_HOLE_0
8
DRIL_NPLTE_THRU_04
10
0
20
0
0
INSERT
2
PAD_0
8
PADS_INNER
10
0
20
0
0
INSERT
2
PAD_0
8
PADS_BOT
10
0
20
0
0
INSERT
2
PAD_16
8
PADS_TOP
10
0
20
0
0
ENDBLK
0
BLOCK
2
STK_TOP_106
8
0
10
0
20
0
3
STK_TOP_106
70
64
0
INSERT
2
DRIL_HOLE_0
8
DRIL_NPLTE_THRU_01
10
0
20
0
0
INSERT
2
DRIL_HOLE_0
8
DRIL_NPLTE_THRU_02
10
0
20
0
0
INSERT
2
DRIL_HOLE_0
8
DRIL_NPLTE_THRU_03
10
0
20
0
0
INSERT
2
DRIL_HOLE_0
8
DRIL_NPLTE_THRU_04
10
0
20
0
0
INSERT
2
PAD_0
8
PADS_INNER
10
0
20
0
0
INSERT
2
PAD_0
8
PADS_BOT
10
0
20
0
0
INSERT
2
PAD_17
8
PADS_TOP
10
0
20
0
0
ENDBLK
0
BLOCK
2
PART_BODY_TOP_16
8
0
10
0
20
0
3
PART_BODY_TOP_16
70
64
0
POLYLINE
8
PART_TOP_COPPER_26
66
1
40
0.254
41
0.254
39
1.2
70
1
0
VERTEX
8
PART_TOP_COPPER_26
10
-3.7
20
5.1
0
VERTEX
8
PART_TOP_COPPER_26
10
4
20
5.1
0
VERTEX
8
PART_TOP_COPPER_26
10
4
20
-5.2
0
VERTEX
8
PART_TOP_COPPER_26
10
-3.7
20
-5.2
0
SEQEND
0
INSERT
2
SMOOTH_0$254
8
PART_TOP_COPPER_26
10
-3.7
20
5.1
0
INSERT
2
SMOOTH_0$254
8
PART_TOP_COPPER_26
10
4
20
5.1
0
INSERT
2
SMOOTH_0$254
8
PART_TOP_COPPER_26
10
4
20
-5.2
0
INSERT
2
SMOOTH_0$254
8
PART_TOP_COPPER_26
10
-3.7
20
-5.2
0
POLYLINE
8
PART_TOP_2DLINE_26
66
1
40
0.254
41
0.254
39
1.2
0
VERTEX
8
PART_TOP_2DLINE_26
10
-3.2
20
6.15
0
VERTEX
8
PART_TOP_2DLINE_26
10
-5.025
20
6.15
0
VERTEX
8
PART_TOP_2DLINE_26
10
-5.025
20
1.9
0
SEQEND
0
INSERT
2
SMOOTH_0$254
8
PART_TOP_2DLINE_26
10
-3.2
20
6.15
0
INSERT
2
SMOOTH_0$254
8
PART_TOP_2DLINE_26
10
-5.025
20
6.15
0
INSERT
2
SMOOTH_0$254
8
PART_TOP_2DLINE_26
10
-5.025
20
1.9
0
POLYLINE
8
PART_TOP_2DLINE_26
66
1
40
0.254
41
0.254
39
1.2
0
VERTEX
8
PART_TOP_2DLINE_26
10
3.2
20
6.15
0
VERTEX
8
PART_TOP_2DLINE_26
10
5.025
20
6.15
0
VERTEX
8
PART_TOP_2DLINE_26
10
5.025
20
2.1
0
SEQEND
0
INSERT
2
SMOOTH_0$254
8
PART_TOP_2DLINE_26
10
3.2
20
6.15
0
INSERT
2
SMOOTH_0$254
8
PART_TOP_2DLINE_26
10
5.025
20
6.15
0
INSERT
2
SMOOTH_0$254
8
PART_TOP_2DLINE_26
10
5.025
20
2.1
0
POLYLINE
8
PART_TOP_2DLINE_26
66
1
40
0.254
41
0.254
39
1.2
0
VERTEX
8
PART_TOP_2DLINE_26
10
-5.025
20
-1.8
0
VERTEX
8
PART_TOP_2DLINE_26
10
-5.025
20
-6.15
0
VERTEX
8
PART_TOP_2DLINE_26
10
-3.2
20
-6.15
0
SEQEND
0
INSERT
2
SMOOTH_0$254
8
PART_TOP_2DLINE_26
10
-5.025
20
-1.8
0
INSERT
2
SMOOTH_0$254
8
PART_TOP_2DLINE_26
10
-5.025
20
-6.15
0
INSERT
2
SMOOTH_0$254
8
PART_TOP_2DLINE_26
10
-3.2
20
-6.15
0
POLYLINE
8
PART_TOP_2DLINE_26
66
1
40
0.254
41
0.254
39
1.2
0
VERTEX
8
PART_TOP_2DLINE_26
10
5.025
20
-1.6
0
VERTEX
8
PART_TOP_2DLINE_26
10
5.025
20
-6.15
0
VERTEX
8
PART_TOP_2DLINE_26
10
3.2
20
-6.15
0
SEQEND
0
INSERT
2
SMOOTH_0$254
8
PART_TOP_2DLINE_26
10
5.025
20
-1.6
0
INSERT
2
SMOOTH_0$254
8
PART_TOP_2DLINE_26
10
5.025
20
-6.15
0
INSERT
2
SMOOTH_0$254
8
PART_TOP_2DLINE_26
10
3.2
20
-6.15
0
POLYLINE
8
PART_TOP_COPPER_26
66
1
40
0.254
41
0.254
39
1.2
70
1
0
VERTEX
8
PART_TOP_COPPER_26
10
3.9
20
-5
0
VERTEX
8
PART_TOP_COPPER_26
10
4.9
20
-5
0
VERTEX
8
PART_TOP_COPPER_26
10
4.9
20
-6.1
0
VERTEX
8
PART_TOP_COPPER_26
10
3.9
20
-6.1
0
SEQEND
0
INSERT
2
SMOOTH_0$254
8
PART_TOP_COPPER_26
10
3.9
20
-5
0
INSERT
2
SMOOTH_0$254
8
PART_TOP_COPPER_26
10
4.9
20
-5
0
INSERT
2
SMOOTH_0$254
8
PART_TOP_COPPER_26
10
4.9
20
-6.1
0
INSERT
2
SMOOTH_0$254
8
PART_TOP_COPPER_26
10
3.9
20
-6.1
0
ENDBLK
0
BLOCK
2
STK_TOP_86
8
0
10
0
20
0
3
STK_TOP_86
70
64
0
INSERT
2
DRIL_HOLE_0
8
DRIL_NPLTE_THRU_01
10
0
20
0
0
INSERT
2
DRIL_HOLE_0
8
DRIL_NPLTE_THRU_02
10
0
20
0
0
INSERT
2
DRIL_HOLE_0
8
DRIL_NPLTE_THRU_03
10
0
20
0
0
INSERT
2
DRIL_HOLE_0
8
DRIL_NPLTE_THRU_04
10
0
20
0
0
INSERT
2
PAD_0
8
PADS_INNER
10
0
20
0
0
INSERT
2
PAD_0
8
PADS_BOT
10
0
20
0
0
INSERT
2
PAD_18
8
PADS_TOP
10
0
20
0
50
90
0
ENDBLK
0
BLOCK
2
STK_TOP_87
8
0
10
0
20
0
3
STK_TOP_87
70
64
0
INSERT
2
DRIL_HOLE_0
8
DRIL_NPLTE_THRU_01
10
0
20
0
0
INSERT
2
DRIL_HOLE_0
8
DRIL_NPLTE_THRU_02
10
0
20
0
0
INSERT
2
DRIL_HOLE_0
8
DRIL_NPLTE_THRU_03
10
0
20
0
0
INSERT
2
DRIL_HOLE_0
8
DRIL_NPLTE_THRU_04
10
0
20
0
0
INSERT
2
PAD_0
8
PADS_INNER
10
0
20
0
0
INSERT
2
PAD_0
8
PADS_BOT
10
0
20
0
0
INSERT
2
PAD_19
8
PADS_TOP
10
0
20
0
50
90
0
ENDBLK
0
BLOCK
2
STK_TOP_88
8
0
10
0
20
0
3
STK_TOP_88
70
64
0
INSERT
2
DRIL_HOLE_1$05
8
DRIL_PLTE_THRU_01
10
0
20
0
0
INSERT
2
DRIL_HOLE_1$05
8
DRIL_PLTE_THRU_02
10
0
20
0
0
INSERT
2
DRIL_HOLE_1$05
8
DRIL_PLTE_THRU_03
10
0
20
0
0
INSERT
2
DRIL_HOLE_1$05
8
DRIL_PLTE_THRU_04
10
0
20
0
0
INSERT
2
PAD_20
8
PADS_INNER
10
0
20
0
0
INSERT
2
PAD_20
8
PADS_BOT
10
0
20
0
0
INSERT
2
PAD_20
8
PADS_TOP
10
0
20
0
0
ENDBLK
0
BLOCK
2
STK_TOP_89
8
0
10
0
20
0
3
STK_TOP_89
70
64
0
INSERT
2
DRIL_HOLE_0$85
8
DRIL_PLTE_THRU_01
10
0
20
0
0
INSERT
2
DRIL_HOLE_0$85
8
DRIL_PLTE_THRU_02
10
0
20
0
0
INSERT
2
DRIL_HOLE_0$85
8
DRIL_PLTE_THRU_03
10
0
20
0
0
INSERT
2
DRIL_HOLE_0$85
8
DRIL_PLTE_THRU_04
10
0
20
0
0
INSERT
2
PAD_21
8
PADS_INNER
10
0
20
0
0
INSERT
2
PAD_21
8
PADS_BOT
10
0
20
0
0
INSERT
2
PAD_21
8
PADS_TOP
10
0
20
0
0
ENDBLK
0
BLOCK
2
PART_BODY_TOP_34
8
0
10
0
20
0
3
PART_BODY_TOP_34
70
64
0
POLYLINE
8
PART_TOP_2DLINE_01
66
1
40
0.1
41
0.1
70
1
0
VERTEX
8
PART_TOP_2DLINE_01
10
-0.9
20
0.45
0
VERTEX
8
PART_TOP_2DLINE_01
10
0.9
20
0.45
0
VERTEX
8
PART_TOP_2DLINE_01
10
0.9
20
-0.45
0
VERTEX
8
PART_TOP_2DLINE_01
10
-0.9
20
-0.45
0
SEQEND
0
INSERT
2
SMOOTH_0$1
8
PART_TOP_2DLINE_01
10
-0.9
20
0.45
0
INSERT
2
SMOOTH_0$1
8
PART_TOP_2DLINE_01
10
0.9
20
0.45
0
INSERT
2
SMOOTH_0$1
8
PART_TOP_2DLINE_01
10
0.9
20
-0.45
0
INSERT
2
SMOOTH_0$1
8
PART_TOP_2DLINE_01
10
-0.9
20
-0.45
0
ENDBLK
0
BLOCK
2
STK_TOP_9
8
0
10
0
20
0
3
STK_TOP_9
70
64
0
INSERT
2
DRIL_HOLE_0
8
DRIL_PLTE_THRU_01
10
0
20
0
0
INSERT
2
DRIL_HOLE_0
8
DRIL_PLTE_THRU_02
10
0
20
0
0
INSERT
2
DRIL_HOLE_0
8
DRIL_PLTE_THRU_03
10
0
20
0
0
INSERT
2
DRIL_HOLE_0
8
DRIL_PLTE_THRU_04
10
0
20
0
0
INSERT
2
PAD_0
8
PADS_INNER
10
0
20
0
0
INSERT
2
PAD_0
8
PADS_BOT
10
0
20
0
0
INSERT
2
PAD_22
8
PADS_TOP
10
0
20
0
0
ENDBLK
0
BLOCK
2
SYM_TOP_17
8
0
10
0
20
0
3
SYM_TOP_17
70
64
0
TEXT
8
SYM_NAME
10
0
20
0
40
1.778
1
ULCE0158A015
41
0.75
0
TEXT
8
SYM_PART_NAME_01
10
-1.117
20
0.778
40
0.7
1
 
41
0.75
7
W0$1R0
0
TEXT
8
SYM_PART_TYPE_01
10
-1.124
20
1.652
40
0.7
1
 
41
0.75
7
W0$1R0
0
INSERT
2
PART_BODY_TOP_33
8
0
10
0
20
0
0
INSERT
2
STK_TOP_9
8
0
10
-0.45
20
0
0
TEXT
8
SYM_TERMINAL
10
0
20
-3.048
40
1.778
1
1
0
INSERT
2
STK_TOP_9
8
0
10
0.45
20
0
0
TEXT
8
SYM_TERMINAL
10
0
20
-6.096
40
1.778
1
2
0
ENDBLK
0
BLOCK
2
PART_BODY_TOP_35
8
0
10
0
20
0
3
PART_BODY_TOP_35
70
64
0
POLYLINE
8
PART_TOP_2DLINE_01
66
1
40
0.1
41
0.1
70
1
0
VERTEX
8
PART_TOP_2DLINE_01
10
-0.85
20
-0.3
0
VERTEX
8
PART_TOP_2DLINE_01
10
0.85
20
-0.3
0
VERTEX
8
PART_TOP_2DLINE_01
10
0.85
20
0.3
0
VERTEX
8
PART_TOP_2DLINE_01
10
-0.85
20
0.3
0
SEQEND
0
INSERT
2
SMOOTH_0$1
8
PART_TOP_2DLINE_01
10
-0.85
20
-0.3
0
INSERT
2
SMOOTH_0$1
8
PART_TOP_2DLINE_01
10
0.85
20
-0.3
0
INSERT
2
SMOOTH_0$1
8
PART_TOP_2DLINE_01
10
0.85
20
0.3
0
INSERT
2
SMOOTH_0$1
8
PART_TOP_2DLINE_01
10
-0.85
20
0.3
0
POLYLINE
8
PART_TOP_2DLINE_01
66
1
40
0.1
41
0.1
0
VERTEX
8
PART_TOP_2DLINE_01
10
0.8145
20
0.0895
0
VERTEX
8
PART_TOP_2DLINE_01
10
0.4375
20
-0.2875
0
SEQEND
0
INSERT
2
SMOOTH_0$1
8
PART_TOP_2DLINE_01
10
0.8145
20
0.0895
0
INSERT
2
SMOOTH_0$1
8
PART_TOP_2DLINE_01
10
0.4375
20
-0.2875
0
POLYLINE
8
PART_TOP_2DLINE_01
66
1
40
0.1
41
0.1
0
VERTEX
8
PART_TOP_2DLINE_01
10
0.775
20
0.275
0
VERTEX
8
PART_TOP_2DLINE_01
10
0.225
20
-0.275
0
SEQEND
0
INSERT
2
SMOOTH_0$1
8
PART_TOP_2DLINE_01
10
0.775
20
0.275
0
INSERT
2
SMOOTH_0$1
8
PART_TOP_2DLINE_01
10
0.225
20
-0.275
0
POLYLINE
8
PART_TOP_2DLINE_01
66
1
40
0.1
41
0.1
0
VERTEX
8
PART_TOP_2DLINE_01
10
0.8505
20
-0.0995
0
VERTEX
8
PART_TOP_2DLINE_01
10
0.675
20
-0.275
0
SEQEND
0
INSERT
2
SMOOTH_0$1
8
PART_TOP_2DLINE_01
10
0.8505
20
-0.0995
0
INSERT
2
SMOOTH_0$1
8
PART_TOP_2DLINE_01
10
0.675
20
-0.275
0
POLYLINE
8
PART_TOP_2DLINE_01
66
1
40
0.1
41
0.1
0
VERTEX
8
PART_TOP_2DLINE_01
10
-0.15
20
0
0
VERTEX
8
PART_TOP_2DLINE_01
10
0.15
20
0
0
SEQEND
0
INSERT
2
SMOOTH_0$1
8
PART_TOP_2DLINE_01
10
-0.15
20
0
0
INSERT
2
SMOOTH_0$1
8
PART_TOP_2DLINE_01
10
0.15
20
0
0
POLYLINE
8
PART_TOP_2DLINE_01
66
1
40
0.1
41
0.1
0
VERTEX
8
PART_TOP_2DLINE_01
10
0
20
0.125
0
VERTEX
8
PART_TOP_2DLINE_01
10
0
20
-0.125
0
SEQEND
0
INSERT
2
SMOOTH_0$1
8
PART_TOP_2DLINE_01
10
0
20
0.125
0
INSERT
2
SMOOTH_0$1
8
PART_TOP_2DLINE_01
10
0
20
-0.125
0
ENDBLK
0
BLOCK
2
STK_TOP_123
8
0
10
0
20
0
3
STK_TOP_123
70
64
0
INSERT
2
DRIL_HOLE_0
8
DRIL_PLTE_THRU_01
10
0
20
0
0
INSERT
2
DRIL_HOLE_0
8
DRIL_PLTE_THRU_02
10
0
20
0
0
INSERT
2
DRIL_HOLE_0
8
DRIL_PLTE_THRU_03
10
0
20
0
0
INSERT
2
DRIL_HOLE_0
8
DRIL_PLTE_THRU_04
10
0
20
0
0
INSERT
2
PAD_0
8
PADS_INNER
10
0
20
0
0
INSERT
2
PAD_0
8
PADS_BOT
10
0
20
0
0
INSERT
2
PAD_23
8
PADS_TOP
10
0
20
0
50
90
0
ENDBLK
0
BLOCK
2
PART_BODY_TOP_36
8
0
10
0
20
0
3
PART_BODY_TOP_36
70
64
0
POLYLINE
8
PART_TOP_2DLINE_00
66
1
40
0.1
41
0.1
0
VERTEX
8
PART_TOP_2DLINE_00
10
-0.15011
20
0
0
VERTEX
8
PART_TOP_2DLINE_00
10
0.15011
20
0
0
SEQEND
0
INSERT
2
SMOOTH_0$1
8
PART_TOP_2DLINE_00
10
-0.15011
20
0
0
INSERT
2
SMOOTH_0$1
8
PART_TOP_2DLINE_00
10
0.15011
20
0
0
POLYLINE
8
PART_TOP_2DLINE_00
66
1
40
0.1
41
0.1
0
VERTEX
8
PART_TOP_2DLINE_00
10
0
20
0.15011
0
VERTEX
8
PART_TOP_2DLINE_00
10
0
20
-0.15011
0
SEQEND
0
INSERT
2
SMOOTH_0$1
8
PART_TOP_2DLINE_00
10
0
20
0.15011
0
INSERT
2
SMOOTH_0$1
8
PART_TOP_2DLINE_00
10
0
20
-0.15011
0
POLYLINE
8
PART_TOP_2DLINE_01
66
1
40
0.11
41
0.11
70
1
0
VERTEX
8
PART_TOP_2DLINE_01
10
-0.45
20
0.6
0
VERTEX
8
PART_TOP_2DLINE_01
10
0.45
20
0.6
0
VERTEX
8
PART_TOP_2DLINE_01
10
0.45
20
-0.6
0
VERTEX
8
PART_TOP_2DLINE_01
10
-0.45
20
-0.6
0
SEQEND
0
INSERT
2
SMOOTH_0$11
8
PART_TOP_2DLINE_01
10
-0.45
20
0.6
0
INSERT
2
SMOOTH_0$11
8
PART_TOP_2DLINE_01
10
0.45
20
0.6
0
INSERT
2
SMOOTH_0$11
8
PART_TOP_2DLINE_01
10
0.45
20
-0.6
0
INSERT
2
SMOOTH_0$11
8
PART_TOP_2DLINE_01
10
-0.45
20
-0.6
0
ENDBLK
0
BLOCK
2
STK_TOP_120
8
0
10
0
20
0
3
STK_TOP_120
70
64
0
INSERT
2
DRIL_HOLE_0
8
DRIL_PLTE_THRU_01
10
0
20
0
0
INSERT
2
DRIL_HOLE_0
8
DRIL_PLTE_THRU_02
10
0
20
0
0
INSERT
2
DRIL_HOLE_0
8
DRIL_PLTE_THRU_03
10
0
20
0
0
INSERT
2
DRIL_HOLE_0
8
DRIL_PLTE_THRU_04
10
0
20
0
0
INSERT
2
PAD_0
8
PADS_INNER
10
0
20
0
0
INSERT
2
PAD_0
8
PADS_BOT
10
0
20
0
0
INSERT
2
PAD_24
8
PADS_TOP
10
0
20
0
50
90
0
ENDBLK
0
BLOCK
2
STK_TOP_121
8
0
10
0
20
0
3
STK_TOP_121
70
64
0
INSERT
2
DRIL_HOLE_0
8
DRIL_PLTE_THRU_01
10
0
20
0
0
INSERT
2
DRIL_HOLE_0
8
DRIL_PLTE_THRU_02
10
0
20
0
0
INSERT
2
DRIL_HOLE_0
8
DRIL_PLTE_THRU_03
10
0
20
0
0
INSERT
2
DRIL_HOLE_0
8
DRIL_PLTE_THRU_04
10
0
20
0
0
INSERT
2
PAD_0
8
PADS_INNER
10
0
20
0
0
INSERT
2
PAD_0
8
PADS_BOT
10
0
20
0
0
INSERT
2
PAD_25
8
PADS_TOP
10
0
20
0
0
ENDBLK
0
BLOCK
2
PART_BODY_TOP_33
8
0
10
0
20
0
3
PART_BODY_TOP_33
70
64
0
POLYLINE
8
PART_TOP_2DLINE_01
66
1
40
0.1
41
0.1
70
1
0
VERTEX
8
PART_TOP_2DLINE_01
10
-0.9
20
0.45
0
VERTEX
8
PART_TOP_2DLINE_01
10
0.9
20
0.45
0
VERTEX
8
PART_TOP_2DLINE_01
10
0.9
20
-0.45
0
VERTEX
8
PART_TOP_2DLINE_01
10
-0.9
20
-0.45
0
SEQEND
0
INSERT
2
SMOOTH_0$1
8
PART_TOP_2DLINE_01
10
-0.9
20
0.45
0
INSERT
2
SMOOTH_0$1
8
PART_TOP_2DLINE_01
10
0.9
20
0.45
0
INSERT
2
SMOOTH_0$1
8
PART_TOP_2DLINE_01
10
0.9
20
-0.45
0
INSERT
2
SMOOTH_0$1
8
PART_TOP_2DLINE_01
10
-0.9
20
-0.45
0
ENDBLK
999
*** POWERPCB  PCB PARAMETER ***
0
BLOCK
2
PCB_PARAMS
8
0
10
0
20
0
3
PCB_PARAMS
70
64
999
 *  1.Job name           2.Backupfile name       3.CursorType
999
 *  4.TearDropFlag       5.HighlighNetsFlag      6.HatchDisplayFlag
999
 *  7.PadsFlag           8.TracksFlag            9.ViasFlag
999
 * 10.CopperFlag        11.LinesFlag            12.TextFlag
999
 * 13.TopComponentFlag  14.BottomComponentFlag  16.ObjectSnapFlags
0
TEXT
8
PCB_PARAMS
10
0
20
-3.048
40
1.778
1
A:=ME310G1EVBPCBFINAL_240205.pcb <> 3 1 1 1 1 1 1 1 1 1 1 1 0 502 0
999
 *  1.RefDesHeight       2.RefDesWidth           3.DefaultWidth
999
 *  4.VGX                5.VGY                   6.OVR
999
 *  7.HatchGrid          8.ObjectSnapRadius
0
TEXT
8
PCB_PARAMS
10
0
20
-6.096
40
1.778
1
B:=2.54 0.254 0.1 0.1 0.1 0 0.1 0.1
999
 *  1.ScaleFactor        2.NetAttributeFlags     3.BackupInterval
999
 *  4.WorkingLevel       5.HatchMode             6.HatchDirection
999
 *  7.ConnectionColor    8.BackgroundColor       9.ForegroundColor
999
 * 10.BoardOutlineColor
0
TEXT
8
PCB_PARAMS
10
0
20
-9.144
40
1.778
1
C:=5.5309205055 10002 20 1 0 0 15 0 8 8
999
 * MitreAngle0 - MitreAngle6
0
TEXT
8
PCB_PARAMS
10
0
20
-12.192
40
1.778
1
D:=324000000 324000000 324000000 324000000 324000000 324000000 324000000
999
 * Hatch & Keepout Parameters
0
TEXT
8
PCB_PARAMS
10
0
20
-15.24
40
1.778
1
E:=0.5 0 0 2.54 2 1
999
 * Fanout Parameters
0
TEXT
8
PCB_PARAMS
10
0
20
-18.288
40
1.778
1
F:=0.635 0.635 6.35 1 2 0 1 1 0 0 1 1 1 1
999
 * Pad Entry Parameters
0
TEXT
8
PCB_PARAMS
10
0
20
-21.336
40
1.778
1
P:= 1 1 1 1
999
 * DFF Parameters
0
TEXT
8
PCB_PARAMS
10
0
20
-24.384
40
1.778
1
Q:=89.9999 3967 114300 114300 114300 5 4 114300 114300 114300 114300 1 114300 1 114300 1 114300 0
0
ENDBLK
0
BLOCK
2
DRIL_SYMBOL_0
8
0
10
0
20
0
3
DRIL_SYMBOL_0
70
64
0
ENDBLK
0
BLOCK
2
DRIL_SYMBOL_1
8
0
10
0
20
0
3
DRIL_SYMBOL_1
70
64
0
POLYLINE
8
DRIL_SYMBOL
66
1
40
0.0508
41
0.0508
0
VERTEX
8
DRIL_SYMBOL
10
0
20
-0.254
0
VERTEX
8
DRIL_SYMBOL
10
0
20
0.254
0
SEQEND
0
POLYLINE
8
DRIL_SYMBOL
66
1
40
0.0508
41
0.0508
0
VERTEX
8
DRIL_SYMBOL
10
-0.254
20
0
0
VERTEX
8
DRIL_SYMBOL
10
0.254
20
0
0
SEQEND
0
ENDBLK
0
BLOCK
2
DRIL_SYMBOL_1$05
8
0
10
0
20
0
3
DRIL_SYMBOL_1$05
70
64
0
POLYLINE
8
DRIL_SYMBOL
66
1
40
0.0508
41
0.0508
0
VERTEX
8
DRIL_SYMBOL
10
0
20
-0.254
0
VERTEX
8
DRIL_SYMBOL
10
0
20
0.254
0
SEQEND
0
POLYLINE
8
DRIL_SYMBOL
66
1
40
0.0508
41
0.0508
0
VERTEX
8
DRIL_SYMBOL
10
-0.254
20
0
0
VERTEX
8
DRIL_SYMBOL
10
0.254
20
0
0
SEQEND
0
ENDBLK
0
BLOCK
2
DRIL_SYMBOL_0$85
8
0
10
0
20
0
3
DRIL_SYMBOL_0$85
70
64
0
POLYLINE
8
DRIL_SYMBOL
66
1
40
0.0508
41
0.0508
0
VERTEX
8
DRIL_SYMBOL
10
0
20
-0.254
0
VERTEX
8
DRIL_SYMBOL
10
0
20
0.254
0
SEQEND
0
POLYLINE
8
DRIL_SYMBOL
66
1
40
0.0508
41
0.0508
0
VERTEX
8
DRIL_SYMBOL
10
-0.254
20
0
0
VERTEX
8
DRIL_SYMBOL
10
0.254
20
0
0
SEQEND
0
ENDBLK
999
*** POWERPCB  SMOOTH CIRCLE ***
0
BLOCK
2
SMOOTH_0$1
8
0
10
0
20
0
3
SMOOTH_0$1
70
64
0
POLYLINE
8
0
66
1
40
0.05
41
0.05
70
1
0
VERTEX
8
0
10
-0.025
20
0
42
1
0
VERTEX
8
0
10
0.025
20
0
42
1
0
SEQEND
0
ENDBLK
0
BLOCK
2
SMOOTH_0$2
8
0
10
0
20
0
3
SMOOTH_0$2
70
64
0
POLYLINE
8
0
66
1
40
0.1
41
0.1
70
1
0
VERTEX
8
0
10
-0.05
20
0
42
1
0
VERTEX
8
0
10
0.05
20
0
42
1
0
SEQEND
0
ENDBLK
0
BLOCK
2
SMOOTH_0$254
8
0
10
0
20
0
3
SMOOTH_0$254
70
64
0
POLYLINE
8
0
66
1
40
0.127
41
0.127
70
1
0
VERTEX
8
0
10
-0.0635
20
0
42
1
0
VERTEX
8
0
10
0.0635
20
0
42
1
0
SEQEND
0
ENDBLK
0
BLOCK
2
SMOOTH_0$11
8
0
10
0
20
0
3
SMOOTH_0$11
70
64
0
POLYLINE
8
0
66
1
40
0.055
41
0.055
70
1
0
VERTEX
8
0
10
-0.0275
20
0
42
1
0
VERTEX
8
0
10
0.0275
20
0
42
1
0
SEQEND
0
ENDBLK
0
BLOCK
2
PAD_0
8
0
10
0
20
0
3
PAD_0
70
64
0
POLYLINE
8
0
70
1
66
1
0
VERTEX
8
0
10
0
20
0
42
1
0
VERTEX
8
0
10
0
20
0
42
1
0
SEQEND
0
ENDBLK
0
BLOCK
2
PAD_1
8
0
10
0
20
0
3
PAD_1
70
64
0
POLYLINE
8
0
66
1
40
0.5
41
0.5
0
VERTEX
8
0
10
-0.25
20
0
0
VERTEX
8
0
10
0.25
20
0
0
SEQEND
0
ENDBLK
0
BLOCK
2
PAD_2
8
0
10
0
20
0
3
PAD_2
70
64
0
POLYLINE
8
0
66
1
40
0.3
41
0.3
0
VERTEX
8
0
10
-0.15
20
0
0
VERTEX
8
0
10
0.15
20
0
0
SEQEND
0
ENDBLK
0
BLOCK
2
PAD_3
8
0
10
0
20
0
3
PAD_3
70
64
0
POLYLINE
8
0
66
1
40
1.2
41
1.2
0
VERTEX
8
0
10
-1.25
20
0
0
VERTEX
8
0
10
1.25
20
0
0
SEQEND
0
ENDBLK
0
BLOCK
2
PAD_4
8
0
10
0
20
0
3
PAD_4
70
64
0
POLYLINE
8
0
66
1
40
0.762
41
0.762
0
VERTEX
8
0
10
-0.508
20
0
0
VERTEX
8
0
10
0.508
20
0
0
SEQEND
0
ENDBLK
0
BLOCK
2
PAD_5
8
0
10
0
20
0
3
PAD_5
70
64
0
POLYLINE
8
0
66
1
40
0.63
41
0.63
0
VERTEX
8
0
10
-0.415
20
0
0
VERTEX
8
0
10
0.415
20
0
0
SEQEND
0
ENDBLK
0
BLOCK
2
PAD_6
8
0
10
0
20
0
3
PAD_6
70
64
0
POLYLINE
8
0
66
1
40
1.4
41
1.4
0
VERTEX
8
0
10
-0.7
20
0
0
VERTEX
8
0
10
0.7
20
0
0
SEQEND
0
ENDBLK
0
BLOCK
2
PAD_7
8
0
10
0
20
0
3
PAD_7
70
64
0
POLYLINE
8
0
66
1
40
1.4
41
1.4
0
VERTEX
8
0
10
-1.2
20
0
0
VERTEX
8
0
10
1.2
20
0
0
SEQEND
0
ENDBLK
0
BLOCK
2
PAD_8
8
0
10
0
20
0
3
PAD_8
70
64
0
POLYLINE
8
0
70
1
66
1
40
0.25
41
0.25
0
VERTEX
8
0
10
0
20
-0.125
42
1
0
VERTEX
8
0
10
0
20
0.125
42
1
0
SEQEND
0
ENDBLK
0
BLOCK
2
PAD_9
8
0
10
0
20
0
3
PAD_9
70
64
0
POLYLINE
8
0
66
1
40
1
41
1
0
VERTEX
8
0
10
-0.55
20
0
0
VERTEX
8
0
10
0.55
20
0
0
SEQEND
0
ENDBLK
0
BLOCK
2
PAD_10
8
0
10
0
20
0
3
PAD_10
70
64
0
POLYLINE
8
0
66
1
40
1.05
41
1.05
0
VERTEX
8
0
10
-1.1
20
0
0
VERTEX
8
0
10
1.1
20
0
0
SEQEND
0
ENDBLK
0
BLOCK
2
PAD_11
8
0
10
0
20
0
3
PAD_11
70
64
0
POLYLINE
8
0
66
1
40
0.2
41
0.2
0
VERTEX
8
0
10
-0.1
20
0
0
VERTEX
8
0
10
0.1
20
0
0
SEQEND
0
ENDBLK
0
BLOCK
2
PAD_12
8
0
10
0
20
0
3
PAD_12
70
64
0
POLYLINE
8
0
66
1
40
0.3
41
0.3
0
VERTEX
8
0
10
-0.2625
20
0
0
VERTEX
8
0
10
0.2625
20
0
0
SEQEND
0
ENDBLK
0
BLOCK
2
PAD_13
8
0
10
0
20
0
3
PAD_13
70
64
0
POLYLINE
8
0
66
1
40
1.6
41
1.6
0
VERTEX
8
0
10
-1.175
20
0
0
VERTEX
8
0
10
1.175
20
0
0
SEQEND
0
ENDBLK
0
BLOCK
2
PAD_14
8
0
10
0
20
0
3
PAD_14
70
64
0
POLYLINE
8
0
66
1
0
VERTEX
8
0
10
0
20
0
0
VERTEX
8
0
10
0
20
0
0
SEQEND
0
ENDBLK
0
BLOCK
2
PAD_15
8
0
10
0
20
0
3
PAD_15
70
64
0
POLYLINE
8
0
66
1
40
0.6
41
0.6
0
VERTEX
8
0
10
-0.3
20
0
0
VERTEX
8
0
10
0.3
20
0
0
SEQEND
0
ENDBLK
0
BLOCK
2
PAD_16
8
0
10
0
20
0
3
PAD_16
70
64
0
POLYLINE
8
0
66
1
40
0.2
41
0.2
0
VERTEX
8
0
10
-0.55
20
0
0
VERTEX
8
0
10
0.55
20
0
0
SEQEND
0
ENDBLK
0
BLOCK
2
PAD_17
8
0
10
0
20
0
3
PAD_17
70
64
0
POLYLINE
8
0
66
1
40
0.2
41
0.2
0
VERTEX
8
0
10
-0.5
20
0
0
VERTEX
8
0
10
0.5
20
0
0
SEQEND
0
ENDBLK
0
BLOCK
2
PAD_18
8
0
10
0
20
0
3
PAD_18
70
64
0
POLYLINE
8
0
66
1
40
0.9
41
0.9
0
VERTEX
8
0
10
-0.55
20
0
0
VERTEX
8
0
10
0.55
20
0
0
SEQEND
0
ENDBLK
0
BLOCK
2
PAD_19
8
0
10
0
20
0
3
PAD_19
70
64
0
POLYLINE
8
0
66
1
40
1
41
1
0
VERTEX
8
0
10
-1.645
20
0
0
VERTEX
8
0
10
1.645
20
0
0
SEQEND
0
ENDBLK
0
BLOCK
2
PAD_20
8
0
10
0
20
0
3
PAD_20
70
64
0
POLYLINE
8
0
70
1
66
1
40
0.675
41
0.675
0
VERTEX
8
0
10
0
20
-0.3375
42
1
0
VERTEX
8
0
10
0
20
0.3375
42
1
0
SEQEND
0
ENDBLK
0
BLOCK
2
PAD_21
8
0
10
0
20
0
3
PAD_21
70
64
0
POLYLINE
8
0
70
1
66
1
40
0.575
41
0.575
0
VERTEX
8
0
10
0
20
-0.2875
42
1
0
VERTEX
8
0
10
0
20
0.2875
42
1
0
SEQEND
0
ENDBLK
0
BLOCK
2
PAD_22
8
0
10
0
20
0
3
PAD_22
70
64
0
POLYLINE
8
0
66
1
40
0.55
41
0.55
0
VERTEX
8
0
10
-0.275
20
0
0
VERTEX
8
0
10
0.275
20
0
0
SEQEND
0
ENDBLK
0
BLOCK
2
PAD_23
8
0
10
0
20
0
3
PAD_23
70
64
0
POLYLINE
8
0
66
1
40
0.5
41
0.5
0
VERTEX
8
0
10
-0.35
20
0
0
VERTEX
8
0
10
0.35
20
0
0
SEQEND
0
ENDBLK
0
BLOCK
2
PAD_24
8
0
10
0
20
0
3
PAD_24
70
64
0
POLYLINE
8
0
66
1
40
0.3
41
0.3
0
VERTEX
8
0
10
-0.2
20
0
0
VERTEX
8
0
10
0.2
20
0
0
SEQEND
0
ENDBLK
0
BLOCK
2
PAD_25
8
0
10
0
20
0
3
PAD_25
70
64
0
POLYLINE
8
0
66
1
40
0.4
41
0.4
0
VERTEX
8
0
10
-0.325
20
0
0
VERTEX
8
0
10
0.325
20
0
0
SEQEND
0
ENDBLK
999
*** POWERPCB  DRILL HOLE ***
0
BLOCK
2
DRIL_HOLE_0
8
0
10
0
20
0
3
DRIL_HOLE_0
70
64
0
POLYLINE
8
0
66
1
70
1
0
VERTEX
8
0
10
0
20
0
42
1
0
VERTEX
8
0
10
0
20
0
42
1
0
SEQEND
0
INSERT
2
DRIL_SYMBOL_0
8
0
10
0
20
0
0
ENDBLK
0
BLOCK
2
DRIL_HOLE_1
8
0
10
0
20
0
3
DRIL_HOLE_1
70
64
0
POLYLINE
8
0
66
1
40
0.5
41
0.5
70
1
0
VERTEX
8
0
10
-0.25
20
0
42
1
0
VERTEX
8
0
10
0.25
20
0
42
1
0
SEQEND
0
INSERT
2
DRIL_SYMBOL_1
8
0
10
0
20
0
0
ENDBLK
0
BLOCK
2
DRIL_HOLE_1$05
8
0
10
0
20
0
3
DRIL_HOLE_1$05
70
64
0
POLYLINE
8
0
66
1
40
0.525
41
0.525
70
1
0
VERTEX
8
0
10
-0.2625
20
0
42
1
0
VERTEX
8
0
10
0.2625
20
0
42
1
0
SEQEND
0
INSERT
2
DRIL_SYMBOL_1$05
8
0
10
0
20
0
0
ENDBLK
0
BLOCK
2
DRIL_HOLE_0$85
8
0
10
0
20
0
3
DRIL_HOLE_0$85
70
64
0
POLYLINE
8
0
66
1
40
0.425
41
0.425
70
1
0
VERTEX
8
0
10
-0.2125
20
0
42
1
0
VERTEX
8
0
10
0.2125
20
0
42
1
0
SEQEND
0
INSERT
2
DRIL_SYMBOL_0$85
8
0
10
0
20
0
0
ENDBLK
0
ENDSEC
0
SECTION
2
ENTITIES
999
*** POWERPCB  DBLAYER ***
0
INSERT
2
DBLAYERS
8
0
10
0
20
0
999
*** POWERPCB  BOARD ***
0
INSERT
2
BOARD_1
8
0
10
-0.35
20
30.3
999
*** POWERPCB  2DLINE ***
0
INSERT
2
D_2dfeghi_31
8
0
10
0
20
0
0
INSERT
2
D_1dfeghi_32
8
0
10
0
20
54
999
*** POWERPCB  COMPONENT ***
0
INSERT
2
PART_TOP_0
8
0
10
2.3
20
50.4
0
INSERT
2
PART_TOP_1
8
0
10
3.35
20
31.6
50
180
0
INSERT
2
PART_TOP_2
8
0
10
2.45
20
37.1
50
90
0
INSERT
2
PART_TOP_3
8
0
10
21.2
20
37.5
50
90
0
INSERT
2
PART_TOP_4
8
0
10
3.2
20
34
50
180
0
INSERT
2
PART_TOP_5
8
0
10
9.1
20
15.14
50
90
0
INSERT
2
PART_TOP_6
8
0
10
13.3
20
18.5
50
270
0
INSERT
2
PART_TOP_7
8
0
10
7.17
20
19.23
50
90
0
INSERT
2
PART_TOP_8
8
0
10
6.2
20
19.08
50
90
0
INSERT
2
PART_TOP_9
8
0
10
3.75
20
20.8
50
180
0
INSERT
2
PART_TOP_10
8
0
10
3.55
20
23.3
50
180
0
INSERT
2
PART_TOP_11
8
0
10
2.3
20
47.3
0
INSERT
2
PART_TOP_12
8
0
10
19.46
20
1.4
0
INSERT
2
PART_TOP_13
8
0
10
19.26
20
2.4
0
INSERT
2
PART_TOP_14
8
0
10
4.97
20
5.42
50
180
0
INSERT
2
PART_TOP_15
8
0
10
5.05
20
2.26
50
180
0
INSERT
2
PART_TOP_16
8
0
10
20.84
20
24.62
0
INSERT
2
PART_TOP_17
8
0
10
20.84
20
23.49
0
INSERT
2
PART_TOP_18
8
0
10
20.69
20
22.65
0
INSERT
2
PART_TOP_19
8
0
10
15.5
20
24.2
50
90
0
INSERT
2
PART_TOP_20
8
0
10
14.4
20
24.2
50
90
0
INSERT
2
PART_TOP_21
8
0
10
13.4
20
24.05
50
90
0
INSERT
2
PART_TOP_22
8
0
10
22.16
20
40.45
50
90
0
INSERT
2
PART_TOP_23
8
0
10
23
20
23.1
50
180
0
INSERT
2
PART_TOP_24
8
0
10
22.1
20
45.35
0
INSERT
2
PART_TOP_25
8
0
10
22.1
20
48.5
0
INSERT
2
PART_TOP_26
8
0
10
3.2
20
28.7
50
180
0
INSERT
2
PART_TOP_27
8
0
10
3.35
20
30.7
50
180
0
INSERT
2
PART_TOP_28
8
0
10
3.2
20
29.8
50
180
0
INSERT
2
PART_TOP_29
8
0
10
16.1
20
16.5
50
90
0
INSERT
2
PART_TOP_30
8
0
10
22.03
20
21.43
0
INSERT
2
PART_TOP_31
8
0
10
0
20
39.5
50
270
0
INSERT
2
PART_TOP_32
8
0
10
25
20
39.5
50
270
0
INSERT
2
PART_TOP_33
8
0
10
21.08
20
40.46
50
270
0
INSERT
2
PART_TOP_34
8
0
10
22.55
20
46.95
50
270
0
INSERT
2
PART_TOP_35
8
0
10
2.75
20
48.9
50
270
0
INSERT
2
PART_TOP_36
8
0
10
4.5
20
19.9
50
180
0
INSERT
2
PART_TOP_37
8
0
10
4.5
20
18.8
50
180
0
INSERT
2
PART_TOP_38
8
0
10
12.4
20
18.35
50
270
0
INSERT
2
PART_TOP_39
8
0
10
6.7
20
17.65
50
180
0
INSERT
2
PART_TOP_40
8
0
10
6.7
20
16.55
50
180
0
INSERT
2
PART_TOP_41
8
0
10
8.9
20
24.1
50
90
0
INSERT
2
PART_TOP_42
8
0
10
10
20
23.2
50
90
0
INSERT
2
PART_TOP_43
8
0
10
15.5
20
22.3
50
90
0
INSERT
2
PART_TOP_44
8
0
10
16.5
20
19.9
50
180
0
INSERT
2
PART_TOP_45
8
0
10
2.75
20
45.54
50
270
0
INSERT
2
PART_TOP_46
8
0
10
14.4
20
22.3
50
90
0
INSERT
2
PART_TOP_47
8
0
10
21.8
20
31.4
50
90
0
INSERT
2
PART_TOP_48
8
0
10
20.7
20
31.4
50
90
0
INSERT
2
PART_TOP_49
8
0
10
14.9
20
18.3
50
90
0
INSERT
2
PART_TOP_50
8
0
10
19.89
20
16
50
270
0
INSERT
2
PART_TOP_51
8
0
10
16.5
20
18.8
0
INSERT
2
PART_TOP_52
8
0
10
18.76
20
16
50
270
0
INSERT
2
PART_TOP_53
8
0
10
15
20
51.1
0
INSERT
2
PART_TOP_54
8
0
10
22.55
20
50
50
270
0
INSERT
2
PART_TOP_55
8
0
10
13.4
20
50.6
50
270
0
INSERT
2
PART_TOP_56
8
0
10
22.02
20
37.79
50
90
0
INSERT
2
PART_TOP_57
8
0
10
7.3
20
26.5
50
180
0
INSERT
2
PART_TOP_58
8
0
10
8.9
20
26
50
270
0
INSERT
2
PART_TOP_59
8
0
10
3.7
20
32.5
0
INSERT
2
PART_TOP_60
8
0
10
3.7
20
33.3
0
INSERT
2
PART_TOP_61
8
0
10
2.75
20
54.4
0
INSERT
2
PART_TOP_62
8
0
10
22.55
20
54.4
0
INSERT
2
PART_TOP_63
8
0
10
22.35
20
43.95
50
270
0
INSERT
2
PART_TOP_64
8
0
10
9.9
20
18.45
50
270
0
INSERT
2
PART_TOP_65
8
0
10
18
20
22.3
50
270
0
INSERT
2
PART_TOP_66
8
0
10
12.2
20
36.4
0
INSERT
2
PART_TOP_67
8
0
10
6.4
20
23.5
50
180
0
INSERT
2
PART_TOP_68
8
0
10
12.5
20
7.35
0
INSERT
2
PART_TOP_69
8
0
10
12.5
20
24.2
50
90
0
INSERT
2
PART_TOP_70
8
0
10
11.4
20
24.2
50
90
0
INSERT
2
PART_TOP_71
8
0
10
23
20
24.2
50
180
0
INSERT
2
PART_TOP_72
8
0
10
2.3
20
51.5
50
180
0
INSERT
2
PART_TOP_73
8
0
10
22.1
20
51.5
50
180
0
INSERT
2
PART_TOP_74
8
0
10
1.9
20
24.7
50
90
0
INSERT
2
PART_TOP_75
8
0
10
1.9
20
21.3
50
270
0
INSERT
2
PART_TOP_76
8
0
10
4.86
20
4.49
0
INSERT
2
PART_TOP_77
8
0
10
4.85
20
1.36
0
INSERT
2
PART_TOP_78
8
0
10
10.1
20
15.3
50
270
0
INSERT
2
PART_TOP_79
8
0
10
11.7
20
14.9
50
180
0
INSERT
2
PART_TOP_80
8
0
10
23
20
25.3
50
180
0
INSERT
2
PART_TOP_81
8
0
10
21
20
47.4
50
180
0
INSERT
2
PART_TOP_82
8
0
10
14.9
20
49.3
50
180
0
INSERT
2
PART_TOP_83
8
0
10
18.7
20
48.2
0
INSERT
2
PART_TOP_84
8
0
10
15.4
20
47.4
50
180
0
INSERT
2
PART_TOP_85
8
0
10
15
20
52.2
50
180
0
INSERT
2
PART_TOP_86
8
0
10
17
20
49.9
50
90
0
INSERT
2
PART_TOP_87
8
0
10
17
20
47.9
50
90
0
INSERT
2
PART_TOP_88
8
0
10
20.2
20
48.9
50
90
0
INSERT
2
PART_TOP_89
8
0
10
21
20
36.1
50
180
999
*** POWERPCB  PCB PARAMETER ***
0
INSERT
2
PCB_PARAMS
8
0
10
0
20
0
0
ENDSEC
0
EOF
